STARTFONT 2.1
FONT -Baekmuk-Headline-Medium-R-Normal--16-160-75-75-M-160-ksx1001.1997-0
SIZE 16 75 75
FONTBOUNDINGBOX 14 14 0 -3
STARTPROPERTIES 18
FOUNDRY "Baekmuk"
FAMILY_NAME "Headline"
WEIGHT_NAME "Medium"
SLANT "R"
SETWIDTH_NAME "Normal"
ADD_STYLE_NAME ""
PIXEL_SIZE 16
POINT_SIZE 160
RESOLUTION_X 75
RESOLUTION_Y 75
SPACING "M"
AVERAGE_WIDTH 160
CHARSET_REGISTRY "ksx1001.1997"
CHARSET_ENCODING "0"
DEFAULT_CHAR 8481
FONT_ASCENT 12
FONT_DESCENT 3
COPYRIGHT "(c)Hwan Design Inc. and Mizi Research Inc."
ENDPROPERTIES
CHARS 8224
STARTCHAR 3000
ENCODING 8481
SWIDTH 1800 0
DWIDTH 18 0
BBX 0 0 0 0
BITMAP
ENDCHAR
STARTCHAR 3001
ENCODING 8482
SWIDTH 1800 0
DWIDTH 18 0
BBX 3 3 10 10
BITMAP
E0
60
20
ENDCHAR
STARTCHAR 3002
ENCODING 8483
SWIDTH 1800 0
DWIDTH 18 0
BBX 4 4 2 9
BITMAP
20
70
D0
70
ENDCHAR
STARTCHAR 00B7
ENCODING 8484
SWIDTH 1800 0
DWIDTH 18 0
BBX 3 2 7 4
BITMAP
E0
E0
ENDCHAR
STARTCHAR 2025
ENCODING 8485
SWIDTH 1800 0
DWIDTH 18 0
BBX 10 2 3 4
BITMAP
E1C0
E1C0
ENDCHAR
STARTCHAR 2026
ENCODING 8486
SWIDTH 1800 0
DWIDTH 18 0
BBX 14 2 1 4
BITMAP
E39C
E39C
ENDCHAR
STARTCHAR 00A8
ENCODING 8487
SWIDTH 1800 0
DWIDTH 18 0
BBX 10 2 3 10
BITMAP
E1C0
E1C0
ENDCHAR
STARTCHAR 3003
ENCODING 8488
SWIDTH 1800 0
DWIDTH 18 0
BBX 8 7 4 2
BITMAP
40
77
67
46
C4
84
88
ENDCHAR
STARTCHAR 00AD
ENCODING 8489
SWIDTH 1800 0
DWIDTH 18 0
BBX 8 2 4 4
BITMAP
FF
FF
ENDCHAR
STARTCHAR 2015
ENCODING 8490
SWIDTH 1800 0
DWIDTH 18 0
BBX 10 2 3 4
BITMAP
FFC0
FFC0
ENDCHAR
STARTCHAR 2225
ENCODING 8491
SWIDTH 1800 0
DWIDTH 18 0
BBX 6 11 5 -1
BITMAP
FC
FC
FC
FC
FC
FC
FC
FC
FC
FC
FC
ENDCHAR
STARTCHAR FF3C
ENCODING 8492
SWIDTH 1800 0
DWIDTH 18 0
BBX 12 14 2 -2
BITMAP
4000
C000
6000
3000
1800
1C00
0E00
0700
0380
0180
00C0
0060
0030
0030
ENDCHAR
STARTCHAR 223C
ENCODING 8493
SWIDTH 1800 0
DWIDTH 18 0
BBX 10 3 3 3
BITMAP
FEC0
FFC0
0380
ENDCHAR
STARTCHAR 2018
ENCODING 8494
SWIDTH 1800 0
DWIDTH 18 0
BBX 2 3 10 9
BITMAP
80
C0
C0
ENDCHAR
STARTCHAR 2019
ENCODING 8495
SWIDTH 1800 0
DWIDTH 18 0
BBX 3 4 3 9
BITMAP
40
E0
60
40
ENDCHAR
STARTCHAR 201C
ENCODING 8496
SWIDTH 1800 0
DWIDTH 18 0
BBX 5 3 9 9
BITMAP
90
D8
D8
ENDCHAR
STARTCHAR 201D
ENCODING 8497
SWIDTH 1800 0
DWIDTH 18 0
BBX 6 4 2 9
BITMAP
48
FC
4C
88
ENDCHAR
STARTCHAR 3014
ENCODING 8498
SWIDTH 1800 0
DWIDTH 18 0
BBX 5 16 9 -3
BITMAP
38
F8
E0
E0
E0
E0
E0
E0
E0
E0
E0
E0
E0
E0
F8
38
ENDCHAR
STARTCHAR 3015
ENCODING 8499
SWIDTH 1800 0
DWIDTH 18 0
BBX 5 16 2 -3
BITMAP
E0
F8
38
38
38
38
38
38
38
38
38
38
38
38
F8
C0
ENDCHAR
STARTCHAR 3008
ENCODING 8500
SWIDTH 1800 0
DWIDTH 18 0
BBX 6 15 8 -3
BITMAP
0C
1C
18
30
70
60
E0
C0
E0
70
30
38
18
0C
08
ENDCHAR
STARTCHAR 3009
ENCODING 8501
SWIDTH 1800 0
DWIDTH 18 0
BBX 6 15 2 -3
BITMAP
C0
E0
60
70
30
18
1C
1C
18
38
30
70
E0
C0
40
ENDCHAR
STARTCHAR 300A
ENCODING 8502
SWIDTH 1800 0
DWIDTH 18 0
BBX 11 16 3 -3
BITMAP
0400
0660
0CE0
1DC0
1980
3380
7700
E600
EE00
7700
3300
3B80
1DC0
0CE0
0E60
0440
ENDCHAR
STARTCHAR 300B
ENCODING 8503
SWIDTH 1800 0
DWIDTH 18 0
BBX 11 15 2 -3
BITMAP
C400
EE00
6600
3700
3B80
1D80
0CC0
0EE0
1CC0
3980
3380
7700
E600
CE00
4400
ENDCHAR
STARTCHAR 300C
ENCODING 8504
SWIDTH 1800 0
DWIDTH 18 0
BBX 8 8 7 5
BITMAP
FF
FF
E0
E0
E0
E0
E0
E0
ENDCHAR
STARTCHAR 300D
ENCODING 8505
SWIDTH 1800 0
DWIDTH 18 0
BBX 8 8 1 -3
BITMAP
07
07
07
07
07
07
FF
FF
ENDCHAR
STARTCHAR 300E
ENCODING 8506
SWIDTH 1800 0
DWIDTH 18 0
BBX 7 8 9 5
BITMAP
FE
82
BE
A0
A0
A0
A0
E0
ENDCHAR
STARTCHAR 300F
ENCODING 8507
SWIDTH 1800 0
DWIDTH 18 0
BBX 7 8 0 -3
BITMAP
0E
0A
0A
0A
0A
FA
82
FE
ENDCHAR
STARTCHAR 3010
ENCODING 8508
SWIDTH 1800 0
DWIDTH 18 0
BBX 5 15 9 -3
BITMAP
F8
F0
F0
E0
E0
E0
E0
E0
E0
E0
E0
F0
F0
F0
F8
ENDCHAR
STARTCHAR 3011
ENCODING 8509
SWIDTH 1800 0
DWIDTH 18 0
BBX 5 15 2 -3
BITMAP
F8
78
78
38
38
38
38
38
38
38
38
78
78
78
F8
ENDCHAR
STARTCHAR 00B1
ENCODING 8510
SWIDTH 1800 0
DWIDTH 18 0
BBX 11 10 2 0
BITMAP
0E00
0E00
0E00
FFE0
FFE0
0E00
0E00
0E00
7FE0
7FE0
ENDCHAR
STARTCHAR 00D7
ENCODING 8511
SWIDTH 1800 0
DWIDTH 18 0
BBX 10 10 3 0
BITMAP
4080
E1C0
7380
3F00
1E00
1E00
3F00
7380
E1C0
4080
ENDCHAR
STARTCHAR 00F7
ENCODING 8512
SWIDTH 1800 0
DWIDTH 18 0
BBX 10 10 3 0
BITMAP
0C00
0C00
0C00
0000
FFC0
FFC0
0000
0000
0C00
0C00
ENDCHAR
STARTCHAR 2260
ENCODING 8513
SWIDTH 1800 0
DWIDTH 18 0
BBX 10 10 3 0
BITMAP
1000
3000
3800
FFC0
1C00
0C00
FFC0
FFC0
0300
0300
ENDCHAR
STARTCHAR 2264
ENCODING 8514
SWIDTH 1800 0
DWIDTH 18 0
BBX 11 11 2 0
BITMAP
00E0
03E0
0F00
7C00
F000
3E00
0F80
01E0
0060
7FE0
7FE0
ENDCHAR
STARTCHAR 2265
ENCODING 8515
SWIDTH 1800 0
DWIDTH 18 0
BBX 11 11 3 0
BITMAP
C000
F800
3E00
07C0
01E0
0F80
3E00
F000
C000
FFC0
FFC0
ENDCHAR
STARTCHAR 221E
ENCODING 8516
SWIDTH 1800 0
DWIDTH 18 0
BBX 14 7 1 1
BITMAP
3CF0
7FFC
E31C
E31C
FFFC
7EF8
0020
ENDCHAR
STARTCHAR 2234
ENCODING 8517
SWIDTH 1800 0
DWIDTH 18 0
BBX 12 9 2 0
BITMAP
0E00
0E00
0000
0000
0000
0000
0000
E070
E070
ENDCHAR
STARTCHAR 00B0
ENCODING 8518
SWIDTH 1800 0
DWIDTH 18 0
BBX 4 3 2 9
BITMAP
70
D0
70
ENDCHAR
STARTCHAR 2032
ENCODING 8519
SWIDTH 1800 0
DWIDTH 18 0
BBX 3 4 3 9
BITMAP
40
60
C0
80
ENDCHAR
STARTCHAR 2033
ENCODING 8520
SWIDTH 1800 0
DWIDTH 18 0
BBX 5 3 2 9
BITMAP
F8
D8
A0
ENDCHAR
STARTCHAR 2103
ENCODING 8521
SWIDTH 1800 0
DWIDTH 18 0
BBX 12 12 2 -1
BITMAP
6000
B3C0
FFF0
1C30
3800
3800
3800
3820
3C30
1E70
0FE0
03C0
ENDCHAR
STARTCHAR 212B
ENCODING 8522
SWIDTH 1800 0
DWIDTH 18 0
BBX 11 12 2 0
BITMAP
0F00
0900
0600
0600
0F00
0F00
1B80
1980
3FC0
70C0
6060
E060
ENDCHAR
STARTCHAR FFE0
ENCODING 8523
SWIDTH 1800 0
DWIDTH 18 0
BBX 10 13 3 -2
BITMAP
0700
0E00
3F80
7F80
E400
EC00
E880
E8C0
79C0
3F80
3F00
7000
6000
ENDCHAR
STARTCHAR FFE1
ENCODING 8524
SWIDTH 1800 0
DWIDTH 18 0
BBX 12 13 1 -1
BITMAP
0180
07E0
0E60
1C30
1C00
1C00
7FE0
7FE0
1C00
FC00
CFF0
FFF0
7000
ENDCHAR
STARTCHAR FFE5
ENCODING 8525
SWIDTH 1800 0
DWIDTH 18 0
BBX 13 13 1 -1
BITMAP
E038
6030
7070
3060
FFF8
1FC0
0F80
0F80
FFF8
FFF8
0700
0700
0700
ENDCHAR
STARTCHAR 2642
ENCODING 8526
SWIDTH 1800 0
DWIDTH 18 0
BBX 11 14 2 -2
BITMAP
0400
1E00
3F80
7FC0
EEE0
0E00
0E00
0E00
1F00
3F80
3980
3980
3F80
1F00
ENDCHAR
STARTCHAR 2640
ENCODING 8527
SWIDTH 1800 0
DWIDTH 18 0
BBX 11 14 2 -2
BITMAP
0F00
3F80
39C0
39C0
39C0
1F80
0E00
0E00
FFE0
FFE0
0E00
0E00
0E00
0E00
ENDCHAR
STARTCHAR 2220
ENCODING 8528
SWIDTH 1800 0
DWIDTH 18 0
BBX 12 10 2 0
BITMAP
0070
00E0
01C0
0380
0700
0E00
1C00
3800
7FF0
FFF0
ENDCHAR
STARTCHAR 22A5
ENCODING 8529
SWIDTH 1800 0
DWIDTH 18 0
BBX 13 11 1 0
BITMAP
0700
0700
0700
0700
0700
0700
0700
0700
0700
FFF8
FFF8
ENDCHAR
STARTCHAR 2312
ENCODING 8530
SWIDTH 1800 0
DWIDTH 18 0
BBX 8 2 4 10
BITMAP
7E
C7
ENDCHAR
STARTCHAR 2202
ENCODING 8531
SWIDTH 1800 0
DWIDTH 18 0
BBX 8 11 4 0
BITMAP
0E
3F
33
03
03
3F
66
E6
CC
FC
78
ENDCHAR
STARTCHAR 2207
ENCODING 8532
SWIDTH 1800 0
DWIDTH 18 0
BBX 14 10 1 0
BITMAP
FFFC
4008
6018
3030
1020
1860
0CC0
0780
0300
0300
ENDCHAR
STARTCHAR 2261
ENCODING 8533
SWIDTH 1800 0
DWIDTH 18 0
BBX 12 8 2 1
BITMAP
FFF0
FFF0
0000
FFF0
FFF0
0000
0000
FFF0
ENDCHAR
STARTCHAR 2252
ENCODING 8534
SWIDTH 1800 0
DWIDTH 18 0
BBX 12 12 2 -1
BITMAP
2000
7000
7000
0000
FFF0
FFF0
0000
FFF0
0000
0040
00E0
00E0
ENDCHAR
STARTCHAR 00A7
ENCODING 8535
SWIDTH 1800 0
DWIDTH 18 0
BBX 10 14 3 -2
BITMAP
7C00
FF00
C380
F8C0
7E00
CF80
C180
7980
3F80
C780
C180
6180
3F80
1F00
ENDCHAR
STARTCHAR 203B
ENCODING 8536
SWIDTH 1800 0
DWIDTH 18 0
BBX 12 13 2 -2
BITMAP
4620
E670
70E0
39C0
1F80
CF30
CF30
1F80
39C0
70E0
E670
4620
0600
ENDCHAR
STARTCHAR 2606
ENCODING 8537
SWIDTH 1800 0
DWIDTH 18 0
BBX 14 13 1 -2
BITMAP
0200
0300
0300
0700
FFFC
7DF0
1020
08C0
0840
1F60
18E0
1020
2010
ENDCHAR
STARTCHAR 2605
ENCODING 8538
SWIDTH 1800 0
DWIDTH 18 0
BBX 14 13 1 -2
BITMAP
0200
0300
0300
0700
FFFC
7FF8
1FE0
0FC0
0FC0
1FE0
1CE0
1020
2010
ENDCHAR
STARTCHAR 25CB
ENCODING 8539
SWIDTH 1800 0
DWIDTH 18 0
BBX 14 14 1 -2
BITMAP
0FC0
3FF0
7038
6018
C00C
8004
8004
8004
8004
C00C
6018
7030
3FF0
0FC0
ENDCHAR
STARTCHAR 25CF
ENCODING 8540
SWIDTH 1800 0
DWIDTH 18 0
BBX 14 14 1 -2
BITMAP
0FC0
3FF0
7FF8
7FF8
FFFC
FFFC
FFFC
FFFC
FFFC
FFFC
7FF8
7FF8
3FF0
0FC0
ENDCHAR
STARTCHAR 25CE
ENCODING 8541
SWIDTH 1800 0
DWIDTH 18 0
BBX 14 14 1 -2
BITMAP
0FC0
3FF0
77B8
7FF8
D86C
A014
A014
A014
A014
D86C
7FF8
77B8
3FF0
0FC0
ENDCHAR
STARTCHAR 25C7
ENCODING 8542
SWIDTH 1800 0
DWIDTH 18 0
BBX 14 14 1 -2
BITMAP
0300
0780
0DC0
18E0
3030
6018
C00C
C00C
6018
3030
1860
0CC0
0780
0300
ENDCHAR
STARTCHAR 25C6
ENCODING 8543
SWIDTH 1800 0
DWIDTH 18 0
BBX 14 14 1 -2
BITMAP
0300
0780
0FC0
1FE0
3FF0
7FF8
FFFC
FFFC
7FF8
3FF0
1FE0
0FC0
0780
0300
ENDCHAR
STARTCHAR 25A1
ENCODING 8544
SWIDTH 1800 0
DWIDTH 18 0
BBX 14 14 1 -2
BITMAP
FFFC
FFFC
8004
8004
8004
8004
8004
8004
8004
8004
8004
8004
FFFC
FFFC
ENDCHAR
STARTCHAR 25A0
ENCODING 8545
SWIDTH 1800 0
DWIDTH 18 0
BBX 14 12 1 -1
BITMAP
FFFC
FFFC
FFFC
FFFC
FFFC
FFFC
FFFC
FFFC
FFFC
FFFC
FFFC
FFFC
ENDCHAR
STARTCHAR 25B3
ENCODING 8546
SWIDTH 1800 0
DWIDTH 18 0
BBX 14 10 1 -1
BITMAP
0300
0780
0480
0840
1060
3030
2010
4018
FFFC
FFFC
ENDCHAR
STARTCHAR 25B2
ENCODING 8547
SWIDTH 1800 0
DWIDTH 18 0
BBX 14 10 1 0
BITMAP
0300
0780
0780
0FC0
1FE0
3FE0
3FF0
7FF8
FFFC
FFFC
ENDCHAR
STARTCHAR 25BD
ENCODING 8548
SWIDTH 1800 0
DWIDTH 18 0
BBX 14 10 1 0
BITMAP
FFFC
FFFC
4008
2010
3030
1020
0840
0C80
0580
0300
ENDCHAR
STARTCHAR 25BC
ENCODING 8549
SWIDTH 1800 0
DWIDTH 18 0
BBX 14 10 1 0
BITMAP
FFFC
FFFC
7FF8
3FF0
3FF0
1FE0
0FC0
0F80
0780
0300
ENDCHAR
STARTCHAR 2192
ENCODING 8550
SWIDTH 1800 0
DWIDTH 18 0
BBX 14 4 1 3
BITMAP
0030
FFF8
FFFC
0030
ENDCHAR
STARTCHAR 2190
ENCODING 8551
SWIDTH 1800 0
DWIDTH 18 0
BBX 14 5 1 2
BITMAP
3000
7FFC
FFFC
2000
1000
ENDCHAR
STARTCHAR 2191
ENCODING 8552
SWIDTH 1800 0
DWIDTH 18 0
BBX 4 13 6 -2
BITMAP
60
F0
F0
60
60
60
60
60
60
60
60
60
60
ENDCHAR
STARTCHAR 2193
ENCODING 8553
SWIDTH 1800 0
DWIDTH 18 0
BBX 5 14 6 -2
BITMAP
70
70
70
70
70
70
70
70
70
70
F8
F8
70
20
ENDCHAR
STARTCHAR 2194
ENCODING 8554
SWIDTH 1800 0
DWIDTH 18 0
BBX 14 5 1 2
BITMAP
2030
FFF8
FFFC
6010
1020
ENDCHAR
STARTCHAR 3013
ENCODING 8555
SWIDTH 1800 0
DWIDTH 18 0
BBX 14 6 1 2
BITMAP
FFFC
FFFC
0000
0000
0000
FFFC
ENDCHAR
STARTCHAR 226A
ENCODING 8556
SWIDTH 1800 0
DWIDTH 18 0
BBX 13 16 2 -3
BITMAP
0010
0338
0770
0EE0
1DC0
3B80
6700
CE00
CE00
7700
3B80
1DC0
0EE0
0770
0338
0010
ENDCHAR
STARTCHAR 226B
ENCODING 8557
SWIDTH 1800 0
DWIDTH 18 0
BBX 14 16 1 -3
BITMAP
0400
4600
E380
71C0
38E0
1C70
0E38
079C
03B8
0770
0EE0
1DC0
3B80
7700
E600
4000
ENDCHAR
STARTCHAR 221A
ENCODING 8558
SWIDTH 1800 0
DWIDTH 18 0
BBX 14 15 1 -2
BITMAP
01FC
01FC
0300
0300
0200
0600
0600
0C00
4C00
EC00
F800
3800
3000
1000
1000
ENDCHAR
STARTCHAR 223D
ENCODING 8559
SWIDTH 1800 0
DWIDTH 18 0
BBX 16 8 0 1
BITMAP
0018
3F7E
72CF
E087
E187
F34F
7EFE
3C78
ENDCHAR
STARTCHAR 221D
ENCODING 8560
SWIDTH 1800 0
DWIDTH 18 0
BBX 15 8 0 1
BITMAP
1C3C
7F7E
F3E0
E1C0
E0C0
E1C0
7FFE
3E7C
ENDCHAR
STARTCHAR 2235
ENCODING 8561
SWIDTH 1800 0
DWIDTH 18 0
BBX 12 10 2 0
BITMAP
4020
E070
6060
0000
0000
0000
0000
0600
0600
0600
ENDCHAR
STARTCHAR 222B
ENCODING 8562
SWIDTH 1800 0
DWIDTH 18 0
BBX 9 13 3 -2
BITMAP
0780
0F80
0C00
0C00
1C00
1C00
1C00
1C00
1C00
1C00
5800
F800
7000
ENDCHAR
STARTCHAR 222C
ENCODING 8563
SWIDTH 1800 0
DWIDTH 18 0
BBX 14 13 1 -2
BITMAP
07BC
0FFC
0C60
0C60
1CE0
1CE0
1CE0
1CE0
1CE0
1CE0
5AC0
FFC0
7380
ENDCHAR
STARTCHAR 2208
ENCODING 8564
SWIDTH 1800 0
DWIDTH 18 0
BBX 12 8 2 1
BITMAP
3FF0
7000
C000
FFF0
FFF0
C000
6000
3FF0
ENDCHAR
STARTCHAR 220B
ENCODING 8565
SWIDTH 1800 0
DWIDTH 18 0
BBX 12 8 2 1
BITMAP
FFC0
FFE0
0030
FFF0
FFF0
0030
0060
FFE0
ENDCHAR
STARTCHAR 2286
ENCODING 8566
SWIDTH 1800 0
DWIDTH 18 0
BBX 10 9 3 0
BITMAP
7FC0
E000
C000
C000
C000
7FC0
0000
FFC0
FFC0
ENDCHAR
STARTCHAR 2287
ENCODING 8567
SWIDTH 1800 0
DWIDTH 18 0
BBX 12 9 2 0
BITMAP
FFC0
00E0
0070
0070
00F0
FFC0
0000
7FE0
7FE0
ENDCHAR
STARTCHAR 2282
ENCODING 8568
SWIDTH 1800 0
DWIDTH 18 0
BBX 13 8 2 1
BITMAP
0FF8
3FF8
7000
E000
E000
E000
7000
3FF8
ENDCHAR
STARTCHAR 2283
ENCODING 8569
SWIDTH 1800 0
DWIDTH 18 0
BBX 13 8 1 1
BITMAP
FFC0
FFF0
0038
0038
0038
0038
0070
FFE0
ENDCHAR
STARTCHAR 222A
ENCODING 8570
SWIDTH 1800 0
DWIDTH 18 0
BBX 10 11 3 -1
BITMAP
E1C0
E1C0
E1C0
E1C0
E1C0
E1C0
E1C0
E1C0
F3C0
7F80
3E00
ENDCHAR
STARTCHAR 2229
ENCODING 8571
SWIDTH 1800 0
DWIDTH 18 0
BBX 10 11 3 -1
BITMAP
1F00
7F80
F3C0
E1C0
E1C0
E1C0
E1C0
E1C0
E1C0
E1C0
E1C0
ENDCHAR
STARTCHAR 2227
ENCODING 8572
SWIDTH 1800 0
DWIDTH 18 0
BBX 10 10 3 -1
BITMAP
0C00
0C00
1E00
3E00
3300
7300
6180
E1C0
C0C0
80C0
ENDCHAR
STARTCHAR 2228
ENCODING 8573
SWIDTH 1800 0
DWIDTH 18 0
BBX 10 10 3 0
BITMAP
C0C0
C0C0
E1C0
6180
7300
3300
1E00
1E00
0C00
0C00
ENDCHAR
STARTCHAR FFE2
ENCODING 8574
SWIDTH 1800 0
DWIDTH 18 0
BBX 13 10 1 1
BITMAP
FFF8
FFF8
0038
0038
0038
0038
0038
0038
0038
0038
ENDCHAR
STARTCHAR 21D2
ENCODING 8737
SWIDTH 1800 0
DWIDTH 18 0
BBX 13 7 1 1
BITMAP
00E0
FFF0
FFF8
0018
FFF0
00E0
00C0
ENDCHAR
STARTCHAR 21D4
ENCODING 8738
SWIDTH 1800 0
DWIDTH 18 0
BBX 14 8 1 1
BITMAP
0840
1CE0
3FF8
FFFC
FFFC
7FF8
3870
1860
ENDCHAR
STARTCHAR 2200
ENCODING 8739
SWIDTH 1800 0
DWIDTH 18 0
BBX 10 11 3 0
BITMAP
40C0
C0C0
E1C0
7F80
7F80
3380
3300
3F00
1E00
1E00
0C00
ENDCHAR
STARTCHAR 2203
ENCODING 8740
SWIDTH 1800 0
DWIDTH 18 0
BBX 10 11 3 0
BITMAP
FFC0
FFC0
01C0
01C0
01C0
FFC0
01C0
01C0
01C0
FFC0
FFC0
ENDCHAR
STARTCHAR 00B4
ENCODING 8741
SWIDTH 1800 0
DWIDTH 18 0
BBX 4 3 6 9
BITMAP
F0
C0
80
ENDCHAR
STARTCHAR FF5E
ENCODING 8742
SWIDTH 1800 0
DWIDTH 18 0
BBX 8 3 4 9
BITMAP
7D
FF
80
ENDCHAR
STARTCHAR 02C7
ENCODING 8743
SWIDTH 1800 0
DWIDTH 18 0
BBX 5 2 6 10
BITMAP
D8
70
ENDCHAR
STARTCHAR 02D8
ENCODING 8744
SWIDTH 1800 0
DWIDTH 18 0
BBX 7 3 5 10
BITMAP
86
CE
FC
ENDCHAR
STARTCHAR 02DD
ENCODING 8745
SWIDTH 1800 0
DWIDTH 18 0
BBX 7 3 5 10
BITMAP
EE
CC
90
ENDCHAR
STARTCHAR 02DA
ENCODING 8746
SWIDTH 1800 0
DWIDTH 18 0
BBX 4 5 6 8
BITMAP
70
F0
D0
F0
70
ENDCHAR
STARTCHAR 02D9
ENCODING 8747
SWIDTH 1800 0
DWIDTH 18 0
BBX 4 4 6 9
BITMAP
70
F0
F0
70
ENDCHAR
STARTCHAR 00B8
ENCODING 8748
SWIDTH 1800 0
DWIDTH 18 0
BBX 5 5 6 -2
BITMAP
E0
78
38
F0
E0
ENDCHAR
STARTCHAR 02DB
ENCODING 8749
SWIDTH 1800 0
DWIDTH 18 0
BBX 5 5 6 -2
BITMAP
38
E0
E0
78
30
ENDCHAR
STARTCHAR 00A1
ENCODING 8750
SWIDTH 1800 0
DWIDTH 18 0
BBX 3 13 7 -2
BITMAP
C0
E0
00
C0
C0
C0
C0
C0
C0
C0
C0
E0
E0
ENDCHAR
STARTCHAR 00BF
ENCODING 8751
SWIDTH 1800 0
DWIDTH 18 0
BBX 8 13 4 -2
BITMAP
0E
0E
0E
0E
0E
1E
7E
70
E0
E3
77
7E
1C
ENDCHAR
STARTCHAR 02D0
ENCODING 8752
SWIDTH 1800 0
DWIDTH 18 0
BBX 4 9 6 0
BITMAP
60
60
00
00
00
00
20
60
F0
ENDCHAR
STARTCHAR 222E
ENCODING 8753
SWIDTH 1800 0
DWIDTH 18 0
BBX 11 13 2 -2
BITMAP
03C0
07E0
0E20
0E00
3F80
7FC0
76C0
7FC0
3F80
0E00
8E00
FC00
7800
ENDCHAR
STARTCHAR 2211
ENCODING 8754
SWIDTH 1800 0
DWIDTH 18 0
BBX 13 13 2 -2
BITMAP
FFF8
E038
7018
3818
1C00
0E00
0600
0C00
1C00
1800
3000
7FF8
FFF8
ENDCHAR
STARTCHAR 220F
ENCODING 8755
SWIDTH 1800 0
DWIDTH 18 0
BBX 13 13 2 -2
BITMAP
FFF8
38E0
38E0
38E0
38E0
38E0
38E0
38E0
38E0
38E0
38E0
38E0
38E0
ENDCHAR
STARTCHAR 00A4
ENCODING 8756
SWIDTH 1800 0
DWIDTH 18 0
BBX 16 15 0 -3
BITMAP
4000
E007
37EC
1FF8
1C38
383C
381C
381C
381C
3838
1C38
3FFC
77EE
E006
4000
ENDCHAR
STARTCHAR 2109
ENCODING 8757
SWIDTH 1800 0
DWIDTH 18 0
BBX 15 13 1 -2
BITMAP
07FE
F7FE
FF00
DF00
F700
07F8
0700
0700
0700
0700
0700
0700
0700
ENDCHAR
STARTCHAR 2030
ENCODING 8758
SWIDTH 1800 0
DWIDTH 18 0
BBX 15 12 1 -1
BITMAP
30C0
7980
D900
DB00
9E00
FD08
6BDC
1EF6
36F6
66AC
47BC
C738
ENDCHAR
STARTCHAR 25C1
ENCODING 8759
SWIDTH 1800 0
DWIDTH 18 0
BBX 11 14 2 -2
BITMAP
0020
0060
01E0
07A0
0E20
3820
F020
6020
3820
0E20
07A0
01E0
0060
0020
ENDCHAR
STARTCHAR 25C0
ENCODING 8760
SWIDTH 1800 0
DWIDTH 18 0
BBX 11 14 3 -2
BITMAP
0020
00E0
01E0
07E0
1FE0
3FE0
FFE0
FFE0
3FE0
0FE0
07E0
01E0
00E0
0020
ENDCHAR
STARTCHAR 25B7
ENCODING 8761
SWIDTH 1800 0
DWIDTH 18 0
BBX 11 14 1 -2
BITMAP
8000
C000
F000
EC00
E200
E180
E040
E020
E0C0
E300
EC00
F000
E000
8000
ENDCHAR
STARTCHAR 25B6
ENCODING 8762
SWIDTH 1800 0
DWIDTH 18 0
BBX 10 12 3 -1
BITMAP
C000
F000
F800
FE00
FF00
FFC0
FFC0
FF80
FE00
F800
F000
C000
ENDCHAR
STARTCHAR 2664
ENCODING 8763
SWIDTH 1800 0
DWIDTH 18 0
BBX 12 12 2 -2
BITMAP
0E00
1100
2080
2040
4020
8020
8030
CF30
FFE0
7BC0
1F00
1F00
ENDCHAR
STARTCHAR 2660
ENCODING 8764
SWIDTH 1800 0
DWIDTH 18 0
BBX 12 12 2 -2
BITMAP
0600
0F00
1F80
3FC0
7FE0
7FE0
FFF0
FFF0
7FE0
7FC0
0F00
1F00
ENDCHAR
STARTCHAR 2661
ENCODING 8765
SWIDTH 1800 0
DWIDTH 18 0
BBX 12 13 2 -2
BITMAP
79E0
CF30
8610
8610
C010
C030
4020
6060
30C0
1080
0900
0F00
0600
ENDCHAR
STARTCHAR 2665
ENCODING 8766
SWIDTH 1800 0
DWIDTH 18 0
BBX 12 13 2 -2
BITMAP
79E0
FFF0
FFF0
FFF0
FFF0
7FE0
7FE0
7FE0
3FC0
1F80
0F00
0F00
0600
ENDCHAR
STARTCHAR 2667
ENCODING 8767
SWIDTH 1800 0
DWIDTH 18 0
BBX 16 14 1 -2
BITMAP
0780
0FE0
0C60
0820
0820
3CC0
7EFE
4407
C007
47C7
7EFE
3EFC
03C0
07C0
ENDCHAR
STARTCHAR 2663
ENCODING 8768
SWIDTH 1800 0
DWIDTH 18 0
BBX 14 13 1 -2
BITMAP
0780
0FC0
0FC0
0FC0
0FC0
7FF8
FFFC
FFFC
FFFC
7FF8
3FF0
0780
0780
ENDCHAR
STARTCHAR 2299
ENCODING 8769
SWIDTH 1800 0
DWIDTH 18 0
BBX 14 14 1 -2
BITMAP
0FC0
3030
6018
CFC8
9FE4
9FE4
BFE4
BFE4
9FE4
9FC4
4F88
6018
3030
0FC0
ENDCHAR
STARTCHAR 25C8
ENCODING 8770
SWIDTH 1800 0
DWIDTH 18 0
BBX 14 14 1 -2
BITMAP
0100
0780
0CC0
1B60
3790
4FC8
9FE4
9FE4
4FC8
3790
1B60
0CC0
0780
0100
ENDCHAR
STARTCHAR 25A3
ENCODING 8771
SWIDTH 1800 0
DWIDTH 18 0
BBX 14 14 1 -2
BITMAP
FFFC
FFFC
8004
8004
9FE4
9FE4
9FE4
9FE4
9FE4
9FE4
9FE4
9FE4
8004
FFFC
ENDCHAR
STARTCHAR 25D0
ENCODING 8772
SWIDTH 1800 0
DWIDTH 18 0
BBX 15 14 1 -2
BITMAP
0FE0
1F30
3F08
7F04
FF06
FF02
FF02
FF02
FF02
FF06
7F04
3F08
1F30
07E0
ENDCHAR
STARTCHAR 25D1
ENCODING 8773
SWIDTH 1800 0
DWIDTH 18 0
BBX 15 14 1 -2
BITMAP
0FC0
19F0
21F8
41FC
C1FC
81FE
81FE
81FE
81FE
C1FC
41FC
21F8
19F0
0FE0
ENDCHAR
STARTCHAR 2592
ENCODING 8774
SWIDTH 1800 0
DWIDTH 18 0
BBX 14 13 1 -2
BITMAP
FFFC
EB5C
8024
B7A4
EB5C
CA54
B7A4
EB5C
CA54
B7A4
EB5C
EB5C
FFFC
ENDCHAR
STARTCHAR 25A4
ENCODING 8775
SWIDTH 1800 0
DWIDTH 18 0
BBX 15 14 1 -2
BITMAP
FFFE
FFFE
FFFE
FFFE
FFFE
FFFE
FFFE
FFFE
FFFE
FFFE
FFFE
FFFE
FFFE
FFFE
ENDCHAR
STARTCHAR 25A5
ENCODING 8776
SWIDTH 1800 0
DWIDTH 18 0
BBX 15 14 1 -2
BITMAP
FFFE
FFFE
A952
A952
A952
A952
A952
A952
A952
A952
A952
A952
FFFE
FFFE
ENDCHAR
STARTCHAR 25A8
ENCODING 8777
SWIDTH 1800 0
DWIDTH 18 0
BBX 15 14 1 -2
BITMAP
FFFE
FFFE
A6CA
CD96
9B2E
B65A
ECB6
DB6E
B4DA
E9B2
D36E
A6DA
FFFE
FFFE
ENDCHAR
STARTCHAR 25A7
ENCODING 8778
SWIDTH 1800 0
DWIDTH 18 0
BBX 14 14 1 -2
BITMAP
FFFC
FFFC
C9B4
E6CC
F364
B9B4
DCDC
EF64
B6B4
9B5C
EDAC
B654
FFFC
FFFC
ENDCHAR
STARTCHAR 25A6
ENCODING 8779
SWIDTH 1800 0
DWIDTH 18 0
BBX 14 14 1 -2
BITMAP
FFFC
FFFC
FFFC
FFFC
FFFC
FFFC
FFFC
FFFC
FFFC
FFFC
FFFC
FFFC
A554
FFFC
ENDCHAR
STARTCHAR 25A9
ENCODING 8780
SWIDTH 1800 0
DWIDTH 18 0
BBX 15 15 1 -3
BITMAP
FFFE
DFFE
E6DE
FFFE
DBF6
EEDE
FFFE
DB76
EEDE
FFFE
DB36
EFDE
FFDE
FFFE
FFFE
ENDCHAR
STARTCHAR 2668
ENCODING 8781
SWIDTH 1800 0
DWIDTH 18 0
BBX 17 14 0 -2
BITMAP
046000
04E000
05E000
0DE000
0DE000
07F000
07F000
0FF400
77E300
E5E180
E52380
7D0F00
3FFE00
07F000
ENDCHAR
STARTCHAR 260F
ENCODING 8782
SWIDTH 1800 0
DWIDTH 18 0
BBX 16 11 0 -1
BITMAP
0FF0
301C
5FFA
97E9
B7DF
4E72
1428
2424
2664
7FFC
7FFC
ENDCHAR
STARTCHAR 260E
ENCODING 8783
SWIDTH 1800 0
DWIDTH 18 0
BBX 16 11 0 -1
BITMAP
0FF8
7FFE
742E
F7EF
FC3F
0818
381C
381C
3C3C
7FFC
7FFC
ENDCHAR
STARTCHAR 261C
ENCODING 8784
SWIDTH 1800 0
DWIDTH 18 0
BBX 16 7 0 1
BITMAP
7FF7
FFED
1EC5
1FE5
0F55
0FCF
03F0
ENDCHAR
STARTCHAR 261E
ENCODING 8785
SWIDTH 1800 0
DWIDTH 18 0
BBX 16 7 0 1
BITMAP
EFFE
B7FF
A378
A7F8
AAF0
F3E0
0FC0
ENDCHAR
STARTCHAR 00B6
ENCODING 8786
SWIDTH 1800 0
DWIDTH 18 0
BBX 10 14 3 -2
BITMAP
3FC0
7FC0
EFC0
EFC0
EFC0
7FC0
3FC0
0FC0
0FC0
0FC0
0FC0
0FC0
0FC0
0FC0
ENDCHAR
STARTCHAR 2020
ENCODING 8787
SWIDTH 1800 0
DWIDTH 18 0
BBX 9 14 4 -2
BITMAP
1C00
1C00
1C00
1C00
FF80
FF80
1C00
1C00
1C00
1C00
1C00
1C00
1C00
1C00
ENDCHAR
STARTCHAR 2021
ENCODING 8788
SWIDTH 1800 0
DWIDTH 18 0
BBX 10 14 4 -2
BITMAP
1C00
1C00
FFC0
FFC0
1C00
FF80
FF80
1C00
1C00
1C00
1C00
1C00
1C00
1C00
ENDCHAR
STARTCHAR 2195
ENCODING 8789
SWIDTH 1800 0
DWIDTH 18 0
BBX 4 12 6 -1
BITMAP
60
F0
60
60
60
60
60
60
60
60
F0
60
ENDCHAR
STARTCHAR 2197
ENCODING 8790
SWIDTH 1800 0
DWIDTH 18 0
BBX 14 13 1 -2
BITMAP
007C
001C
003C
0064
00C4
0180
0300
0600
1C00
3800
7000
E000
4000
ENDCHAR
STARTCHAR 2199
ENCODING 8791
SWIDTH 1800 0
DWIDTH 18 0
BBX 14 13 1 -2
BITMAP
0008
001C
0038
0070
00E0
01C0
0300
0600
8C00
9800
F000
E000
F800
ENDCHAR
STARTCHAR 2196
ENCODING 8792
SWIDTH 1800 0
DWIDTH 18 0
BBX 13 13 1 -2
BITMAP
C000
F000
E000
B000
9800
0E00
0700
0180
00C0
0060
0030
0018
0008
ENDCHAR
STARTCHAR 2198
ENCODING 8793
SWIDTH 1800 0
DWIDTH 18 0
BBX 14 12 1 -2
BITMAP
C000
7000
3800
1C00
0E00
0700
0180
00C4
0064
003C
001C
007C
ENDCHAR
STARTCHAR 266D
ENCODING 8794
SWIDTH 1800 0
DWIDTH 18 0
BBX 8 13 5 -2
BITMAP
E0
E0
E0
E0
E0
FE
F6
E3
E7
E6
EE
F8
E0
ENDCHAR
STARTCHAR 2669
ENCODING 8795
SWIDTH 1800 0
DWIDTH 18 0
BBX 6 14 4 -3
BITMAP
1C
1C
1C
1C
1C
1C
1C
1C
1C
1C
3C
7C
F8
40
ENDCHAR
STARTCHAR 266A
ENCODING 8796
SWIDTH 1800 0
DWIDTH 18 0
BBX 9 14 4 -2
BITMAP
1000
1800
1E00
1F00
1B00
1980
1980
1900
1B00
1C00
1800
7800
F000
6000
ENDCHAR
STARTCHAR 266C
ENCODING 8797
SWIDTH 1800 0
DWIDTH 18 0
BBX 14 14 1 -3
BITMAP
003C
1FFC
181C
1BFC
1FFC
1C1C
181C
181C
181C
187C
387C
7870
F000
4000
ENDCHAR
STARTCHAR 327F
ENCODING 8798
SWIDTH 1800 0
DWIDTH 18 0
BBX 14 13 1 -2
BITMAP
0FC0
1FE0
3038
6018
476C
F7FC
F7FC
077C
C778
C030
7060
3FC0
0F80
ENDCHAR
STARTCHAR 321C
ENCODING 8799
SWIDTH 1800 0
DWIDTH 18 0
BBX 17 13 -1 -2
BITMAP
100300
37FB80
77FB80
63F180
E73980
E61980
E00980
FFFD80
FFFD80
61C180
71C380
71C380
300100
ENDCHAR
STARTCHAR 2116
ENCODING 8800
SWIDTH 1800 0
DWIDTH 18 0
BBX 16 11 0 0
BITMAP
E300
E300
F378
F36C
FBC6
EBC6
EFC6
E7C6
E7CC
E37F
E33B
ENDCHAR
STARTCHAR 33C7
ENCODING 8801
SWIDTH 1800 0
DWIDTH 18 0
BBX 16 12 0 0
BITMAP
0800
3E00
6300
6000
C03C
C07E
C0E7
C0E7
60E7
63E7
3F7E
1E3F
ENDCHAR
STARTCHAR 2122
ENCODING 8802
SWIDTH 1800 0
DWIDTH 18 0
BBX 17 11 0 0
BITMAP
FFC380
1DE380
1DE380
1DE780
1DF780
1DF780
1DFF80
1DFF80
1DDF80
1DDB80
1DDB80
ENDCHAR
STARTCHAR 33C2
ENCODING 8803
SWIDTH 1800 0
DWIDTH 18 0
BBX 16 7 0 0
BITMAP
20C0
F8FE
18FE
78FE
D8FE
F8FE
7BFF
ENDCHAR
STARTCHAR 33D8
ENCODING 8804
SWIDTH 1800 0
DWIDTH 18 0
BBX 16 9 0 -2
BITMAP
FBC0
FFFE
E7EE
E7EE
FFEE
FFEE
E7EF
E000
E000
ENDCHAR
STARTCHAR 2121
ENCODING 8805
SWIDTH 1800 0
DWIDTH 18 0
BBX 16 11 0 0
BITMAP
FF87
1C07
1C07
1CE7
1FF7
1F3F
1FFF
1FFF
1F17
1FFF
1DF7
ENDCHAR
STARTCHAR FF01
ENCODING 8993
SWIDTH 1800 0
DWIDTH 18 0
BBX 4 12 6 0
BITMAP
70
70
70
70
70
70
E0
E0
E0
E0
60
60
ENDCHAR
STARTCHAR FF02
ENCODING 8994
SWIDTH 1800 0
DWIDTH 18 0
BBX 6 4 5 9
BITMAP
FC
FC
FC
FC
ENDCHAR
STARTCHAR FF03
ENCODING 8995
SWIDTH 1800 0
DWIDTH 18 0
BBX 10 12 3 0
BITMAP
1980
1980
1B80
FFC0
FFC0
3300
3300
FFC0
FFC0
6600
6600
6E00
ENDCHAR
STARTCHAR FF04
ENCODING 8996
SWIDTH 1800 0
DWIDTH 18 0
BBX 9 12 3 0
BITMAP
1C00
7E00
FF00
DD00
FC00
7E00
1F80
5D80
FD80
FF80
3F00
1C00
ENDCHAR
STARTCHAR FF05
ENCODING 8997
SWIDTH 1800 0
DWIDTH 18 0
BBX 14 12 1 0
BITMAP
7060
F8C0
E8C0
E980
F980
7320
0378
06FC
0EFC
0CFC
1C78
1800
ENDCHAR
STARTCHAR FF06
ENCODING 8998
SWIDTH 1800 0
DWIDTH 18 0
BBX 11 12 3 0
BITMAP
3C00
7E00
6300
7700
3E00
1C00
7C80
E6C0
C780
C380
EFE0
7C40
ENDCHAR
STARTCHAR FF07
ENCODING 8999
SWIDTH 1800 0
DWIDTH 18 0
BBX 3 5 6 8
BITMAP
E0
E0
E0
E0
60
ENDCHAR
STARTCHAR FF08
ENCODING 9000
SWIDTH 1800 0
DWIDTH 18 0
BBX 5 16 9 -3
BITMAP
18
30
70
60
E0
E0
E0
E0
E0
E0
E0
E0
E0
70
70
30
ENDCHAR
STARTCHAR FF09
ENCODING 9001
SWIDTH 1800 0
DWIDTH 18 0
BBX 5 16 2 -3
BITMAP
C0
60
70
30
38
38
38
38
38
38
38
38
38
70
60
60
ENDCHAR
STARTCHAR FF0A
ENCODING 9002
SWIDTH 1800 0
DWIDTH 18 0
BBX 6 6 5 2
BITMAP
20
30
FC
78
78
48
ENDCHAR
STARTCHAR FF0B
ENCODING 9003
SWIDTH 1800 0
DWIDTH 18 0
BBX 8 9 4 0
BITMAP
18
18
18
FF
FF
18
18
18
18
ENDCHAR
STARTCHAR FF0C
ENCODING 9004
SWIDTH 1800 0
DWIDTH 18 0
BBX 2 3 4 -2
BITMAP
C0
C0
C0
ENDCHAR
STARTCHAR FF0D
ENCODING 9005
SWIDTH 1800 0
DWIDTH 18 0
BBX 6 2 5 4
BITMAP
FC
FC
ENDCHAR
STARTCHAR FF0E
ENCODING 9006
SWIDTH 1800 0
DWIDTH 18 0
BBX 3 3 3 -2
BITMAP
60
E0
60
ENDCHAR
STARTCHAR FF0F
ENCODING 9007
SWIDTH 1800 0
DWIDTH 18 0
BBX 5 11 5 0
BITMAP
18
18
18
30
30
30
60
60
60
C0
C0
ENDCHAR
STARTCHAR FF10
ENCODING 9008
SWIDTH 1800 0
DWIDTH 18 0
BBX 8 11 4 0
BITMAP
3C
7E
66
E7
E7
E7
E7
E7
66
7E
3C
ENDCHAR
STARTCHAR FF11
ENCODING 9009
SWIDTH 1800 0
DWIDTH 18 0
BBX 5 11 5 0
BITMAP
38
78
F8
38
38
38
38
38
38
38
38
ENDCHAR
STARTCHAR FF12
ENCODING 9010
SWIDTH 1800 0
DWIDTH 18 0
BBX 8 12 4 0
BITMAP
3C
FE
E7
47
07
0E
1C
38
70
E0
FF
FF
ENDCHAR
STARTCHAR FF13
ENCODING 9011
SWIDTH 1800 0
DWIDTH 18 0
BBX 8 12 4 0
BITMAP
3C
7E
E6
06
0E
1C
1E
07
47
E7
FE
3C
ENDCHAR
STARTCHAR FF14
ENCODING 9012
SWIDTH 1800 0
DWIDTH 18 0
BBX 10 11 3 0
BITMAP
0700
0F00
1F00
3F00
3700
6700
E700
FFC0
FFC0
0700
0700
ENDCHAR
STARTCHAR FF15
ENCODING 9013
SWIDTH 1800 0
DWIDTH 18 0
BBX 9 12 3 0
BITMAP
3F00
7F00
6000
6000
7E00
7F00
6380
0380
0380
E380
7F00
3C00
ENDCHAR
STARTCHAR FF16
ENCODING 9014
SWIDTH 1800 0
DWIDTH 18 0
BBX 8 12 4 0
BITMAP
3C
7E
67
E0
FC
FE
E7
E7
E7
E7
7E
3C
ENDCHAR
STARTCHAR FF17
ENCODING 9015
SWIDTH 1800 0
DWIDTH 18 0
BBX 8 12 4 0
BITMAP
FF
FF
06
0C
1C
18
18
30
30
30
30
70
ENDCHAR
STARTCHAR FF18
ENCODING 9016
SWIDTH 1800 0
DWIDTH 18 0
BBX 9 12 3 0
BITMAP
3E00
7F00
7380
6380
7300
3F00
7700
E380
E380
E380
7F00
3E00
ENDCHAR
STARTCHAR FF19
ENCODING 9017
SWIDTH 1800 0
DWIDTH 18 0
BBX 9 12 3 0
BITMAP
1E00
3F00
7380
7380
7380
7380
3F80
3F80
0380
C700
FF00
3C00
ENDCHAR
STARTCHAR FF1A
ENCODING 9018
SWIDTH 1800 0
DWIDTH 18 0
BBX 2 10 7 0
BITMAP
C0
C0
C0
00
00
00
00
00
C0
C0
ENDCHAR
STARTCHAR FF1B
ENCODING 9019
SWIDTH 1800 0
DWIDTH 18 0
BBX 2 11 7 -1
BITMAP
C0
C0
C0
00
00
00
00
00
C0
C0
C0
ENDCHAR
STARTCHAR FF1C
ENCODING 9020
SWIDTH 1800 0
DWIDTH 18 0
BBX 10 10 3 0
BITMAP
0040
01C0
07C0
1F00
F800
F000
3C00
0F80
03C0
00C0
ENDCHAR
STARTCHAR FF1D
ENCODING 9021
SWIDTH 1800 0
DWIDTH 18 0
BBX 8 5 4 2
BITMAP
FF
00
00
FF
FF
ENDCHAR
STARTCHAR FF1E
ENCODING 9022
SWIDTH 1800 0
DWIDTH 18 0
BBX 10 9 3 0
BITMAP
E000
F800
3E00
0F80
03C0
1F00
7C00
F000
C000
ENDCHAR
STARTCHAR FF1F
ENCODING 9023
SWIDTH 1800 0
DWIDTH 18 0
BBX 8 11 4 0
BITMAP
3C
FE
C3
43
07
0E
1C
18
18
38
18
ENDCHAR
STARTCHAR FF20
ENCODING 9024
SWIDTH 1800 0
DWIDTH 18 0
BBX 13 12 2 0
BITMAP
0F80
3FE0
7860
77F0
EF70
EB70
F270
EEE0
7FE8
7DB8
1FF0
0FC0
ENDCHAR
STARTCHAR FF21
ENCODING 9025
SWIDTH 1800 0
DWIDTH 18 0
BBX 12 11 2 0
BITMAP
0E00
0F00
0F00
1B80
1980
39C0
3FC0
7FE0
70E0
E060
E070
ENDCHAR
STARTCHAR FF22
ENCODING 9026
SWIDTH 1800 0
DWIDTH 18 0
BBX 10 11 3 0
BITMAP
FF00
E180
E0C0
E180
FF80
FF80
E1C0
E1C0
E1C0
FF80
FF00
ENDCHAR
STARTCHAR FF23
ENCODING 9027
SWIDTH 1800 0
DWIDTH 18 0
BBX 11 12 2 0
BITMAP
0F00
3FC0
70E0
E040
E000
E000
E000
E000
70E0
70C0
3FC0
0F00
ENDCHAR
STARTCHAR FF24
ENCODING 9028
SWIDTH 1800 0
DWIDTH 18 0
BBX 11 11 3 0
BITMAP
FF00
E3C0
E1C0
E0E0
E0E0
E0E0
E0E0
E0E0
E1C0
FFC0
FF00
ENDCHAR
STARTCHAR FF25
ENCODING 9029
SWIDTH 1800 0
DWIDTH 18 0
BBX 10 12 3 0
BITMAP
FFC0
FFC0
E000
E000
E000
FF80
FF80
E000
E000
E000
FFC0
FFC0
ENDCHAR
STARTCHAR FF26
ENCODING 9030
SWIDTH 1800 0
DWIDTH 18 0
BBX 9 12 3 0
BITMAP
FF80
FF80
E000
E000
E000
FF00
FF00
E000
E000
E000
E000
E000
ENDCHAR
STARTCHAR FF27
ENCODING 9031
SWIDTH 1800 0
DWIDTH 18 0
BBX 11 11 2 0
BITMAP
1F80
3FC0
70E0
E000
E000
E7E0
E7E0
E0E0
70E0
39E0
1F80
ENDCHAR
STARTCHAR FF28
ENCODING 9032
SWIDTH 1800 0
DWIDTH 18 0
BBX 10 11 3 0
BITMAP
E1C0
E1C0
E1C0
E1C0
FFC0
FFC0
E1C0
E1C0
E1C0
E1C0
E1C0
ENDCHAR
STARTCHAR FF29
ENCODING 9033
SWIDTH 1800 0
DWIDTH 18 0
BBX 3 11 6 0
BITMAP
E0
E0
E0
E0
E0
E0
E0
E0
E0
E0
E0
ENDCHAR
STARTCHAR FF2A
ENCODING 9034
SWIDTH 1800 0
DWIDTH 18 0
BBX 11 11 3 0
BITMAP
3FE0
0700
0700
0700
0700
0700
0700
C700
C700
FE00
7C00
ENDCHAR
STARTCHAR FF2B
ENCODING 9035
SWIDTH 1800 0
DWIDTH 18 0
BBX 11 11 3 0
BITMAP
E1C0
E380
E700
EE00
FC00
FE00
F700
E300
E380
E1C0
E0E0
ENDCHAR
STARTCHAR FF2C
ENCODING 9036
SWIDTH 1800 0
DWIDTH 18 0
BBX 10 11 3 0
BITMAP
E000
E000
E000
E000
E000
E000
E000
E000
E000
FFC0
FFC0
ENDCHAR
STARTCHAR FF2D
ENCODING 9037
SWIDTH 1800 0
DWIDTH 18 0
BBX 11 11 2 0
BITMAP
E0E0
E0E0
F1E0
F1E0
F1E0
FBE0
FAE0
EAE0
EEE0
EEE0
EEE0
ENDCHAR
STARTCHAR FF2E
ENCODING 9038
SWIDTH 1800 0
DWIDTH 18 0
BBX 10 11 3 0
BITMAP
E1C0
E1C0
F1C0
F1C0
E9C0
EDC0
E5C0
E3C0
E3C0
E1C0
E1C0
ENDCHAR
STARTCHAR FF2F
ENCODING 9039
SWIDTH 1800 0
DWIDTH 18 0
BBX 11 12 3 -1
BITMAP
1F00
3F80
63C0
C1E0
80E0
80E0
80E0
80E0
C1C0
63C0
3F80
1E00
ENDCHAR
STARTCHAR FF30
ENCODING 9040
SWIDTH 1800 0
DWIDTH 18 0
BBX 10 11 3 0
BITMAP
FF00
FF80
E1C0
E1C0
E1C0
FF80
FF00
E000
E000
E000
E000
ENDCHAR
STARTCHAR FF31
ENCODING 9041
SWIDTH 1800 0
DWIDTH 18 0
BBX 12 12 2 -1
BITMAP
1F80
7FC0
70E0
E070
E070
E070
E070
E070
73E0
79E0
3FF0
0020
ENDCHAR
STARTCHAR FF32
ENCODING 9042
SWIDTH 1800 0
DWIDTH 18 0
BBX 9 11 3 0
BITMAP
FF00
FF80
E380
E380
E380
FF00
E700
E380
E380
E380
E380
ENDCHAR
STARTCHAR FF33
ENCODING 9043
SWIDTH 1800 0
DWIDTH 18 0
BBX 10 12 3 0
BITMAP
3E00
7F00
E380
E000
7000
3F00
0780
0180
C1C0
E180
7F80
3E00
ENDCHAR
STARTCHAR FF34
ENCODING 9044
SWIDTH 1800 0
DWIDTH 18 0
BBX 11 11 2 0
BITMAP
FFE0
0E00
0E00
0E00
0E00
0E00
0E00
0E00
0E00
0E00
0E00
ENDCHAR
STARTCHAR FF35
ENCODING 9045
SWIDTH 1800 0
DWIDTH 18 0
BBX 10 11 3 0
BITMAP
E1C0
E1C0
E1C0
E1C0
E1C0
E1C0
E1C0
E1C0
E1C0
7F80
3F00
ENDCHAR
STARTCHAR FF36
ENCODING 9046
SWIDTH 1800 0
DWIDTH 18 0
BBX 10 11 3 0
BITMAP
C0C0
C1C0
E180
6380
7300
3300
3700
3E00
1E00
1E00
1C00
ENDCHAR
STARTCHAR FF37
ENCODING 9047
SWIDTH 1800 0
DWIDTH 18 0
BBX 12 11 2 0
BITMAP
E630
E770
6F60
6F60
6F60
6F60
3D40
39C0
39C0
39C0
1980
ENDCHAR
STARTCHAR FF38
ENCODING 9048
SWIDTH 1800 0
DWIDTH 18 0
BBX 10 11 3 0
BITMAP
E1C0
7380
3300
3F00
1E00
1C00
1E00
3F00
7380
E380
C1C0
ENDCHAR
STARTCHAR FF39
ENCODING 9049
SWIDTH 1800 0
DWIDTH 18 0
BBX 11 11 2 0
BITMAP
E0E0
60C0
71C0
3B80
1F00
0E00
0E00
0E00
0E00
0E00
0E00
ENDCHAR
STARTCHAR FF3A
ENCODING 9050
SWIDTH 1800 0
DWIDTH 18 0
BBX 9 11 3 0
BITMAP
FF80
FF80
0300
0700
0E00
1C00
3800
3000
6000
FF80
FF80
ENDCHAR
STARTCHAR FF3B
ENCODING 9051
SWIDTH 1800 0
DWIDTH 18 0
BBX 5 15 6 -3
BITMAP
F8
E0
E0
E0
E0
E0
E0
E0
E0
E0
E0
E0
E0
F8
F8
ENDCHAR
STARTCHAR FFE6
ENCODING 9052
SWIDTH 1800 0
DWIDTH 18 0
BBX 13 11 1 0
BITMAP
6318
6398
FFF8
37B0
37B0
FFF8
FFF8
14B0
14E0
1CE0
1C60
ENDCHAR
STARTCHAR FF3D
ENCODING 9053
SWIDTH 1800 0
DWIDTH 18 0
BBX 4 15 5 -3
BITMAP
F0
70
70
70
70
70
70
70
70
70
70
70
70
F0
F0
ENDCHAR
STARTCHAR FF3E
ENCODING 9054
SWIDTH 1800 0
DWIDTH 18 0
BBX 8 4 4 9
BITMAP
18
3C
EE
07
ENDCHAR
STARTCHAR FF3F
ENCODING 9055
SWIDTH 1800 0
DWIDTH 18 0
BBX 10 1 3 -2
BITMAP
FFC0
ENDCHAR
STARTCHAR FF40
ENCODING 9056
SWIDTH 1800 0
DWIDTH 18 0
BBX 3 3 3 10
BITMAP
C0
C0
60
ENDCHAR
STARTCHAR FF41
ENCODING 9057
SWIDTH 1800 0
DWIDTH 18 0
BBX 8 8 4 0
BITMAP
7E
E7
47
7F
F7
C7
FF
7F
ENDCHAR
STARTCHAR FF42
ENCODING 9058
SWIDTH 1800 0
DWIDTH 18 0
BBX 8 11 4 0
BITMAP
E0
E0
E0
FC
FE
E7
E7
E7
E7
FE
FE
ENDCHAR
STARTCHAR FF43
ENCODING 9059
SWIDTH 1800 0
DWIDTH 18 0
BBX 9 9 3 0
BITMAP
3E00
7F00
F380
E000
E000
E300
7380
7F00
1E00
ENDCHAR
STARTCHAR FF44
ENCODING 9060
SWIDTH 1800 0
DWIDTH 18 0
BBX 9 11 3 0
BITMAP
0380
0380
0380
3F80
7F80
E380
E380
E380
E380
7F80
3F80
ENDCHAR
STARTCHAR FF45
ENCODING 9061
SWIDTH 1800 0
DWIDTH 18 0
BBX 8 9 4 -1
BITMAP
3C
FE
C6
FF
FF
C0
E7
7E
3C
ENDCHAR
STARTCHAR FF46
ENCODING 9062
SWIDTH 1800 0
DWIDTH 18 0
BBX 7 11 4 0
BITMAP
1E
3E
38
FE
FE
38
38
38
38
38
38
ENDCHAR
STARTCHAR FF47
ENCODING 9063
SWIDTH 1800 0
DWIDTH 18 0
BBX 9 11 3 -3
BITMAP
7F80
7F80
E380
E380
E380
FF80
3F80
4380
E380
7F00
3E00
ENDCHAR
STARTCHAR FF48
ENCODING 9064
SWIDTH 1800 0
DWIDTH 18 0
BBX 8 11 4 0
BITMAP
E0
E0
E0
FE
FF
E7
E7
E7
E7
E7
E7
ENDCHAR
STARTCHAR FF49
ENCODING 9065
SWIDTH 1800 0
DWIDTH 18 0
BBX 3 11 6 0
BITMAP
60
60
00
E0
E0
E0
E0
E0
E0
E0
E0
ENDCHAR
STARTCHAR FF4A
ENCODING 9066
SWIDTH 1800 0
DWIDTH 18 0
BBX 5 13 5 -2
BITMAP
30
30
00
38
38
38
38
38
38
38
38
F8
F0
ENDCHAR
STARTCHAR FF4B
ENCODING 9067
SWIDTH 1800 0
DWIDTH 18 0
BBX 9 11 4 0
BITMAP
E000
E000
E000
E700
EE00
FC00
FC00
FE00
E600
E700
E380
ENDCHAR
STARTCHAR FF4C
ENCODING 9068
SWIDTH 1800 0
DWIDTH 18 0
BBX 3 11 6 0
BITMAP
E0
E0
E0
E0
E0
E0
E0
E0
E0
E0
E0
ENDCHAR
STARTCHAR FF4D
ENCODING 9069
SWIDTH 1800 0
DWIDTH 18 0
BBX 12 8 2 0
BITMAP
F9C0
FFF0
EE70
EE70
EE70
EE70
EE70
EE70
ENDCHAR
STARTCHAR FF4E
ENCODING 9070
SWIDTH 1800 0
DWIDTH 18 0
BBX 8 8 4 0
BITMAP
FE
FF
E7
E7
E7
E7
E7
E7
ENDCHAR
STARTCHAR FF4F
ENCODING 9071
SWIDTH 1800 0
DWIDTH 18 0
BBX 10 9 3 -1
BITMAP
3E00
7F80
F3C0
E1C0
E1C0
E1C0
7380
7F80
0C00
ENDCHAR
STARTCHAR FF50
ENCODING 9072
SWIDTH 1800 0
DWIDTH 18 0
BBX 9 10 3 -2
BITMAP
FE00
FF00
E380
E380
E380
F780
FF00
EC00
E000
E000
ENDCHAR
STARTCHAR FF51
ENCODING 9073
SWIDTH 1800 0
DWIDTH 18 0
BBX 9 10 3 -2
BITMAP
3F80
7F80
E380
E380
E380
FF80
7F80
1B80
0380
0380
ENDCHAR
STARTCHAR FF52
ENCODING 9074
SWIDTH 1800 0
DWIDTH 18 0
BBX 6 8 5 0
BITMAP
FC
FC
E0
E0
E0
E0
E0
E0
ENDCHAR
STARTCHAR FF53
ENCODING 9075
SWIDTH 1800 0
DWIDTH 18 0
BBX 7 8 4 0
BITMAP
7C
FE
E6
78
1E
46
FE
7E
ENDCHAR
STARTCHAR FF54
ENCODING 9076
SWIDTH 1800 0
DWIDTH 18 0
BBX 7 10 4 0
BITMAP
38
38
FE
FE
38
38
38
38
3E
3E
ENDCHAR
STARTCHAR FF55
ENCODING 9077
SWIDTH 1800 0
DWIDTH 18 0
BBX 8 8 4 0
BITMAP
E7
E7
E7
E7
E7
E7
FF
7F
ENDCHAR
STARTCHAR FF56
ENCODING 9078
SWIDTH 1800 0
DWIDTH 18 0
BBX 9 8 3 0
BITMAP
E180
6380
7300
3300
3F00
3E00
1E00
1C00
ENDCHAR
STARTCHAR FF57
ENCODING 9079
SWIDTH 1800 0
DWIDTH 18 0
BBX 10 8 3 0
BITMAP
CDC0
DD80
7D80
7D80
7F80
7700
3700
3300
ENDCHAR
STARTCHAR FF58
ENCODING 9080
SWIDTH 1800 0
DWIDTH 18 0
BBX 9 8 3 0
BITMAP
E380
7700
3E00
1E00
1E00
3F00
7700
6380
ENDCHAR
STARTCHAR FF59
ENCODING 9081
SWIDTH 1800 0
DWIDTH 18 0
BBX 8 10 4 -2
BITMAP
C7
E7
66
7E
3C
3C
1C
18
F8
F0
ENDCHAR
STARTCHAR FF5A
ENCODING 9082
SWIDTH 1800 0
DWIDTH 18 0
BBX 8 8 4 0
BITMAP
FE
0E
1C
18
38
70
E0
FF
ENDCHAR
STARTCHAR FF5B
ENCODING 9083
SWIDTH 1800 0
DWIDTH 18 0
BBX 4 16 6 -3
BITMAP
10
70
60
60
60
60
60
E0
C0
E0
60
60
60
60
70
30
ENDCHAR
STARTCHAR FF5C
ENCODING 9084
SWIDTH 1800 0
DWIDTH 18 0
BBX 3 11 6 0
BITMAP
E0
E0
E0
E0
E0
E0
E0
E0
E0
E0
E0
ENDCHAR
STARTCHAR FF5D
ENCODING 9085
SWIDTH 1800 0
DWIDTH 18 0
BBX 5 15 5 -3
BITMAP
F0
70
70
70
70
70
78
78
70
70
70
70
70
F0
E0
ENDCHAR
STARTCHAR FFE3
ENCODING 9086
SWIDTH 1800 0
DWIDTH 18 0
BBX 9 3 3 3
BITMAP
7880
FF80
0200
ENDCHAR
STARTCHAR 3131
ENCODING 9249
SWIDTH 1800 0
DWIDTH 18 0
BBX 12 11 2 0
BITMAP
FFF0
FFF0
0070
0070
0070
0070
0070
0070
0070
0070
0070
ENDCHAR
STARTCHAR 3132
ENCODING 9250
SWIDTH 1800 0
DWIDTH 18 0
BBX 12 11 2 0
BITMAP
FFF0
FFF0
1C70
1C70
1C70
1C70
1C70
1C70
1C70
1C70
1C70
ENDCHAR
STARTCHAR 3133
ENCODING 9251
SWIDTH 1800 0
DWIDTH 18 0
BBX 14 11 1 0
BITMAP
FCE0
FCE0
1CE0
1CE0
1CE0
1CE0
1CF0
1DF0
1FB8
1F9C
1E08
ENDCHAR
STARTCHAR 3134
ENCODING 9252
SWIDTH 1800 0
DWIDTH 18 0
BBX 12 11 2 0
BITMAP
E000
E000
E000
E000
E000
E000
E000
E000
E000
FFF0
7FF0
ENDCHAR
STARTCHAR 3135
ENCODING 9253
SWIDTH 1800 0
DWIDTH 18 0
BBX 13 11 1 0
BITMAP
E3F8
E3F8
E0E0
E0E0
E0E0
E0E0
E0E0
E0F0
E3F8
FFB8
FF08
ENDCHAR
STARTCHAR 3136
ENCODING 9254
SWIDTH 1800 0
DWIDTH 18 0
BBX 12 11 2 0
BITMAP
E1C0
E7F0
E7F0
E360
E770
E770
E770
E770
E770
FFE0
FDC0
ENDCHAR
STARTCHAR 3137
ENCODING 9255
SWIDTH 1800 0
DWIDTH 18 0
BBX 11 11 2 0
BITMAP
FFE0
FFE0
E000
E000
E000
E000
E000
E000
E000
FFE0
7FE0
ENDCHAR
STARTCHAR 3138
ENCODING 9256
SWIDTH 1800 0
DWIDTH 18 0
BBX 13 11 1 0
BITMAP
FDF8
FDF8
E1C0
E1C0
E1C0
E1C0
E1C0
E1C0
E1C0
FDF8
FDF8
ENDCHAR
STARTCHAR 3139
ENCODING 9257
SWIDTH 1800 0
DWIDTH 18 0
BBX 11 11 2 0
BITMAP
FFE0
FFE0
00E0
00E0
FFE0
FFE0
E000
E000
E000
FFE0
7FE0
ENDCHAR
STARTCHAR 313A
ENCODING 9258
SWIDTH 1800 0
DWIDTH 18 0
BBX 12 11 2 0
BITMAP
FFF0
FFF0
1C70
1C70
FC70
FC70
E070
E070
E070
FE70
FE70
ENDCHAR
STARTCHAR 313B
ENCODING 9259
SWIDTH 1800 0
DWIDTH 18 0
BBX 14 11 1 0
BITMAP
7FFC
7FFC
0FDC
0FDC
FFDC
FFDC
E1DC
E1DC
E1DC
FDFC
FDFC
ENDCHAR
STARTCHAR 313C
ENCODING 9260
SWIDTH 1800 0
DWIDTH 18 0
BBX 14 11 1 0
BITMAP
7FDC
7FDC
0FDC
0FFC
FFFC
FFDC
E1DC
E1DC
E1DC
FDFC
FDFC
ENDCHAR
STARTCHAR 313D
ENCODING 9261
SWIDTH 1800 0
DWIDTH 18 0
BBX 15 11 1 0
BITMAP
FC70
FC70
1C70
1C70
FC70
FC70
C078
C0F8
C1DC
FDCE
FD04
ENDCHAR
STARTCHAR 313E
ENCODING 9262
SWIDTH 1800 0
DWIDTH 18 0
BBX 12 11 2 0
BITMAP
FFF0
FFF0
1F80
1F80
FFF0
FFF0
E380
E380
E380
FFF0
FFF0
ENDCHAR
STARTCHAR 313F
ENCODING 9263
SWIDTH 1800 0
DWIDTH 18 0
BBX 13 11 1 0
BITMAP
FFF8
FFF8
1DF8
1DF8
FDF8
FDF8
E1F8
E1F8
E1F8
FFF8
FFF8
ENDCHAR
STARTCHAR 3140
ENCODING 9264
SWIDTH 1800 0
DWIDTH 18 0
BBX 14 11 1 0
BITMAP
FC70
FDFC
1DFC
1CD8
FDDC
FDDC
E1DC
E1DC
E1DC
FCF8
FC70
ENDCHAR
STARTCHAR 3141
ENCODING 9265
SWIDTH 1800 0
DWIDTH 18 0
BBX 12 11 2 0
BITMAP
FFF0
FFF0
E070
E070
E070
E070
E070
E070
E070
FFF0
FFF0
ENDCHAR
STARTCHAR 3142
ENCODING 9266
SWIDTH 1800 0
DWIDTH 18 0
BBX 12 11 2 0
BITMAP
E070
E070
E070
FFF0
FFF0
E070
E070
E070
E070
FFF0
FFF0
ENDCHAR
STARTCHAR 3143
ENCODING 9267
SWIDTH 1800 0
DWIDTH 18 0
BBX 14 11 1 0
BITMAP
EFDC
EFDC
EFDC
FFFC
FFFC
EFDC
EFDC
EFDC
EFDC
FFFC
FFFC
ENDCHAR
STARTCHAR 3144
ENCODING 9268
SWIDTH 1800 0
DWIDTH 18 0
BBX 15 11 1 0
BITMAP
FC70
FC70
FC70
FC70
FC70
FC70
FC78
FCF8
FDDC
FDCE
FD84
ENDCHAR
STARTCHAR 3145
ENCODING 9269
SWIDTH 1800 0
DWIDTH 18 0
BBX 10 11 3 0
BITMAP
1C00
1C00
1C00
1C00
1C00
1E00
3E00
7F00
F780
E3C0
4180
ENDCHAR
STARTCHAR 3146
ENCODING 9270
SWIDTH 1800 0
DWIDTH 18 0
BBX 13 11 2 0
BITMAP
39C0
39C0
39C0
39C0
39C0
39C0
7FE0
7FF0
EF70
CE38
8410
ENDCHAR
STARTCHAR 3147
ENCODING 9271
SWIDTH 1800 0
DWIDTH 18 0
BBX 12 11 2 0
BITMAP
1F80
3FC0
70E0
E070
E070
E070
E070
E0F0
71E0
3FC0
1F80
ENDCHAR
STARTCHAR 3148
ENCODING 9272
SWIDTH 1800 0
DWIDTH 18 0
BBX 10 11 3 0
BITMAP
FF80
FF80
1C00
1C00
1C00
1C00
1C00
3E00
FF80
F3C0
C180
ENDCHAR
STARTCHAR 3149
ENCODING 9273
SWIDTH 1800 0
DWIDTH 18 0
BBX 12 11 2 0
BITMAP
FFF0
FFF0
39C0
39C0
39C0
39C0
39C0
3DE0
FFF0
EF70
8610
ENDCHAR
STARTCHAR 314A
ENCODING 9274
SWIDTH 1800 0
DWIDTH 18 0
BBX 11 11 3 0
BITMAP
0E00
FFE0
FFE0
0E00
0E00
0E00
0E00
1F00
7F80
FBE0
60C0
ENDCHAR
STARTCHAR 314B
ENCODING 9275
SWIDTH 1800 0
DWIDTH 18 0
BBX 12 11 2 0
BITMAP
7FF0
7FF0
0070
0070
FFF0
FFF0
0070
0070
0070
0070
0070
ENDCHAR
STARTCHAR 314C
ENCODING 9276
SWIDTH 1800 0
DWIDTH 18 0
BBX 12 11 2 0
BITMAP
FFF0
FFF0
E000
E000
FFF0
FFF0
E000
E000
E000
FFF0
FFF0
ENDCHAR
STARTCHAR 314D
ENCODING 9277
SWIDTH 1800 0
DWIDTH 18 0
BBX 12 11 2 0
BITMAP
FFF0
FFF0
39C0
39C0
39C0
39C0
39C0
39C0
39C0
FFF0
FFF0
ENDCHAR
STARTCHAR 314E
ENCODING 9278
SWIDTH 1800 0
DWIDTH 18 0
BBX 12 11 2 0
BITMAP
0700
FFF0
FFF0
7FE0
F0F0
E070
E070
E070
70E0
7FE0
1F80
ENDCHAR
STARTCHAR 314F
ENCODING 9279
SWIDTH 1800 0
DWIDTH 18 0
BBX 5 11 6 0
BITMAP
E0
E0
E0
E0
F8
F8
E0
E0
E0
E0
E0
ENDCHAR
STARTCHAR 3150
ENCODING 9280
SWIDTH 1800 0
DWIDTH 18 0
BBX 7 11 4 0
BITMAP
EE
EE
EE
EE
FE
FE
EE
EE
EE
EE
EE
ENDCHAR
STARTCHAR 3151
ENCODING 9281
SWIDTH 1800 0
DWIDTH 18 0
BBX 5 11 6 0
BITMAP
E0
E0
E0
F8
F8
E0
F8
F8
E0
E0
E0
ENDCHAR
STARTCHAR 3152
ENCODING 9282
SWIDTH 1800 0
DWIDTH 18 0
BBX 6 11 5 0
BITMAP
FC
FC
FC
FC
FC
FC
FC
FC
FC
FC
FC
ENDCHAR
STARTCHAR 3153
ENCODING 9283
SWIDTH 1800 0
DWIDTH 18 0
BBX 5 11 5 0
BITMAP
38
38
38
38
F8
F8
38
38
38
38
38
ENDCHAR
STARTCHAR 3154
ENCODING 9284
SWIDTH 1800 0
DWIDTH 18 0
BBX 9 11 4 0
BITMAP
3B80
3B80
3B80
3B80
FB80
FB80
3B80
3B80
3B80
3B80
3B80
ENDCHAR
STARTCHAR 3155
ENCODING 9285
SWIDTH 1800 0
DWIDTH 18 0
BBX 5 11 6 0
BITMAP
38
38
F8
F8
38
38
F8
F8
38
38
38
ENDCHAR
STARTCHAR 3156
ENCODING 9286
SWIDTH 1800 0
DWIDTH 18 0
BBX 9 11 4 0
BITMAP
3B80
3B80
FB80
FB80
3B80
3B80
FB80
FB80
3B80
3B80
3B80
ENDCHAR
STARTCHAR 3157
ENCODING 9287
SWIDTH 1800 0
DWIDTH 18 0
BBX 13 7 2 0
BITMAP
0700
0700
0700
0700
0700
FFF8
FFF8
ENDCHAR
STARTCHAR 3158
ENCODING 9288
SWIDTH 1800 0
DWIDTH 18 0
BBX 15 12 0 -1
BITMAP
0038
0038
0038
0E38
0E3E
0E3E
0E38
0E38
0E38
FFF8
FFF8
0038
ENDCHAR
STARTCHAR 3159
ENCODING 9289
SWIDTH 1800 0
DWIDTH 18 0
BBX 14 12 1 -1
BITMAP
01DC
01DC
01DC
1DFC
1DFC
1DDC
1DDC
1DDC
1DDC
FFDC
FFDC
01DC
ENDCHAR
STARTCHAR 315A
ENCODING 9290
SWIDTH 1800 0
DWIDTH 18 0
BBX 13 12 1 -1
BITMAP
0038
0038
0038
0E38
0E38
0E38
0E38
0E38
0E38
FFF8
FFF8
0038
ENDCHAR
STARTCHAR 315B
ENCODING 9291
SWIDTH 1800 0
DWIDTH 18 0
BBX 14 7 1 0
BITMAP
1CE0
1CE0
1CE0
1CE0
1CE0
FFFC
FFFC
ENDCHAR
STARTCHAR 315C
ENCODING 9292
SWIDTH 1800 0
DWIDTH 18 0
BBX 13 7 1 -1
BITMAP
FFF8
0700
0700
0700
0700
0700
0700
ENDCHAR
STARTCHAR 315D
ENCODING 9293
SWIDTH 1800 0
DWIDTH 18 0
BBX 13 12 1 -1
BITMAP
0038
0038
0038
0038
FFF8
FFF8
0E38
0EF8
0EF8
0E38
0E38
0E38
ENDCHAR
STARTCHAR 315E
ENCODING 9294
SWIDTH 1800 0
DWIDTH 18 0
BBX 14 12 1 -1
BITMAP
00FC
00FC
00FC
00FC
FFFC
FFFC
1CFC
1FFC
1FFC
1CFC
1CFC
1CFC
ENDCHAR
STARTCHAR 315F
ENCODING 9295
SWIDTH 1800 0
DWIDTH 18 0
BBX 11 12 3 -1
BITMAP
00E0
00E0
00E0
00E0
00E0
FFE0
FFE0
1CE0
1CE0
1CE0
1CE0
1CE0
ENDCHAR
STARTCHAR 3160
ENCODING 9296
SWIDTH 1800 0
DWIDTH 18 0
BBX 14 8 1 -2
BITMAP
FFFC
FFFC
1CE0
1CE0
1CE0
1CE0
1CE0
1C00
ENDCHAR
STARTCHAR 3161
ENCODING 9297
SWIDTH 1800 0
DWIDTH 18 0
BBX 12 2 2 0
BITMAP
FFF0
FFF0
ENDCHAR
STARTCHAR 3162
ENCODING 9298
SWIDTH 1800 0
DWIDTH 18 0
BBX 13 12 2 -1
BITMAP
0038
0038
0038
0038
0038
0038
0038
FFF8
FFF8
0038
0038
0038
ENDCHAR
STARTCHAR 3163
ENCODING 9299
SWIDTH 1800 0
DWIDTH 18 0
BBX 3 12 7 -1
BITMAP
E0
E0
E0
E0
E0
E0
E0
E0
E0
E0
E0
E0
ENDCHAR
STARTCHAR 3164
ENCODING 9300
SWIDTH 1800 0
DWIDTH 18 0
BBX 0 0 0 0
BITMAP
ENDCHAR
STARTCHAR 3165
ENCODING 9301
SWIDTH 1800 0
DWIDTH 18 0
BBX 12 11 2 0
BITMAP
E380
E380
E380
E380
E380
E380
E380
E380
E380
FFF0
FFF0
ENDCHAR
STARTCHAR 3166
ENCODING 9302
SWIDTH 1800 0
DWIDTH 18 0
BBX 12 11 2 0
BITMAP
E3F0
E3F0
E380
E380
E380
E380
E380
E380
E380
FFF0
FFF0
ENDCHAR
STARTCHAR 3167
ENCODING 9303
SWIDTH 1800 0
DWIDTH 18 0
BBX 14 11 1 0
BITMAP
E0E0
E0E0
E0E0
E0E0
E0E0
E0E0
E1F0
E1F8
E3B8
FF1C
FE08
ENDCHAR
STARTCHAR 3168
ENCODING 9304
SWIDTH 1800 0
DWIDTH 18 0
BBX 13 11 1 0
BITMAP
E040
E040
E060
E060
E0E0
E0F0
E0F0
E1B0
E198
FDF8
FFF8
ENDCHAR
STARTCHAR 3169
ENCODING 9305
SWIDTH 1800 0
DWIDTH 18 0
BBX 16 11 0 0
BITMAP
FFDC
FFDC
39DC
39DC
39DC
F9DC
E1DC
E1DE
E1FE
FDFF
FDD2
ENDCHAR
STARTCHAR 316A
ENCODING 9306
SWIDTH 1800 0
DWIDTH 18 0
BBX 12 11 2 0
BITMAP
FFF0
FFF0
1F80
1F80
FF80
FF80
E380
E380
E380
FFF0
FFF0
ENDCHAR
STARTCHAR 316B
ENCODING 9307
SWIDTH 1800 0
DWIDTH 18 0
BBX 16 11 0 0
BITMAP
FFFC
FFFC
3FFC
3FFC
3FFC
FFFC
E7FC
E7FE
E7FE
FFFF
FFF2
ENDCHAR
STARTCHAR 316C
ENCODING 9308
SWIDTH 1800 0
DWIDTH 18 0
BBX 13 11 2 0
BITMAP
FC40
FC40
1C40
1CE0
FCE0
FCE0
E1F0
E1B0
E1B0
FFF8
FFF8
ENDCHAR
STARTCHAR 316D
ENCODING 9309
SWIDTH 1800 0
DWIDTH 18 0
BBX 14 11 1 0
BITMAP
FDFC
FDFC
1C70
1C70
FDF8
FF9C
E39C
E39C
E39C
FDF8
FCF0
ENDCHAR
STARTCHAR 316E
ENCODING 9310
SWIDTH 1800 0
DWIDTH 18 0
BBX 13 11 1 0
BITMAP
FFF8
FFF8
EFF8
EFF8
EFF8
EFF8
EFF8
EFF8
EFF8
FFF8
FFF8
ENDCHAR
STARTCHAR 316F
ENCODING 9311
SWIDTH 1800 0
DWIDTH 18 0
BBX 15 11 1 0
BITMAP
FE70
FE70
EE70
EE70
EE70
EE70
EE78
EEF8
EFFC
FFCE
FF84
ENDCHAR
STARTCHAR 3170
ENCODING 9312
SWIDTH 1800 0
DWIDTH 18 0
BBX 14 11 1 0
BITMAP
FE20
FE20
EE20
EE70
EE70
EE70
EEF8
EED8
EED8
FFFC
FFFC
ENDCHAR
STARTCHAR 3171
ENCODING 9313
SWIDTH 1800 0
DWIDTH 18 0
BBX 12 13 2 -1
BITMAP
FFF0
FFF0
E070
FFF0
FFF0
0700
1F80
1DC0
38E0
38E0
3DE0
1FC0
0F80
ENDCHAR
STARTCHAR 3172
ENCODING 9314
SWIDTH 1800 0
DWIDTH 18 0
BBX 13 11 1 0
BITMAP
EFF8
EFF8
EE18
FE18
FE18
EE18
EE18
EE18
EE18
FE18
FE18
ENDCHAR
STARTCHAR 3173
ENCODING 9315
SWIDTH 1800 0
DWIDTH 18 0
BBX 13 11 1 0
BITMAP
EEF8
EEF8
EEC0
FEC0
FEC0
EEC0
EEC0
EEC0
EEC0
FEC0
FEF8
ENDCHAR
STARTCHAR 3174
ENCODING 9316
SWIDTH 1800 0
DWIDTH 18 0
BBX 16 11 0 0
BITMAP
EFDF
EFDF
EFC7
FFC7
FFC7
EFC7
EFC7
EFE7
EFE7
FFB7
FF27
ENDCHAR
STARTCHAR 3175
ENCODING 9317
SWIDTH 1800 0
DWIDTH 18 0
BBX 16 11 0 0
BITMAP
FDDF
FDDF
FDDC
FDDC
FDDC
FDDC
FDDC
FDFC
FFFC
FF7F
FF3F
ENDCHAR
STARTCHAR 3176
ENCODING 9318
SWIDTH 1800 0
DWIDTH 18 0
BBX 15 11 1 0
BITMAP
EFFC
EFFC
EE70
FE70
FE70
EE70
EE70
EE70
EEF8
FFDE
FF84
ENDCHAR
STARTCHAR 3177
ENCODING 9319
SWIDTH 1800 0
DWIDTH 18 0
BBX 14 11 1 0
BITMAP
EFFC
EFFC
EFC0
FFC0
FFFC
EFFC
EFC0
EFC0
EFC0
FFFC
FFFC
ENDCHAR
STARTCHAR 3178
ENCODING 9320
SWIDTH 1800 0
DWIDTH 18 0
BBX 12 13 2 -1
BITMAP
E070
FFF0
FFF0
FFF0
FFF0
0000
0700
0F80
38E0
38E0
38E0
3FC0
0F80
ENDCHAR
STARTCHAR 3179
ENCODING 9321
SWIDTH 1800 0
DWIDTH 18 0
BBX 14 13 1 -1
BITMAP
EFDC
FFFC
FFFC
FFFC
FFFC
0000
0700
1FC0
3870
3870
38F0
1FE0
0FC0
ENDCHAR
STARTCHAR 317A
ENCODING 9322
SWIDTH 1800 0
DWIDTH 18 0
BBX 12 11 2 0
BITMAP
3BF0
3BF0
3830
3830
3830
3830
3C30
7C30
EE30
E730
8230
ENDCHAR
STARTCHAR 317B
ENCODING 9323
SWIDTH 1800 0
DWIDTH 18 0
BBX 12 11 2 0
BITMAP
39C0
39C0
39C0
39C0
39C0
39C0
3DC0
7DC0
EFC0
E7F0
83F0
ENDCHAR
STARTCHAR 317C
ENCODING 9324
SWIDTH 1800 0
DWIDTH 18 0
BBX 14 11 1 0
BITMAP
38FC
38FC
38E0
38E0
38E0
38E0
7CE0
7CE0
EEE0
E7E0
82FC
ENDCHAR
STARTCHAR 317D
ENCODING 9325
SWIDTH 1800 0
DWIDTH 18 0
BBX 14 11 1 0
BITMAP
39DC
39DC
39DC
39FC
39FC
39DC
3DDC
7DDC
FFDC
E7FC
83FC
ENDCHAR
STARTCHAR 317E
ENCODING 9326
SWIDTH 1800 0
DWIDTH 18 0
BBX 15 11 1 0
BITMAP
39FC
39FC
3870
3870
3870
3870
7C70
7C70
FEF8
E7DE
8584
ENDCHAR
STARTCHAR 317F
ENCODING 9327
SWIDTH 1800 0
DWIDTH 18 0
BBX 10 10 3 0
BITMAP
0C00
0C00
1E00
1E00
3B00
3300
7380
6180
FFC0
FFC0
ENDCHAR
STARTCHAR 3180
ENCODING 9328
SWIDTH 1800 0
DWIDTH 18 0
BBX 16 11 0 0
BITMAP
3C3C
7E7E
67E6
E7E7
E7E7
E7E7
E7E7
E7E7
6666
7E7E
3C3C
ENDCHAR
STARTCHAR 3181
ENCODING 9329
SWIDTH 1800 0
DWIDTH 18 0
BBX 10 10 3 0
BITMAP
0E00
1E00
7380
61C0
E1C0
E1C0
E1C0
F3C0
7F80
3F00
ENDCHAR
STARTCHAR 3182
ENCODING 9330
SWIDTH 1800 0
DWIDTH 18 0
BBX 15 11 1 0
BITMAP
3870
7C70
6E70
E770
E770
E770
E778
E7F8
E7FC
7FCE
3D84
ENDCHAR
STARTCHAR 3183
ENCODING 9331
SWIDTH 1800 0
DWIDTH 18 0
BBX 14 11 1 0
BITMAP
3820
7C30
6E30
E770
E770
E778
E778
E7D8
EFD8
7EFC
3DFC
ENDCHAR
STARTCHAR 3184
ENCODING 9332
SWIDTH 1800 0
DWIDTH 18 0
BBX 12 13 2 -1
BITMAP
FFF0
FFF0
39C0
FFF0
FFF0
0000
0700
1FC0
38E0
38E0
38E0
3FC0
0F80
ENDCHAR
STARTCHAR 3185
ENCODING 9333
SWIDTH 1800 0
DWIDTH 18 0
BBX 16 10 0 0
BITMAP
7E7E
7E7E
1838
3C7C
66E6
E7E7
E7E7
E7E7
7E7E
3C3C
ENDCHAR
STARTCHAR 3186
ENCODING 9334
SWIDTH 1800 0
DWIDTH 18 0
BBX 12 10 2 0
BITMAP
FFF0
0000
0700
0700
1FC0
3DE0
38E0
38E0
3FE0
0F80
ENDCHAR
STARTCHAR 3187
ENCODING 9335
SWIDTH 1800 0
DWIDTH 18 0
BBX 14 12 1 -1
BITMAP
0070
0070
0070
007C
3BFC
3BF0
3BFC
3BFC
3BF0
FFF0
FFF0
0070
ENDCHAR
STARTCHAR 3188
ENCODING 9336
SWIDTH 1800 0
DWIDTH 18 0
BBX 14 12 1 -1
BITMAP
00FC
00FC
00FC
00FC
3FFC
3FFC
3FFC
3FFC
3FFC
FFFC
FFFC
00FC
ENDCHAR
STARTCHAR 3189
ENCODING 9337
SWIDTH 1800 0
DWIDTH 18 0
BBX 13 12 1 -1
BITMAP
0038
0038
0038
0038
3BB8
3BB8
3BB8
3BB8
3BB8
FFF8
FFF8
0038
ENDCHAR
STARTCHAR 318A
ENCODING 9338
SWIDTH 1800 0
DWIDTH 18 0
BBX 14 13 0 -2
BITMAP
001C
001C
001C
001C
001C
FFFC
FFFC
1FFC
1FFC
1F9C
1FFC
1F9C
1F80
ENDCHAR
STARTCHAR 318B
ENCODING 9339
SWIDTH 1800 0
DWIDTH 18 0
BBX 14 13 1 -2
BITMAP
00FC
00FC
00FC
00FC
00FC
FFFC
FFFC
7EFC
7FFC
7EFC
7FFC
7EFC
7E00
ENDCHAR
STARTCHAR 318C
ENCODING 9340
SWIDTH 1800 0
DWIDTH 18 0
BBX 13 13 2 -2
BITMAP
0038
0038
0038
0038
0038
FFF8
FFF8
3BB8
3BB8
3BB8
3BB8
3BB8
3800
ENDCHAR
STARTCHAR 318D
ENCODING 9341
SWIDTH 1800 0
DWIDTH 18 0
BBX 4 3 6 3
BITMAP
F0
F0
60
ENDCHAR
STARTCHAR 318E
ENCODING 9342
SWIDTH 1800 0
DWIDTH 18 0
BBX 8 12 4 -1
BITMAP
07
07
07
07
47
E7
E7
E7
07
07
07
07
ENDCHAR
STARTCHAR 2170
ENCODING 9505
SWIDTH 1800 0
DWIDTH 18 0
BBX 2 11 7 0
BITMAP
C0
C0
00
C0
C0
C0
C0
C0
C0
C0
C0
ENDCHAR
STARTCHAR 2171
ENCODING 9506
SWIDTH 1800 0
DWIDTH 18 0
BBX 6 11 5 0
BITMAP
CC
CC
00
CC
CC
CC
CC
CC
CC
CC
CC
ENDCHAR
STARTCHAR 2172
ENCODING 9507
SWIDTH 1800 0
DWIDTH 18 0
BBX 8 11 4 0
BITMAP
DB
DB
00
DB
DB
DB
DB
DB
DB
DB
DB
ENDCHAR
STARTCHAR 2173
ENCODING 9508
SWIDTH 1800 0
DWIDTH 18 0
BBX 10 11 3 0
BITMAP
C000
C000
0000
D8C0
CCC0
CCC0
CD80
C780
C780
C700
C300
ENDCHAR
STARTCHAR 2174
ENCODING 9509
SWIDTH 1800 0
DWIDTH 18 0
BBX 9 8 4 0
BITMAP
C380
C300
6300
6600
3600
3C00
1C00
1800
ENDCHAR
STARTCHAR 2175
ENCODING 9510
SWIDTH 1800 0
DWIDTH 18 0
BBX 10 11 3 0
BITMAP
00C0
00C0
0000
C6C0
C6C0
6CC0
6CC0
6CC0
3CC0
38C0
38C0
ENDCHAR
STARTCHAR 2176
ENCODING 9511
SWIDTH 1800 0
DWIDTH 18 0
BBX 12 11 2 0
BITMAP
01B0
01B0
0000
C7B0
CDB0
CDB0
6DB0
6DB0
79B0
39B0
39B0
ENDCHAR
STARTCHAR 2177
ENCODING 9512
SWIDTH 1800 0
DWIDTH 18 0
BBX 14 11 1 0
BITMAP
01BC
01BC
0000
C7BC
CDBC
CDBC
6DBC
79BC
79BC
39BC
31BC
ENDCHAR
STARTCHAR 2178
ENCODING 9513
SWIDTH 1800 0
DWIDTH 18 0
BBX 11 11 3 0
BITMAP
6000
6000
0000
F8E0
ECC0
EF80
E700
E700
EF80
ECC0
F8E0
ENDCHAR
STARTCHAR 2179
ENCODING 9514
SWIDTH 1800 0
DWIDTH 18 0
BBX 8 8 4 0
BITMAP
E3
66
3E
1C
1C
3E
76
E3
ENDCHAR
STARTCHAR 2160
ENCODING 9520
SWIDTH 1800 0
DWIDTH 18 0
BBX 3 11 6 0
BITMAP
E0
E0
E0
E0
E0
E0
E0
E0
E0
E0
E0
ENDCHAR
STARTCHAR 2161
ENCODING 9521
SWIDTH 1800 0
DWIDTH 18 0
BBX 8 11 5 0
BITMAP
E7
E7
E7
E7
E7
E7
E7
E7
E7
E7
E7
ENDCHAR
STARTCHAR 2162
ENCODING 9522
SWIDTH 1800 0
DWIDTH 18 0
BBX 9 11 3 0
BITMAP
FF80
FF80
FF80
FF80
FF80
FF80
FF80
FF80
FF80
FF80
FF80
ENDCHAR
STARTCHAR 2163
ENCODING 9523
SWIDTH 1800 0
DWIDTH 18 0
BBX 11 11 2 0
BITMAP
EC60
EC60
E660
E660
E6C0
E6C0
E3C0
E380
E380
E380
E180
ENDCHAR
STARTCHAR 2164
ENCODING 9524
SWIDTH 1800 0
DWIDTH 18 0
BBX 8 11 4 0
BITMAP
C3
63
66
66
66
36
3C
3C
3C
18
18
ENDCHAR
STARTCHAR 2165
ENCODING 9525
SWIDTH 1800 0
DWIDTH 18 0
BBX 10 11 3 0
BITMAP
C7C0
C7C0
67C0
67C0
6DC0
6DC0
3DC0
3DC0
39C0
39C0
19C0
ENDCHAR
STARTCHAR 2166
ENCODING 9526
SWIDTH 1800 0
DWIDTH 18 0
BBX 13 11 2 0
BITMAP
C6F8
C6F8
66F8
6CF8
6CF8
6CF8
6CF8
38F8
38F8
38F8
38F8
ENDCHAR
STARTCHAR 2167
ENCODING 9527
SWIDTH 1800 0
DWIDTH 18 0
BBX 14 11 1 0
BITMAP
C7BC
C7BC
CFBC
6FBC
6FBC
6FBC
7BBC
3BBC
3BBC
3BBC
33BC
ENDCHAR
STARTCHAR 2168
ENCODING 9528
SWIDTH 1800 0
DWIDTH 18 0
BBX 13 11 1 0
BITMAP
EC18
EE30
E670
E360
E3C0
E1C0
E3C0
E360
E770
EE30
EC18
ENDCHAR
STARTCHAR 2169
ENCODING 9529
SWIDTH 1800 0
DWIDTH 18 0
BBX 9 11 4 0
BITMAP
C380
E300
7700
3E00
3C00
1C00
3C00
3600
7700
E300
C380
ENDCHAR
STARTCHAR 0391
ENCODING 9537
SWIDTH 1800 0
DWIDTH 18 0
BBX 12 11 2 0
BITMAP
0200
0600
0700
0F00
0D80
1980
1FC0
3FC0
3060
7060
E070
ENDCHAR
STARTCHAR 0392
ENCODING 9538
SWIDTH 1800 0
DWIDTH 18 0
BBX 10 11 4 0
BITMAP
FF00
FF80
E1C0
E180
FF80
FF80
E1C0
E1C0
E1C0
FF80
FF00
ENDCHAR
STARTCHAR 0393
ENCODING 9539
SWIDTH 1800 0
DWIDTH 18 0
BBX 9 11 4 0
BITMAP
FF80
C000
C000
C000
C000
C000
C000
C000
C000
C000
C000
ENDCHAR
STARTCHAR 0394
ENCODING 9540
SWIDTH 1800 0
DWIDTH 18 0
BBX 10 11 3 0
BITMAP
0040
00C0
01C0
01C0
03C0
07C0
0DC0
19C0
31C0
7FC0
FFC0
ENDCHAR
STARTCHAR 0395
ENCODING 9541
SWIDTH 1800 0
DWIDTH 18 0
BBX 10 11 3 0
BITMAP
FFC0
FFC0
E000
E000
FF80
FF80
E000
E000
E000
FFC0
FFC0
ENDCHAR
STARTCHAR 0396
ENCODING 9542
SWIDTH 1800 0
DWIDTH 18 0
BBX 10 12 3 -1
BITMAP
FFC0
FFC0
01C0
0380
0700
0E00
1E00
1C00
3800
7000
FFC0
FFC0
ENDCHAR
STARTCHAR 0397
ENCODING 9543
SWIDTH 1800 0
DWIDTH 18 0
BBX 10 11 3 0
BITMAP
E1C0
E1C0
E1C0
E1C0
FFC0
FFC0
E1C0
E1C0
E1C0
E1C0
E1C0
ENDCHAR
STARTCHAR 0398
ENCODING 9544
SWIDTH 1800 0
DWIDTH 18 0
BBX 11 11 3 0
BITMAP
1F80
7BC0
71C0
E0E0
FFE0
FFE0
E0E0
E0E0
71C0
7FC0
1F00
ENDCHAR
STARTCHAR 0399
ENCODING 9545
SWIDTH 1800 0
DWIDTH 18 0
BBX 3 11 7 0
BITMAP
E0
E0
E0
E0
E0
E0
E0
E0
E0
E0
E0
ENDCHAR
STARTCHAR 039A
ENCODING 9546
SWIDTH 1800 0
DWIDTH 18 0
BBX 11 11 3 0
BITMAP
E0E0
E3C0
E780
EE00
FC00
FE00
E600
E700
E300
E380
E1C0
ENDCHAR
STARTCHAR 039B
ENCODING 9547
SWIDTH 1800 0
DWIDTH 18 0
BBX 10 11 3 0
BITMAP
0400
0C00
0E00
0E00
1E00
1F00
3B00
3380
7180
71C0
E1C0
ENDCHAR
STARTCHAR 039C
ENCODING 9548
SWIDTH 1800 0
DWIDTH 18 0
BBX 12 11 2 0
BITMAP
F0F0
F0F0
F0F0
F1F0
F9F0
F9F0
FB70
EF70
EF70
EF70
EE70
ENDCHAR
STARTCHAR 039D
ENCODING 9549
SWIDTH 1800 0
DWIDTH 18 0
BBX 10 11 3 0
BITMAP
E1C0
F1C0
F1C0
F9C0
E9C0
E5C0
E7C0
E3C0
E1C0
E1C0
E0C0
ENDCHAR
STARTCHAR 039E
ENCODING 9550
SWIDTH 1800 0
DWIDTH 18 0
BBX 9 10 4 0
BITMAP
FF80
0000
0000
0000
7E00
7E00
0000
0000
FF80
FF80
ENDCHAR
STARTCHAR 039F
ENCODING 9551
SWIDTH 1800 0
DWIDTH 18 0
BBX 11 11 3 0
BITMAP
3F80
7BC0
71C0
E0E0
E0E0
E0E0
E0E0
E0E0
71C0
7FC0
1F00
ENDCHAR
STARTCHAR 03A0
ENCODING 9552
SWIDTH 1800 0
DWIDTH 18 0
BBX 10 11 3 0
BITMAP
FFC0
E1C0
E1C0
E1C0
E1C0
E1C0
E1C0
E1C0
E1C0
E1C0
E1C0
ENDCHAR
STARTCHAR 03A1
ENCODING 9553
SWIDTH 1800 0
DWIDTH 18 0
BBX 9 11 4 0
BITMAP
FF00
E380
E180
E380
FF80
FF00
E000
E000
E000
E000
E000
ENDCHAR
STARTCHAR 03A3
ENCODING 9554
SWIDTH 1800 0
DWIDTH 18 0
BBX 10 11 3 0
BITMAP
7FC0
3FC0
1800
0C00
0E00
0700
0E00
1C00
3800
7FC0
FFC0
ENDCHAR
STARTCHAR 03A4
ENCODING 9555
SWIDTH 1800 0
DWIDTH 18 0
BBX 11 11 3 0
BITMAP
FFE0
FFE0
0E00
0E00
0E00
0E00
0E00
0E00
0E00
0E00
0E00
ENDCHAR
STARTCHAR 03A5
ENCODING 9556
SWIDTH 1800 0
DWIDTH 18 0
BBX 12 11 2 0
BITMAP
1DE0
7FF0
EF30
4E00
0E00
0E00
0E00
0E00
0E00
0E00
0E00
ENDCHAR
STARTCHAR 03A6
ENCODING 9557
SWIDTH 1800 0
DWIDTH 18 0
BBX 12 11 2 0
BITMAP
0700
1FC0
7FE0
F770
E770
E770
E770
77E0
3FE0
0700
0700
ENDCHAR
STARTCHAR 03A7
ENCODING 9558
SWIDTH 1800 0
DWIDTH 18 0
BBX 10 11 3 0
BITMAP
71C0
7380
3B80
3F00
1E00
0E00
1E00
3F00
3300
7380
E1C0
ENDCHAR
STARTCHAR 03A8
ENCODING 9559
SWIDTH 1800 0
DWIDTH 18 0
BBX 12 11 2 0
BITMAP
76E0
F6F0
36E0
36C0
36C0
3FC0
1F80
0600
0600
0600
0600
ENDCHAR
STARTCHAR 03A9
ENCODING 9560
SWIDTH 1800 0
DWIDTH 18 0
BBX 11 11 3 0
BITMAP
1F00
7FC0
71E0
E0E0
E0E0
E0E0
F1C0
7F80
3F00
3FC0
FFC0
ENDCHAR
STARTCHAR 03B1
ENCODING 9569
SWIDTH 1800 0
DWIDTH 18 0
BBX 9 7 4 0
BITMAP
3300
7F00
CE00
C600
CE00
FF80
7B00
ENDCHAR
STARTCHAR 03B2
ENCODING 9570
SWIDTH 1800 0
DWIDTH 18 0
BBX 9 12 4 -1
BITMAP
3E00
7F00
E380
E380
EF00
EF80
E180
E180
F380
FF00
E000
E000
ENDCHAR
STARTCHAR 03B3
ENCODING 9571
SWIDTH 1800 0
DWIDTH 18 0
BBX 6 7 5 0
BITMAP
EC
FC
3C
18
38
30
30
ENDCHAR
STARTCHAR 03B4
ENCODING 9572
SWIDTH 1800 0
DWIDTH 18 0
BBX 9 11 4 0
BITMAP
7E00
7780
6100
7000
7C00
7F00
6300
E300
E300
7F00
3E00
ENDCHAR
STARTCHAR 03B5
ENCODING 9573
SWIDTH 1800 0
DWIDTH 18 0
BBX 6 8 5 0
BITMAP
30
7C
60
70
70
C4
FC
78
ENDCHAR
STARTCHAR 03B6
ENCODING 9574
SWIDTH 1800 0
DWIDTH 18 0
BBX 7 14 5 -2
BITMAP
76
6E
7C
70
60
E0
C0
C0
F8
7E
06
06
3E
1C
ENDCHAR
STARTCHAR 03B7
ENCODING 9575
SWIDTH 1800 0
DWIDTH 18 0
BBX 10 8 3 -1
BITMAP
FF00
FFC0
39C0
39C0
39C0
39C0
39C0
01C0
ENDCHAR
STARTCHAR 03B8
ENCODING 9576
SWIDTH 1800 0
DWIDTH 18 0
BBX 12 12 2 0
BITMAP
0F80
3FC0
70E0
7070
E030
FFF0
FFF0
E030
6070
70E0
3FC0
0F80
ENDCHAR
STARTCHAR 03B9
ENCODING 9577
SWIDTH 1800 0
DWIDTH 18 0
BBX 5 7 6 0
BITMAP
60
60
60
E0
F0
F8
70
ENDCHAR
STARTCHAR 03BA
ENCODING 9578
SWIDTH 1800 0
DWIDTH 18 0
BBX 8 7 4 0
BITMAP
E7
EF
EC
F8
EC
EE
E7
ENDCHAR
STARTCHAR 03BB
ENCODING 9579
SWIDTH 1800 0
DWIDTH 18 0
BBX 10 12 4 0
BITMAP
3E00
3E00
0E00
0E00
0E00
0E00
1E00
1F00
3F00
7380
E3C0
C100
ENDCHAR
STARTCHAR 03BC
ENCODING 9580
SWIDTH 1800 0
DWIDTH 18 0
BBX 9 8 4 -1
BITMAP
EE00
EE00
EE00
EE00
EF80
FF80
E000
E000
ENDCHAR
STARTCHAR 03BD
ENCODING 9581
SWIDTH 1800 0
DWIDTH 18 0
BBX 8 7 5 0
BITMAP
C2
E7
E6
EE
7C
78
70
ENDCHAR
STARTCHAR 03BE
ENCODING 9582
SWIDTH 1800 0
DWIDTH 18 0
BBX 8 14 4 -2
BITMAP
30
30
3F
7F
70
3F
7F
60
E0
7C
3E
07
1E
3E
ENDCHAR
STARTCHAR 03BF
ENCODING 9583
SWIDTH 1800 0
DWIDTH 18 0
BBX 7 7 5 0
BITMAP
38
FC
C6
C6
C6
FC
38
ENDCHAR
STARTCHAR 03C0
ENCODING 9584
SWIDTH 1800 0
DWIDTH 18 0
BBX 11 7 3 0
BITMAP
FFE0
FFE0
3B80
3B80
3BA0
33E0
71C0
ENDCHAR
STARTCHAR 03C1
ENCODING 9585
SWIDTH 1800 0
DWIDTH 18 0
BBX 8 8 5 -2
BITMAP
7E
E7
C7
E7
FE
FC
E0
E0
ENDCHAR
STARTCHAR 03C3
ENCODING 9586
SWIDTH 1800 0
DWIDTH 18 0
BBX 9 6 4 1
BITMAP
3F80
7F80
EE00
C600
EE00
7C00
ENDCHAR
STARTCHAR 03C4
ENCODING 9587
SWIDTH 1800 0
DWIDTH 18 0
BBX 8 7 5 0
BITMAP
FF
FF
38
38
3A
3F
1E
ENDCHAR
STARTCHAR 03C5
ENCODING 9588
SWIDTH 1800 0
DWIDTH 18 0
BBX 8 7 5 0
BITMAP
66
E7
E7
EE
FE
FC
F0
ENDCHAR
STARTCHAR 03C6
ENCODING 9589
SWIDTH 1800 0
DWIDTH 18 0
BBX 10 8 4 -1
BITMAP
DF00
DF80
DD80
DDC0
FF80
7F00
0C00
1C00
ENDCHAR
STARTCHAR 03C7
ENCODING 9590
SWIDTH 1800 0
DWIDTH 18 0
BBX 9 8 4 0
BITMAP
F300
F700
3E00
1C00
3C00
7C00
EF80
4F80
ENDCHAR
STARTCHAR 03C8
ENCODING 9591
SWIDTH 1800 0
DWIDTH 18 0
BBX 10 10 4 0
BITMAP
1C00
1C00
DD80
DD80
DCC0
DDC0
FF80
1E00
1C00
1C00
ENDCHAR
STARTCHAR 03C9
ENCODING 9592
SWIDTH 1800 0
DWIDTH 18 0
BBX 12 7 2 0
BITMAP
30E0
7760
6670
E630
E630
FFF0
7BE0
ENDCHAR
STARTCHAR 2500
ENCODING 9761
SWIDTH 1800 0
DWIDTH 18 0
BBX 16 1 0 4
BITMAP
FFFF
ENDCHAR
STARTCHAR 2502
ENCODING 9762
SWIDTH 1800 0
DWIDTH 18 0
BBX 2 16 7 -3
BITMAP
C0
C0
C0
C0
C0
C0
C0
C0
C0
C0
C0
C0
C0
C0
C0
C0
ENDCHAR
STARTCHAR 250C
ENCODING 9763
SWIDTH 1800 0
DWIDTH 18 0
BBX 9 8 7 -3
BITMAP
FF80
C000
C000
C000
C000
C000
C000
C000
ENDCHAR
STARTCHAR 2510
ENCODING 9764
SWIDTH 1800 0
DWIDTH 18 0
BBX 9 9 0 -3
BITMAP
FF80
FF80
0180
0180
0180
0180
0180
0180
0180
ENDCHAR
STARTCHAR 2518
ENCODING 9765
SWIDTH 1800 0
DWIDTH 18 0
BBX 8 9 1 4
BITMAP
01
01
01
01
01
01
01
FF
FF
ENDCHAR
STARTCHAR 2514
ENCODING 9766
SWIDTH 1800 0
DWIDTH 18 0
BBX 9 9 7 4
BITMAP
C000
C000
C000
C000
C000
C000
C000
FF80
FF80
ENDCHAR
STARTCHAR 251C
ENCODING 9767
SWIDTH 1800 0
DWIDTH 18 0
BBX 9 16 7 -3
BITMAP
C000
C000
C000
C000
C000
C000
C000
FF80
FF80
C000
C000
C000
C000
C000
C000
C000
ENDCHAR
STARTCHAR 252C
ENCODING 9768
SWIDTH 1800 0
DWIDTH 18 0
BBX 16 8 0 -3
BITMAP
FFFF
0180
0180
0180
0180
0180
0180
0180
ENDCHAR
STARTCHAR 2524
ENCODING 9769
SWIDTH 1800 0
DWIDTH 18 0
BBX 9 16 0 -3
BITMAP
0180
0180
0180
0180
0180
0180
0180
FF80
FF80
0180
0180
0180
0180
0180
0180
0180
ENDCHAR
STARTCHAR 2534
ENCODING 9770
SWIDTH 1800 0
DWIDTH 18 0
BBX 16 9 0 4
BITMAP
0180
0180
0180
0180
0180
0180
0180
0180
FFFF
ENDCHAR
STARTCHAR 253C
ENCODING 9771
SWIDTH 1800 0
DWIDTH 18 0
BBX 16 16 0 -3
BITMAP
0180
0180
0180
0180
0180
0180
0180
FFFF
FFFF
0180
0180
0180
0180
0180
0180
0180
ENDCHAR
STARTCHAR 2501
ENCODING 9772
SWIDTH 1800 0
DWIDTH 18 0
BBX 16 2 0 4
BITMAP
FFFF
FFFF
ENDCHAR
STARTCHAR 2503
ENCODING 9773
SWIDTH 1800 0
DWIDTH 18 0
BBX 2 16 7 -3
BITMAP
C0
C0
C0
C0
C0
C0
C0
C0
C0
C0
C0
C0
C0
C0
C0
C0
ENDCHAR
STARTCHAR 250F
ENCODING 9774
SWIDTH 1800 0
DWIDTH 18 0
BBX 9 9 7 -3
BITMAP
FF80
FF80
C000
C000
C000
C000
C000
C000
C000
ENDCHAR
STARTCHAR 2513
ENCODING 9775
SWIDTH 1800 0
DWIDTH 18 0
BBX 9 9 0 -3
BITMAP
FF80
FF80
0180
0180
0180
0180
0180
0180
0180
ENDCHAR
STARTCHAR 251B
ENCODING 9776
SWIDTH 1800 0
DWIDTH 18 0
BBX 9 9 0 4
BITMAP
0180
0180
0180
0180
0180
0180
0180
FF80
FF80
ENDCHAR
STARTCHAR 2517
ENCODING 9777
SWIDTH 1800 0
DWIDTH 18 0
BBX 9 9 7 4
BITMAP
C000
C000
C000
C000
C000
C000
C000
FF80
FF80
ENDCHAR
STARTCHAR 2523
ENCODING 9778
SWIDTH 1800 0
DWIDTH 18 0
BBX 9 16 7 -3
BITMAP
C000
C000
C000
C000
C000
C000
C000
FF80
FF80
C000
C000
C000
C000
C000
C000
C000
ENDCHAR
STARTCHAR 2533
ENCODING 9779
SWIDTH 1800 0
DWIDTH 18 0
BBX 16 9 0 -3
BITMAP
FFFF
FFFF
01C0
01C0
01C0
01C0
01C0
01C0
01C0
ENDCHAR
STARTCHAR 252B
ENCODING 9780
SWIDTH 1800 0
DWIDTH 18 0
BBX 9 16 0 -3
BITMAP
0180
0180
0180
0180
0180
0180
0180
FF80
FF80
0180
0180
0180
0180
0180
0180
0180
ENDCHAR
STARTCHAR 253B
ENCODING 9781
SWIDTH 1800 0
DWIDTH 18 0
BBX 16 9 0 4
BITMAP
0180
0180
0180
0180
0180
0180
0180
FFFF
FFFF
ENDCHAR
STARTCHAR 254B
ENCODING 9782
SWIDTH 1800 0
DWIDTH 18 0
BBX 16 16 0 -3
BITMAP
01C0
01C0
01C0
01C0
01C0
01C0
01C0
FFFF
FFFF
01C0
01C0
01C0
01C0
01C0
01C0
01C0
ENDCHAR
STARTCHAR 2520
ENCODING 9783
SWIDTH 1800 0
DWIDTH 18 0
BBX 9 16 7 -3
BITMAP
C000
C000
C000
C000
C000
C000
C000
FF80
FF80
C000
C000
C000
C000
C000
C000
C000
ENDCHAR
STARTCHAR 252F
ENCODING 9784
SWIDTH 1800 0
DWIDTH 18 0
BBX 16 9 0 -3
BITMAP
FFFF
FFFF
0180
0180
0180
0180
0180
0180
0180
ENDCHAR
STARTCHAR 2528
ENCODING 9785
SWIDTH 1800 0
DWIDTH 18 0
BBX 9 16 0 -3
BITMAP
0180
0180
0180
0180
0180
0180
0180
FF80
FF80
0180
0180
0180
0180
0180
0180
0180
ENDCHAR
STARTCHAR 2537
ENCODING 9786
SWIDTH 1800 0
DWIDTH 18 0
BBX 16 9 0 4
BITMAP
0180
0180
0180
0180
0180
0180
0180
FFFF
FFFF
ENDCHAR
STARTCHAR 253F
ENCODING 9787
SWIDTH 1800 0
DWIDTH 18 0
BBX 15 16 0 -3
BITMAP
0100
0100
0100
0100
0100
0100
0100
FFFE
FFFE
0100
0100
0100
0100
0100
0100
0100
ENDCHAR
STARTCHAR 251D
ENCODING 9788
SWIDTH 1800 0
DWIDTH 18 0
BBX 9 16 7 -3
BITMAP
C000
C000
C000
C000
C000
C000
C000
FF80
FF80
C000
C000
C000
C000
C000
C000
C000
ENDCHAR
STARTCHAR 2530
ENCODING 9789
SWIDTH 1800 0
DWIDTH 18 0
BBX 16 9 0 -3
BITMAP
FFFF
FFFF
01C0
01C0
01C0
01C0
01C0
01C0
01C0
ENDCHAR
STARTCHAR 2525
ENCODING 9790
SWIDTH 1800 0
DWIDTH 18 0
BBX 9 16 0 -3
BITMAP
0180
0180
0180
0180
0180
0180
0180
FF80
FF80
0180
0180
0180
0180
0180
0180
0180
ENDCHAR
STARTCHAR 2538
ENCODING 9791
SWIDTH 1800 0
DWIDTH 18 0
BBX 16 9 0 4
BITMAP
0180
0180
0180
0180
0180
0180
0180
0180
FFFF
ENDCHAR
STARTCHAR 2542
ENCODING 9792
SWIDTH 1800 0
DWIDTH 18 0
BBX 16 16 0 -3
BITMAP
01C0
01C0
01C0
01C0
01C0
01C0
01C0
FFFF
FFFF
01C0
01C0
01C0
01C0
01C0
01C0
01C0
ENDCHAR
STARTCHAR 2512
ENCODING 9793
SWIDTH 1800 0
DWIDTH 18 0
BBX 10 8 -1 -3
BITMAP
FFC0
01C0
01C0
01C0
01C0
01C0
01C0
01C0
ENDCHAR
STARTCHAR 2511
ENCODING 9794
SWIDTH 1800 0
DWIDTH 18 0
BBX 9 9 0 -3
BITMAP
FF80
FF80
0180
0180
0180
0180
0180
0180
0180
ENDCHAR
STARTCHAR 251A
ENCODING 9795
SWIDTH 1800 0
DWIDTH 18 0
BBX 9 9 0 4
BITMAP
0180
0180
0180
0180
0180
0180
0180
0180
FF80
ENDCHAR
STARTCHAR 2519
ENCODING 9796
SWIDTH 1800 0
DWIDTH 18 0
BBX 9 16 0 -3
BITMAP
0180
0180
0180
0180
0180
0180
0180
FF80
FF80
0180
0180
0180
0180
0180
0180
0180
ENDCHAR
STARTCHAR 2516
ENCODING 9797
SWIDTH 1800 0
DWIDTH 18 0
BBX 9 9 7 4
BITMAP
C000
C000
C000
C000
C000
C000
C000
C000
FF80
ENDCHAR
STARTCHAR 2515
ENCODING 9798
SWIDTH 1800 0
DWIDTH 18 0
BBX 9 9 7 4
BITMAP
C000
C000
C000
C000
C000
C000
C000
FF80
FF80
ENDCHAR
STARTCHAR 250E
ENCODING 9799
SWIDTH 1800 0
DWIDTH 18 0
BBX 9 9 7 -3
BITMAP
FF80
FF80
C000
C000
C000
C000
C000
C000
C000
ENDCHAR
STARTCHAR 250D
ENCODING 9800
SWIDTH 1800 0
DWIDTH 18 0
BBX 9 9 7 -3
BITMAP
FF80
FF80
C000
C000
C000
C000
C000
C000
C000
ENDCHAR
STARTCHAR 251E
ENCODING 9801
SWIDTH 1800 0
DWIDTH 18 0
BBX 9 15 7 -3
BITMAP
C000
C000
C000
C000
C000
C000
C000
FF80
C000
C000
C000
C000
C000
C000
C000
ENDCHAR
STARTCHAR 251F
ENCODING 9802
SWIDTH 1800 0
DWIDTH 18 0
BBX 9 16 7 -3
BITMAP
C000
C000
C000
C000
C000
C000
C000
FF80
FF80
C000
C000
C000
C000
C000
C000
C000
ENDCHAR
STARTCHAR 2521
ENCODING 9803
SWIDTH 1800 0
DWIDTH 18 0
BBX 9 16 7 -3
BITMAP
C000
C000
C000
C000
C000
C000
C000
FF80
FF80
C000
C000
C000
C000
C000
C000
C000
ENDCHAR
STARTCHAR 2522
ENCODING 9804
SWIDTH 1800 0
DWIDTH 18 0
BBX 9 16 7 -3
BITMAP
C000
C000
C000
C000
C000
C000
C000
FF80
FF80
C000
C000
C000
C000
C000
C000
C000
ENDCHAR
STARTCHAR 2526
ENCODING 9805
SWIDTH 1800 0
DWIDTH 18 0
BBX 9 16 0 -3
BITMAP
0180
0180
0180
0180
0180
0180
0180
FF80
FF80
0180
0180
0180
0180
0180
0180
0180
ENDCHAR
STARTCHAR 2527
ENCODING 9806
SWIDTH 1800 0
DWIDTH 18 0
BBX 9 16 0 -3
BITMAP
0180
0180
0180
0180
0180
0180
0180
FF80
FF80
0180
0180
0180
0180
0180
0180
0180
ENDCHAR
STARTCHAR 2529
ENCODING 9807
SWIDTH 1800 0
DWIDTH 18 0
BBX 9 16 0 -3
BITMAP
0180
0180
0180
0180
0180
0180
0180
FF80
FF80
0180
0180
0180
0180
0180
0180
0180
ENDCHAR
STARTCHAR 252A
ENCODING 9808
SWIDTH 1800 0
DWIDTH 18 0
BBX 9 16 0 -3
BITMAP
0180
0180
0180
0180
0180
0180
0180
FF80
FF80
0180
0180
0180
0180
0180
0180
0180
ENDCHAR
STARTCHAR 252D
ENCODING 9809
SWIDTH 1800 0
DWIDTH 18 0
BBX 16 9 0 -3
BITMAP
FFFF
FFFF
0180
0180
0180
0180
0180
0180
0180
ENDCHAR
STARTCHAR 252E
ENCODING 9810
SWIDTH 1800 0
DWIDTH 18 0
BBX 16 9 0 -3
BITMAP
01FF
FFFF
0180
0180
0180
0180
0180
0180
0180
ENDCHAR
STARTCHAR 2531
ENCODING 9811
SWIDTH 1800 0
DWIDTH 18 0
BBX 16 9 0 -3
BITMAP
FF80
FFFF
0180
0180
0180
0180
0180
0180
0180
ENDCHAR
STARTCHAR 2532
ENCODING 9812
SWIDTH 1800 0
DWIDTH 18 0
BBX 16 9 0 -3
BITMAP
FFFF
FFFF
0180
0180
0180
0180
0180
0180
0180
ENDCHAR
STARTCHAR 2535
ENCODING 9813
SWIDTH 1800 0
DWIDTH 18 0
BBX 16 9 0 4
BITMAP
0180
0180
0180
0180
0180
0180
0180
FFFF
FFFF
ENDCHAR
STARTCHAR 2536
ENCODING 9814
SWIDTH 1800 0
DWIDTH 18 0
BBX 16 9 0 4
BITMAP
0180
0180
0180
0180
0180
0180
0180
FFFF
FFFF
ENDCHAR
STARTCHAR 2539
ENCODING 9815
SWIDTH 1800 0
DWIDTH 18 0
BBX 16 9 0 4
BITMAP
0180
0180
0180
0180
0180
0180
0180
FFFF
FFFF
ENDCHAR
STARTCHAR 253A
ENCODING 9816
SWIDTH 1800 0
DWIDTH 18 0
BBX 16 9 0 4
BITMAP
0180
0180
0180
0180
0180
0180
0180
FFFF
FFFF
ENDCHAR
STARTCHAR 253D
ENCODING 9817
SWIDTH 1800 0
DWIDTH 18 0
BBX 15 16 0 -3
BITMAP
0100
0100
0100
0100
0100
0100
0100
FFFE
FFFE
0100
0100
0100
0100
0100
0100
0100
ENDCHAR
STARTCHAR 253E
ENCODING 9818
SWIDTH 1800 0
DWIDTH 18 0
BBX 15 16 0 -3
BITMAP
0100
0100
0100
0100
0100
0100
0100
FFFE
FFFE
0100
0100
0100
0100
0100
0100
0100
ENDCHAR
STARTCHAR 2540
ENCODING 9819
SWIDTH 1800 0
DWIDTH 18 0
BBX 16 16 0 -3
BITMAP
01C0
01C0
01C0
01C0
01C0
01C0
01C0
FFFF
FFFF
0100
0100
0100
0100
0100
0100
0100
ENDCHAR
STARTCHAR 2541
ENCODING 9820
SWIDTH 1800 0
DWIDTH 18 0
BBX 16 16 0 -3
BITMAP
0100
0100
0100
0100
0100
0100
0100
FFFF
FFFF
01C0
01C0
01C0
01C0
01C0
01C0
01C0
ENDCHAR
STARTCHAR 2543
ENCODING 9821
SWIDTH 1800 0
DWIDTH 18 0
BBX 16 16 0 -3
BITMAP
01C0
01C0
01C0
01C0
01C0
01C0
01C0
FFFF
FFFF
0100
0100
0100
0100
0100
0100
0100
ENDCHAR
STARTCHAR 2544
ENCODING 9822
SWIDTH 1800 0
DWIDTH 18 0
BBX 16 16 0 -3
BITMAP
01C0
01C0
01C0
01C0
01C0
01C0
01C0
FFFF
FFFF
0100
0100
0100
0100
0100
0100
0100
ENDCHAR
STARTCHAR 2545
ENCODING 9823
SWIDTH 1800 0
DWIDTH 18 0
BBX 16 16 0 -3
BITMAP
0100
0100
0100
0100
0100
0100
0100
FFFF
FFFF
01C0
01C0
01C0
01C0
01C0
01C0
01C0
ENDCHAR
STARTCHAR 2546
ENCODING 9824
SWIDTH 1800 0
DWIDTH 18 0
BBX 16 16 0 -3
BITMAP
0100
0100
0100
0100
0100
0100
0100
FFFF
FFFF
01C0
01C0
01C0
01C0
01C0
01C0
01C0
ENDCHAR
STARTCHAR 2547
ENCODING 9825
SWIDTH 1800 0
DWIDTH 18 0
BBX 16 16 0 -3
BITMAP
01C0
01C0
01C0
01C0
01C0
01C0
01C0
FFFF
FFFF
0100
0100
0100
0100
0100
0100
0100
ENDCHAR
STARTCHAR 2548
ENCODING 9826
SWIDTH 1800 0
DWIDTH 18 0
BBX 16 16 0 -3
BITMAP
0100
0100
0100
0100
0100
0100
0100
FFFF
FFFF
01C0
01C0
01C0
01C0
01C0
01C0
01C0
ENDCHAR
STARTCHAR 2549
ENCODING 9827
SWIDTH 1800 0
DWIDTH 18 0
BBX 16 16 0 -3
BITMAP
01C0
01C0
01C0
01C0
01C0
01C0
01C0
FFFF
FFFF
01C0
01C0
01C0
01C0
01C0
01C0
01C0
ENDCHAR
STARTCHAR 254A
ENCODING 9828
SWIDTH 1800 0
DWIDTH 18 0
BBX 16 16 0 -3
BITMAP
01C0
01C0
01C0
01C0
01C0
01C0
01C0
FFFF
FFFF
01C0
01C0
01C0
01C0
01C0
01C0
01C0
ENDCHAR
STARTCHAR 3395
ENCODING 10017
SWIDTH 1800 0
DWIDTH 18 0
BBX 15 13 1 -2
BITMAP
000C
001C
001E
123A
323C
363C
2638
6C38
6E74
FFFC
F618
8000
8000
ENDCHAR
STARTCHAR 3396
ENCODING 10018
SWIDTH 1800 0
DWIDTH 18 0
BBX 14 11 1 0
BITMAP
000C
001C
0014
EC34
FE3C
933C
9338
9330
936C
93FC
9338
ENDCHAR
STARTCHAR 3397
ENCODING 10019
SWIDTH 1800 0
DWIDTH 18 0
BBX 13 11 0 -1
BITMAP
0738
0738
0778
3F78
4778
C770
C770
C7E8
FFF8
7F78
0700
ENDCHAR
STARTCHAR 2113
ENCODING 10020
SWIDTH 1800 0
DWIDTH 18 0
BBX 6 11 5 0
BITMAP
1C
14
3C
3C
3C
28
38
30
6C
FC
38
ENDCHAR
STARTCHAR 3398
ENCODING 10021
SWIDTH 1800 0
DWIDTH 18 0
BBX 12 11 2 0
BITMAP
0020
C070
C0F0
CCF0
D8B0
F0A0
F0E0
F1C0
D9B0
CBF0
CEE0
ENDCHAR
STARTCHAR 33C4
ENCODING 10022
SWIDTH 1800 0
DWIDTH 18 0
BBX 14 8 0 0
BITMAP
1C38
7EFC
E3C4
E1C0
E1C0
E3C4
7EFC
3C78
ENDCHAR
STARTCHAR 33A3
ENCODING 10023
SWIDTH 1800 0
DWIDTH 18 0
BBX 16 11 0 0
BITMAP
0007
0003
0007
0007
FFF8
F6B8
F6B8
F6B8
F6B8
F6B8
F6B8
ENDCHAR
STARTCHAR 33A4
ENCODING 10024
SWIDTH 1800 0
DWIDTH 18 0
BBX 16 11 0 0
BITMAP
0007
0007
0003
79F7
6DF8
4DF8
C1F8
C1F8
45F8
7DF8
39F8
ENDCHAR
STARTCHAR 33A5
ENCODING 10025
SWIDTH 1800 0
DWIDTH 18 0
BBX 13 11 2 0
BITMAP
0070
0018
0018
C278
FF80
EB80
EB80
EB80
EB80
EB80
EB80
ENDCHAR
STARTCHAR 33A6
ENCODING 10026
SWIDTH 1800 0
DWIDTH 18 0
BBX 16 11 -1 0
BITMAP
E007
E003
E001
EE07
FFFC
FBFC
FBBC
FBBC
EFBC
EFBC
E7BC
ENDCHAR
STARTCHAR 3399
ENCODING 10027
SWIDTH 1800 0
DWIDTH 18 0
BBX 15 11 1 0
BITMAP
0E00
3E00
3800
FF00
FFFE
3BF6
3BF6
3BF6
3BF6
3BF6
3BF6
ENDCHAR
STARTCHAR 339A
ENCODING 10028
SWIDTH 1800 0
DWIDTH 18 0
BBX 16 8 0 0
BITMAP
D8E4
FEFF
EEF7
EEF7
EEF7
EEF7
EEF7
EEF7
ENDCHAR
STARTCHAR 339B
ENCODING 10029
SWIDTH 1800 0
DWIDTH 18 0
BBX 16 10 0 -2
BITMAP
0944
1B7F
1B5B
325B
365B
265B
7FDB
7F5B
C000
4000
ENDCHAR
STARTCHAR 339C
ENCODING 10030
SWIDTH 1800 0
DWIDTH 18 0
BBX 14 8 1 0
BITMAP
F790
FFFC
F7BC
F7BC
F7BC
F7BC
F7BC
F7BC
ENDCHAR
STARTCHAR 339D
ENCODING 10031
SWIDTH 1800 0
DWIDTH 18 0
BBX 14 8 1 0
BITMAP
31D0
7DFC
CDFC
C1FC
C1FC
CDFC
FDFC
79FC
ENDCHAR
STARTCHAR 339E
ENCODING 10032
SWIDTH 1800 0
DWIDTH 18 0
BBX 15 11 0 0
BITMAP
E000
E000
E000
E6E4
ECFE
F8FE
F8FE
F8FE
ECFE
E4FE
E6FE
ENDCHAR
STARTCHAR 339F
ENCODING 10033
SWIDTH 1800 0
DWIDTH 18 0
BBX 16 11 0 0
BITMAP
0007
000F
0007
0607
FFF8
F6B8
F6B8
F6B8
F6B8
F6B8
F6B8
ENDCHAR
STARTCHAR 33A0
ENCODING 10034
SWIDTH 1800 0
DWIDTH 18 0
BBX 16 12 0 -1
BITMAP
0007
000F
0006
01F7
39F8
7D78
C178
C178
C178
CD78
7D78
7800
ENDCHAR
STARTCHAR 33A1
ENCODING 10035
SWIDTH 1800 0
DWIDTH 18 0
BBX 14 11 1 0
BITMAP
0010
0038
0008
D1BC
FFFC
FCE0
FCE0
FCE0
FCE0
FCE0
FCE0
ENDCHAR
STARTCHAR 33A2
ENCODING 10036
SWIDTH 1800 0
DWIDTH 18 0
BBX 16 11 0 0
BITMAP
C006
C00F
C002
CF07
DFFC
F77C
F77C
F77C
DF7C
DF7C
CF7C
ENDCHAR
STARTCHAR 33CA
ENCODING 10037
SWIDTH 1800 0
DWIDTH 18 0
BBX 12 11 2 0
BITMAP
E000
E000
E000
E000
FFE0
EFB0
EEF0
EFF0
EF30
EFF0
EFF0
ENDCHAR
STARTCHAR 338D
ENCODING 10038
SWIDTH 1800 0
DWIDTH 18 0
BBX 16 10 0 -2
BITMAP
003F
193E
1B24
3224
3678
267E
7FBF
7F63
C07F
C03E
ENDCHAR
STARTCHAR 338E
ENCODING 10039
SWIDTH 1800 0
DWIDTH 18 0
BBX 14 9 1 -1
BITMAP
C06C
FEFC
FE98
FEF8
FEF0
FFF8
FEFC
FE8C
00FC
ENDCHAR
STARTCHAR 338F
ENCODING 10040
SWIDTH 1800 0
DWIDTH 18 0
BBX 15 12 0 -2
BITMAP
E000
E000
E002
EE7E
FC48
F848
EC78
ECF0
E67E
E646
007C
0030
ENDCHAR
STARTCHAR 33CF
ENCODING 10041
SWIDTH 1800 0
DWIDTH 18 0
BBX 15 11 1 0
BITMAP
E000
E000
E038
E7FE
EEFE
F838
F838
EC38
EC38
E63E
E71E
ENDCHAR
STARTCHAR 3388
ENCODING 10042
SWIDTH 1800 0
DWIDTH 18 0
BBX 17 10 0 0
BITMAP
000380
000380
01C380
7FE380
6E6380
C3E380
C3A380
CF2380
7FFB80
3BFB80
ENDCHAR
STARTCHAR 3389
ENCODING 10043
SWIDTH 1800 0
DWIDTH 18 0
BBX 16 10 0 0
BITMAP
E007
E007
E007
FF77
FFFF
FC3F
FC7F
FCBF
EFBF
EF7F
ENDCHAR
STARTCHAR 33C8
ENCODING 10044
SWIDTH 1800 0
DWIDTH 18 0
BBX 15 11 -1 0
BITMAP
07FC
07FE
07E2
37E2
7FE4
E7FC
E7E2
E7E2
E7E2
7FFE
7FFC
ENDCHAR
STARTCHAR 33A7
ENCODING 10045
SWIDTH 1800 0
DWIDTH 18 0
BBX 16 13 0 -3
BITMAP
0020
0020
0060
FC7E
FE53
DE58
DEDE
DEC3
DE9B
DE9E
0180
0180
0100
ENDCHAR
STARTCHAR 33A8
ENCODING 10046
SWIDTH 1800 0
DWIDTH 18 0
BBX 16 14 0 -3
BITMAP
000F
006F
0047
0047
ECFC
FEF4
F6B0
F69C
F68C
F7BC
F71C
0100
0100
0100
ENDCHAR
STARTCHAR 33B0
ENCODING 10047
SWIDTH 1800 0
DWIDTH 18 0
BBX 13 10 2 -2
BITMAP
F0E0
F9F0
F598
E5E0
E470
E590
F5F0
F8F0
E000
E000
ENDCHAR
STARTCHAR 33B1
ENCODING 10048
SWIDTH 1800 0
DWIDTH 18 0
BBX 12 8 2 0
BITMAP
00E0
FFF0
EF10
EFE0
EE70
EF30
EFF0
EEE0
ENDCHAR
STARTCHAR 33B2
ENCODING 10049
SWIDTH 1800 0
DWIDTH 18 0
BBX 14 10 1 -2
BITMAP
1000
1B38
137C
3664
2670
643C
7F64
FE3C
C000
8000
ENDCHAR
STARTCHAR 33B3
ENCODING 10050
SWIDTH 1800 0
DWIDTH 18 0
BBX 15 8 0 0
BITMAP
003C
FFE6
EEF6
EEFC
EEC6
EEE6
EEFC
EED0
ENDCHAR
STARTCHAR 33B4
ENCODING 10051
SWIDTH 1800 0
DWIDTH 18 0
BBX 14 13 1 -2
BITMAP
030C
010C
0188
F998
FE98
E6D8
E2D0
E2F0
E670
FE70
FC60
E000
E000
ENDCHAR
STARTCHAR 33B5
ENCODING 10052
SWIDTH 1800 0
DWIDTH 18 0
BBX 13 11 2 0
BITMAP
0418
0618
0610
EE30
FF30
EF20
EF60
EFE0
EFC0
EEC0
EEC0
ENDCHAR
STARTCHAR 33B6
ENCODING 10053
SWIDTH 1800 0
DWIDTH 18 0
BBX 15 13 1 -2
BITMAP
00C6
00C4
0044
104C
136C
3368
3628
6638
6438
FF38
FF10
C000
8000
ENDCHAR
STARTCHAR 33B7
ENCODING 10054
SWIDTH 1800 0
DWIDTH 18 0
BBX 15 11 0 0
BITMAP
0086
00C6
00C6
E0C4
FFCC
EFEC
EFE8
EFE8
EFF8
EFF8
EFD0
ENDCHAR
STARTCHAR 33B8
ENCODING 10055
SWIDTH 1800 0
DWIDTH 18 0
BBX 13 11 2 0
BITMAP
E618
E618
E210
E330
EF30
F930
F9A0
F9E0
ECE0
E4E0
E6C0
ENDCHAR
STARTCHAR 33B9
ENCODING 10056
SWIDTH 1800 0
DWIDTH 18 0
BBX 14 11 1 0
BITMAP
C684
C6CC
CECC
EEC8
EE48
EE78
EE78
EE78
FE30
FE30
FE30
ENDCHAR
STARTCHAR 3380
ENCODING 10057
SWIDTH 1800 0
DWIDTH 18 0
BBX 13 12 2 -2
BITMAP
00C0
00E0
00E0
F9A0
F5B0
E5F0
E5F0
E330
FF18
FB18
E000
E000
ENDCHAR
STARTCHAR 3381
ENCODING 10058
SWIDTH 1800 0
DWIDTH 18 0
BBX 15 10 0 0
BITMAP
0038
0038
DC3C
FE6C
EE6C
EE7C
EE7E
EEC6
EEC6
EE86
ENDCHAR
STARTCHAR 3382
ENCODING 10059
SWIDTH 1800 0
DWIDTH 18 0
BBX 16 12 0 -2
BITMAP
001C
001C
001C
1934
1B36
133E
367E
3766
7FE3
7F63
C000
C000
ENDCHAR
STARTCHAR 3383
ENCODING 10060
SWIDTH 1800 0
DWIDTH 18 0
BBX 17 10 -1 0
BITMAP
000C00
001C00
F21E00
FF1E00
EF1600
EF3200
EF3F00
EF3300
EF6300
EF6180
ENDCHAR
STARTCHAR 3384
ENCODING 10061
SWIDTH 1800 0
DWIDTH 18 0
BBX 15 11 1 0
BITMAP
C000
C070
C070
C078
D858
F0D8
F0C8
F0FC
F98C
F98C
ED86
ENDCHAR
STARTCHAR 33BA
ENCODING 10062
SWIDTH 1800 0
DWIDTH 18 0
BBX 14 13 1 -2
BITMAP
066C
026C
026C
0368
FBE8
F5E8
E5F8
E5F8
E5F0
FDB0
F8B0
C000
C000
ENDCHAR
STARTCHAR 33BB
ENCODING 10063
SWIDTH 1800 0
DWIDTH 18 0
BBX 17 11 -1 0
BITMAP
031180
011900
019900
C9BB00
FEBB00
EEBF00
EEEE00
EEEE00
EE6600
EE6600
EE6600
ENDCHAR
STARTCHAR 33BC
ENCODING 10064
SWIDTH 1800 0
DWIDTH 18 0
BBX 16 12 0 -2
BITMAP
0093
009A
00DA
1BFE
1B7E
366C
366C
246C
6F6C
7E2C
4000
C000
ENDCHAR
STARTCHAR 33BD
ENCODING 10065
SWIDTH 1800 0
DWIDTH 18 0
BBX 16 11 -1 0
BITMAP
0099
00D9
00DB
C0DF
FF5F
EF5F
EF56
EF76
EF76
EF36
EF26
ENDCHAR
STARTCHAR 33BE
ENCODING 10066
SWIDTH 1800 0
DWIDTH 18 0
BBX 14 11 1 0
BITMAP
E26C
E26C
E36C
E36C
EF6C
F978
F9F8
E9F8
EDD8
E798
E698
ENDCHAR
STARTCHAR 33BF
ENCODING 10067
SWIDTH 1800 0
DWIDTH 18 0
BBX 17 10 -1 0
BITMAP
E3CD80
E3CD00
F75D00
F75D00
F77D00
F77F00
F73700
FF3700
EF3700
EB3200
ENDCHAR
STARTCHAR 3390
ENCODING 10068
SWIDTH 1800 0
DWIDTH 18 0
BBX 14 10 1 0
BITMAP
FC00
FC00
FDFC
FDF8
FC18
FC30
FC60
FC60
FCFC
FDFC
ENDCHAR
STARTCHAR 3391
ENCODING 10069
SWIDTH 1800 0
DWIDTH 18 0
BBX 16 10 0 0
BITMAP
C640
C640
C640
D65F
F7C6
E646
E64C
F64C
D658
DE5F
ENDCHAR
STARTCHAR 3392
ENCODING 10070
SWIDTH 1800 0
DWIDTH 18 0
BBX 16 10 0 0
BITMAP
C6E0
CEE0
CEE0
EFEF
EFE2
FEE6
F6E6
F6EC
F6EC
F6EF
ENDCHAR
STARTCHAR 3393
ENCODING 10071
SWIDTH 1800 0
DWIDTH 18 0
BBX 16 11 0 0
BITMAP
1800
7FF0
E7F0
E7F0
E3FE
E3F6
FFF6
FBF4
FBFC
FBF8
7BFF
ENDCHAR
STARTCHAR 3394
ENCODING 10072
SWIDTH 1800 0
DWIDTH 18 0
BBX 16 10 0 0
BITMAP
F9C0
29C0
29C0
29DF
2FC6
29C6
29CC
29CC
29D8
29DF
ENDCHAR
STARTCHAR 2126
ENCODING 10073
SWIDTH 1800 0
DWIDTH 18 0
BBX 12 11 2 0
BITMAP
0F00
1FC0
30C0
6060
6060
6060
70E0
3FC0
CF30
CF30
FFF0
ENDCHAR
STARTCHAR 33C0
ENCODING 10074
SWIDTH 1800 0
DWIDTH 18 0
BBX 16 11 0 0
BITMAP
C038
C0FE
C0C6
C183
DD83
F983
F0C6
F86C
CDEB
CDEB
C7EF
ENDCHAR
STARTCHAR 33C1
ENCODING 10075
SWIDTH 1800 0
DWIDTH 18 0
BBX 16 11 0 0
BITMAP
C338
C3FE
E7C6
E783
E783
E783
FFCE
FF6C
FFAB
FFAB
FFEF
ENDCHAR
STARTCHAR 338A
ENCODING 10076
SWIDTH 1800 0
DWIDTH 18 0
BBX 14 12 2 -2
BITMAP
01FC
01C0
01C0
F1C0
F9F8
1DC0
1DC0
1DC0
BDC0
F9C0
E000
E000
ENDCHAR
STARTCHAR 338B
ENCODING 10077
SWIDTH 1800 0
DWIDTH 18 0
BBX 16 10 0 0
BITMAP
007F
0070
0070
FF7E
F7FE
E3F0
E3F0
E3F0
E3F0
E3F0
ENDCHAR
STARTCHAR 338C
ENCODING 10078
SWIDTH 1800 0
DWIDTH 18 0
BBX 15 13 0 -2
BITMAP
00FE
00FE
00E0
0DE0
09FC
1BFC
1BE0
36E0
37E0
7FE0
7FE0
6000
C000
ENDCHAR
STARTCHAR 33D6
ENCODING 10079
SWIDTH 1800 0
DWIDTH 18 0
BBX 17 11 -1 0
BITMAP
000180
000180
000180
C20180
FFFF80
EFEF80
EFC780
EFC780
EFC780
EFFF80
EFFD80
ENDCHAR
STARTCHAR 33C5
ENCODING 10080
SWIDTH 1800 0
DWIDTH 18 0
BBX 16 11 0 0
BITMAP
0007
0007
0007
007F
3CFF
67C7
E1C7
E1C7
E7CF
7EFF
3C7F
ENDCHAR
STARTCHAR 33AD
ENCODING 10081
SWIDTH 1800 0
DWIDTH 18 0
BBX 17 11 0 0
BITMAP
000380
000380
000380
000380
FBBF80
E6F380
C3F380
C7F380
C4F380
C7FF80
C7FF80
ENDCHAR
STARTCHAR 33AE
ENCODING 10082
SWIDTH 1800 0
DWIDTH 18 0
BBX 16 13 0 -2
BITMAP
0001
0063
FEE2
F7E6
FFE4
FFEC
EE78
0016
003F
002E
006B
004E
00C0
ENDCHAR
STARTCHAR 33AF
ENCODING 10083
SWIDTH 1800 0
DWIDTH 18 0
BBX 16 13 0 -2
BITMAP
0042
0C46
FDC4
DDCC
DD4F
DFDA
C073
002C
006E
004C
00DE
008E
0180
ENDCHAR
STARTCHAR 33DB
ENCODING 10084
SWIDTH 1800 0
DWIDTH 18 0
BBX 12 7 3 0
BITMAP
F3F0
9BE0
E380
7380
1B80
FB80
F380
ENDCHAR
STARTCHAR 33A9
ENCODING 10085
SWIDTH 1800 0
DWIDTH 18 0
BBX 14 11 2 0
BITMAP
FC00
E600
E300
E3C0
E7F8
FF38
E1F8
E338
E338
E378
E1FC
ENDCHAR
STARTCHAR 33AA
ENCODING 10086
SWIDTH 1800 0
DWIDTH 18 0
BBX 17 11 -1 0
BITMAP
C1C000
C1F000
C1F000
E1F000
F9FE00
F1F700
E1DF00
F1FF00
F1F700
F9F780
F9DF80
ENDCHAR
STARTCHAR 33AB
ENCODING 10087
SWIDTH 1800 0
DWIDTH 18 0
BBX 16 10 0 0
BITMAP
CFC0
CF60
CF20
DF6C
FFFE
FFC6
FF1E
FF16
FF1E
FF1F
ENDCHAR
STARTCHAR 33AC
ENCODING 10088
SWIDTH 1800 0
DWIDTH 18 0
BBX 16 12 0 -1
BITMAP
23C0
FBE0
DBE0
DBE0
C3FC
DFD6
DF8E
CBBE
CBAE
DBAF
FB9F
7800
ENDCHAR
STARTCHAR 33DD
ENCODING 10089
SWIDTH 1800 0
DWIDTH 18 0
BBX 17 11 0 0
BITMAP
00E000
CDE000
DDE000
5DE000
7FFE00
7FE700
77E380
77E380
37E380
36FF00
36FE00
ENDCHAR
STARTCHAR 33D0
ENCODING 10090
SWIDTH 1800 0
DWIDTH 18 0
BBX 12 11 3 0
BITMAP
E000
E000
E000
FA60
FFF0
FFF0
FFF0
FFF0
FFF0
FFF0
FFF0
ENDCHAR
STARTCHAR 33D3
ENCODING 10091
SWIDTH 1800 0
DWIDTH 18 0
BBX 10 11 3 0
BITMAP
E000
E000
E000
E000
F9C0
ED80
E700
E700
EF00
FD80
F8C0
ENDCHAR
STARTCHAR 33C3
ENCODING 10092
SWIDTH 1800 0
DWIDTH 18 0
BBX 15 13 0 -2
BITMAP
F800
FE00
E700
E700
E73E
FE7A
EF72
E772
E772
FF7A
FE3E
000E
000E
ENDCHAR
STARTCHAR 33C9
ENCODING 10093
SWIDTH 1800 0
DWIDTH 18 0
BBX 14 14 1 -2
BITMAP
3800
7C00
6E00
EE00
EE00
E0CC
FF4C
FF68
EE78
6E38
7E30
3E30
0070
0060
ENDCHAR
STARTCHAR 33DC
ENCODING 10094
SWIDTH 1800 0
DWIDTH 18 0
BBX 14 11 1 0
BITMAP
3800
7C00
C600
C000
E08C
3CCC
06D8
0378
0378
6630
3C30
ENDCHAR
STARTCHAR 33C6
ENCODING 10095
SWIDTH 1800 0
DWIDTH 18 0
BBX 16 12 0 -2
BITMAP
0780
F580
D580
C5E7
C5CF
C5DA
C5CE
D5CC
F5EE
6DFB
0C1F
0006
ENDCHAR
STARTCHAR 00C6
ENCODING 10273
SWIDTH 1800 0
DWIDTH 18 0
BBX 12 11 2 0
BITMAP
07F0
0FF0
0F00
1F00
1BF0
3BF0
3F00
3300
6300
63F0
E3F0
ENDCHAR
STARTCHAR 00D0
ENCODING 10274
SWIDTH 1800 0
DWIDTH 18 0
BBX 11 11 3 0
BITMAP
3F00
3FC0
39C0
38E0
FEE0
FEE0
38E0
38E0
39C0
3FC0
3F00
ENDCHAR
STARTCHAR 00AA
ENCODING 10275
SWIDTH 1800 0
DWIDTH 18 0
BBX 9 9 4 0
BITMAP
3C00
3E00
1E00
7E00
6600
7F00
1000
FF80
FF80
ENDCHAR
STARTCHAR 0126
ENCODING 10276
SWIDTH 1800 0
DWIDTH 18 0
BBX 11 11 3 0
BITMAP
71C0
71C0
FFE0
FFE0
71C0
7FC0
7FC0
71C0
71C0
71C0
71C0
ENDCHAR
STARTCHAR 0132
ENCODING 10278
SWIDTH 1800 0
DWIDTH 18 0
BBX 9 13 4 -2
BITMAP
E180
E180
E180
E180
E180
E180
E180
E180
E180
E180
F980
1F80
0F00
ENDCHAR
STARTCHAR 013F
ENCODING 10280
SWIDTH 1800 0
DWIDTH 18 0
BBX 10 11 3 0
BITMAP
E000
E000
E000
E000
E0C0
E0C0
E000
E000
E000
FFC0
FFC0
ENDCHAR
STARTCHAR 0141
ENCODING 10281
SWIDTH 1800 0
DWIDTH 18 0
BBX 12 11 3 0
BITMAP
3800
3800
3F00
3F00
F800
F800
3800
3800
3800
3FF0
3FF0
ENDCHAR
STARTCHAR 00D8
ENCODING 10282
SWIDTH 1800 0
DWIDTH 18 0
BBX 11 10 3 0
BITMAP
00E0
3FC0
7BC0
E3E0
E6E0
ECE0
F8E0
71C0
7F80
FE00
ENDCHAR
STARTCHAR 0152
ENCODING 10283
SWIDTH 1800 0
DWIDTH 18 0
BBX 12 11 2 0
BITMAP
0800
3FF0
73F0
E100
E080
E0F0
E0F0
E180
F100
7FF0
3FF0
ENDCHAR
STARTCHAR 00BA
ENCODING 10284
SWIDTH 1800 0
DWIDTH 18 0
BBX 7 8 5 0
BITMAP
38
7C
6C
6C
7C
10
FE
FE
ENDCHAR
STARTCHAR 00DE
ENCODING 10285
SWIDTH 1800 0
DWIDTH 18 0
BBX 10 11 3 -1
BITMAP
E000
FE00
FF80
E3C0
E1C0
E1C0
E1C0
E7C0
FF80
F000
E000
ENDCHAR
STARTCHAR 0166
ENCODING 10286
SWIDTH 1800 0
DWIDTH 18 0
BBX 11 11 3 0
BITMAP
FFE0
FFE0
0E00
0E00
0E00
7FC0
0600
0600
0E00
0E00
0E00
ENDCHAR
STARTCHAR 014A
ENCODING 10287
SWIDTH 1800 0
DWIDTH 18 0
BBX 9 11 4 0
BITMAP
E000
E000
E000
EC00
FF00
F300
E380
E380
E300
EF00
E600
ENDCHAR
STARTCHAR 3260
ENCODING 10289
SWIDTH 1800 0
DWIDTH 18 0
BBX 16 15 -1 -3
BITMAP
03F0
0FFC
3C0F
7FFF
77FB
E039
E039
E039
E039
E039
703B
7807
3C0F
0FFC
03F0
ENDCHAR
STARTCHAR 3261
ENCODING 10290
SWIDTH 1800 0
DWIDTH 18 0
BBX 16 15 -1 -3
BITMAP
03F0
0FFC
3C0F
7F07
7703
E701
E701
E701
E701
E7FD
73FF
7807
3C0F
0FFC
03F0
ENDCHAR
STARTCHAR 3262
ENCODING 10291
SWIDTH 1800 0
DWIDTH 18 0
BBX 16 15 -1 -3
BITMAP
03F0
0FFC
3C0F
7FFF
77FB
E701
E701
E701
E701
E701
77FB
7FFF
3C0F
0FFC
03F0
ENDCHAR
STARTCHAR 3263
ENCODING 10292
SWIDTH 1800 0
DWIDTH 18 0
BBX 16 15 -1 -3
BITMAP
03F0
0FFC
3C0F
7FFF
7FFB
E039
E7F9
E7F9
E701
E7FD
77FF
7807
3C0F
0FFC
03F0
ENDCHAR
STARTCHAR 3264
ENCODING 10293
SWIDTH 1800 0
DWIDTH 18 0
BBX 16 15 -1 -3
BITMAP
03F0
0FFC
3C0F
7FFF
77FB
E739
E739
E739
E739
E7F9
77FB
7807
3C1F
0FFC
03F0
ENDCHAR
STARTCHAR 3265
ENCODING 10294
SWIDTH 1800 0
DWIDTH 18 0
BBX 16 15 -1 -3
BITMAP
03F0
0FFC
3C0F
7F3F
773B
E7F9
E7F9
E739
E739
E739
77FB
7FFF
3C0F
0FFC
03F0
ENDCHAR
STARTCHAR 3266
ENCODING 10295
SWIDTH 1800 0
DWIDTH 18 0
BBX 16 15 -1 -3
BITMAP
03F0
0FFC
3C0F
78E7
70E3
E0E1
E0E1
E0E1
E1F1
E7FD
771F
7807
3C0F
0FFC
03F0
ENDCHAR
STARTCHAR 3267
ENCODING 10296
SWIDTH 1800 0
DWIDTH 18 0
BBX 16 15 -1 -3
BITMAP
03F0
0FFC
3C1F
79F7
77FB
EF3D
EE1D
EE1D
EE1D
EF3D
77FB
7BE7
3C1F
0FFC
03F0
ENDCHAR
STARTCHAR 3268
ENCODING 10297
SWIDTH 1800 0
DWIDTH 18 0
BBX 16 14 -1 -2
BITMAP
03F0
1FFE
3C1F
7FFF
7FFB
E1C1
E1C1
E1C1
E1C1
E7F1
7F7B
3C17
1C0E
07F8
ENDCHAR
STARTCHAR 3269
ENCODING 10298
SWIDTH 1800 0
DWIDTH 18 0
BBX 16 15 -1 -3
BITMAP
03F0
0FFC
3C0F
78E7
77FF
E7FD
E0E1
E0E1
E0E1
E1F1
77FF
7F1F
3C1F
0FFC
03F0
ENDCHAR
STARTCHAR 326A
ENCODING 10299
SWIDTH 1800 0
DWIDTH 18 0
BBX 16 15 -1 -3
BITMAP
03F0
0FFC
3C0F
7FFF
77FB
E039
E039
E7F9
E7F9
E039
703B
783F
3C0F
0FFC
03F0
ENDCHAR
STARTCHAR 326B
ENCODING 10300
SWIDTH 1800 0
DWIDTH 18 0
BBX 16 15 -1 -3
BITMAP
03F0
0FFC
3C1F
7FFF
77FB
E701
E7F9
E7F9
E701
E701
77FB
7FFF
3C0F
0FFC
03F0
ENDCHAR
STARTCHAR 326C
ENCODING 10301
SWIDTH 1800 0
DWIDTH 18 0
BBX 16 15 -1 -3
BITMAP
03F0
0FFC
3C0F
7FFF
77FB
E3F1
E3F1
E3F1
E3F1
E7F9
77FB
7807
3C0F
0FFC
03F0
ENDCHAR
STARTCHAR 326D
ENCODING 10302
SWIDTH 1800 0
DWIDTH 18 0
BBX 16 15 -1 -3
BITMAP
03F0
0FFC
3E0F
78E3
77FF
E7FD
E3B9
E71D
E71D
E71D
73FB
79F7
3C1F
0FFC
03F0
ENDCHAR
STARTCHAR 326E
ENCODING 10303
SWIDTH 1800 0
DWIDTH 18 0
BBX 16 15 -1 -3
BITMAP
03F0
0FFC
3C0F
7FFF
7FFB
E1F9
E1FD
E1FD
E3B9
EF39
743B
783F
3C1F
0FFC
03F0
ENDCHAR
STARTCHAR 326F
ENCODING 10304
SWIDTH 1800 0
DWIDTH 18 0
BBX 16 15 -1 -3
BITMAP
03F0
0FFC
3C3F
7E3F
7E3B
EE39
EE3D
EE3D
EFF9
EFF9
703B
783F
3C0F
0FFC
03F0
ENDCHAR
STARTCHAR 3270
ENCODING 10305
SWIDTH 1800 0
DWIDTH 18 0
BBX 16 15 -1 -3
BITMAP
03F0
0FFC
3C0F
7FFF
7FFB
EE39
EE3F
EE3F
EE39
EFF9
7FFB
783F
3C0F
0FFC
03F0
ENDCHAR
STARTCHAR 3271
ENCODING 10306
SWIDTH 1800 0
DWIDTH 18 0
BBX 16 14 -1 -2
BITMAP
03F0
1FFE
3C0F
7FFB
7FFB
E1F9
EFFD
EFFD
EE39
FFFB
7FFB
3C3F
1FFE
07F8
ENDCHAR
STARTCHAR 3272
ENCODING 10307
SWIDTH 1800 0
DWIDTH 18 0
BBX 16 15 -1 -3
BITMAP
03F0
0FFC
3C0F
7FFF
7FFB
EFF9
EFFD
EFFD
EFF9
EFF9
703B
7807
3C0F
0FFC
03F0
ENDCHAR
STARTCHAR 3273
ENCODING 10308
SWIDTH 1800 0
DWIDTH 18 0
BBX 16 15 -1 -3
BITMAP
07F0
1FFC
3C1E
7FFF
7FFF
EFFB
EFFF
EFFF
EFFB
EFFB
7FFF
783F
3C1E
1FFC
07F0
ENDCHAR
STARTCHAR 3274
ENCODING 10309
SWIDTH 1800 0
DWIDTH 18 0
BBX 16 14 1 -2
BITMAP
07E0
0FF8
107C
2E7E
4E7F
8E77
8E7F
8E7F
BF77
BBF7
407E
207C
1038
0FF0
ENDCHAR
STARTCHAR 3275
ENCODING 10310
SWIDTH 1800 0
DWIDTH 18 0
BBX 16 14 -1 -2
BITMAP
07F0
1FFC
3C1E
7B97
77DF
EEFB
EEFF
EEFF
EEFB
E7DB
701F
3016
1C1C
07F0
ENDCHAR
STARTCHAR 3276
ENCODING 10311
SWIDTH 1800 0
DWIDTH 18 0
BBX 16 15 -1 -3
BITMAP
07F0
1FFC
3C1E
7FF7
7FFF
E39B
E39F
E39F
E7DB
EEFB
701F
7817
3C1E
1FFC
07F0
ENDCHAR
STARTCHAR 3277
ENCODING 10312
SWIDTH 1800 0
DWIDTH 18 0
BBX 16 14 -1 -2
BITMAP
07F0
1FFC
3C1E
7BB7
7FFF
EFFB
E3BF
E3BF
E7FB
EFFB
7C3F
3036
1C1C
07F0
ENDCHAR
STARTCHAR 3278
ENCODING 10313
SWIDTH 1800 0
DWIDTH 18 0
BBX 16 14 -1 -2
BITMAP
07F0
1FFC
3C1E
7FF7
77FF
E7FB
E7FF
E0FB
E3BB
E73B
743F
3036
1C1C
0FF0
ENDCHAR
STARTCHAR 3279
ENCODING 10314
SWIDTH 1800 0
DWIDTH 18 0
BBX 16 15 1 -3
BITMAP
07E0
0FF8
107C
3FFE
7FEE
BFE7
BFF7
B8F7
BFE7
BFE7
40EE
20FE
103C
0FF8
03E0
ENDCHAR
STARTCHAR 327A
ENCODING 10315
SWIDTH 1800 0
DWIDTH 18 0
BBX 16 14 -1 -2
BITMAP
03F0
1FFE
3C0F
7FFF
7FFF
EEFD
EEFF
EEFF
FFFD
FFFD
701F
3807
1C0E
07F8
ENDCHAR
STARTCHAR 327B
ENCODING 10316
SWIDTH 1800 0
DWIDTH 18 0
BBX 16 14 -1 -3
BITMAP
07F0
1FFC
3F26
7FF7
7FFF
E6DB
ECDF
EEDB
E7DB
739F
7817
3C26
1FFC
07F0
ENDCHAR
STARTCHAR 24D0
ENCODING 10317
SWIDTH 1800 0
DWIDTH 18 0
BBX 16 15 -1 -3
BITMAP
03F0
0FFC
3C0F
7BF7
77F3
E031
E3F1
E731
E631
E7F9
73DB
7807
3C0F
0FFC
03F0
ENDCHAR
STARTCHAR 24D1
ENCODING 10318
SWIDTH 1800 0
DWIDTH 18 0
BBX 16 15 -1 -3
BITMAP
03F0
0FFC
3C0F
7F07
7703
E7F9
E7FD
E71D
E71D
E73D
77FB
7F67
3C1F
0FFC
03F0
ENDCHAR
STARTCHAR 24D2
ENCODING 10319
SWIDTH 1800 0
DWIDTH 18 0
BBX 16 15 -1 -3
BITMAP
03F0
0FFC
3C0F
78C7
73F3
E311
E601
E601
E619
E3B9
71F3
7807
3C0F
0FFC
03F0
ENDCHAR
STARTCHAR 24D3
ENCODING 10320
SWIDTH 1800 0
DWIDTH 18 0
BBX 16 15 -1 -3
BITMAP
03F0
0FFC
3C0F
783F
703B
E3F9
E7B9
E739
E739
E739
73FB
79FF
3C1F
0FFC
03F0
ENDCHAR
STARTCHAR 24D4
ENCODING 10321
SWIDTH 1800 0
DWIDTH 18 0
BBX 16 15 -1 -3
BITMAP
03F0
0FFC
3C0F
79E7
73F3
E619
E7F9
E7F9
E639
E3F1
71E3
7807
3C0F
0FFC
03F0
ENDCHAR
STARTCHAR 24D5
ENCODING 10322
SWIDTH 1800 0
DWIDTH 18 0
BBX 16 15 -1 -3
BITMAP
03F0
0FFC
3C2F
79E7
71C3
E1C1
E7F9
E1C1
E1C1
E1C1
71C3
79C7
3C0F
0FFC
03F0
ENDCHAR
STARTCHAR 24D6
ENCODING 10323
SWIDTH 1800 0
DWIDTH 18 0
BBX 16 15 -1 -3
BITMAP
03F0
0FFC
3C0F
79FF
73FB
E739
E739
E739
E3F9
E1F9
733B
7BF7
3DEF
0FFC
03F0
ENDCHAR
STARTCHAR 24D7
ENCODING 10324
SWIDTH 1800 0
DWIDTH 18 0
BBX 16 15 -1 -3
BITMAP
03F0
0FFC
3C0F
7F07
7703
E7F1
E7F9
E739
E739
E739
773B
7807
3C1F
0FFC
03F0
ENDCHAR
STARTCHAR 24D8
ENCODING 10325
SWIDTH 1800 0
DWIDTH 18 0
BBX 16 15 -1 -3
BITMAP
03F0
0FFC
3CCF
78C7
70C3
E0E1
E0E1
E0E1
E0E1
E0E1
70E3
78E7
3C0F
0FFC
03F0
ENDCHAR
STARTCHAR 24D9
ENCODING 10326
SWIDTH 1800 0
DWIDTH 18 0
BBX 16 15 1 -3
BITMAP
07E0
0FF8
11FC
219E
400E
8187
81C7
81C7
81C7
81C7
41CE
279E
103C
0FF8
03E0
ENDCHAR
STARTCHAR 24DA
ENCODING 10327
SWIDTH 1800 0
DWIDTH 18 0
BBX 16 15 -1 -3
BITMAP
03F0
0FFC
3C0F
7F07
7703
E739
E7F1
E7E1
E7F1
E731
771B
7807
3C0F
0FFE
03F0
ENDCHAR
STARTCHAR 24DB
ENCODING 10328
SWIDTH 1800 0
DWIDTH 18 0
BBX 16 15 -1 -3
BITMAP
03F0
0FFC
3C1F
78E7
70E3
E0E1
E0E1
E0E1
E0E1
E0E1
70E3
7807
3C0F
0FFC
03F0
ENDCHAR
STARTCHAR 24DC
ENCODING 10329
SWIDTH 1800 0
DWIDTH 18 0
BBX 16 15 -1 -3
BITMAP
03F0
0FFC
3C0F
7807
7FFB
EFFD
EEFD
EEFD
EEFD
EEFD
7EFF
7807
3C0F
0FFC
03F0
ENDCHAR
STARTCHAR 24DD
ENCODING 10330
SWIDTH 1800 0
DWIDTH 18 0
BBX 16 15 -1 -3
BITMAP
03F0
0FFC
3C0F
7807
77F3
E739
E739
E739
E739
E739
773B
7807
3C0F
0FFC
03F0
ENDCHAR
STARTCHAR 24DE
ENCODING 10331
SWIDTH 1800 0
DWIDTH 18 0
BBX 16 15 -1 -3
BITMAP
03F0
0FFC
3C0F
79F7
77FF
E71F
EE0F
EE0F
EE0F
EF1D
77FF
79F7
3C0F
0FFC
03F0
ENDCHAR
STARTCHAR 24DF
ENCODING 10332
SWIDTH 1800 0
DWIDTH 18 0
BBX 16 15 -1 -3
BITMAP
03F0
0FFC
3C0F
7BF7
73FB
E3B9
E3B9
E3B9
E3F9
E3F1
7383
7B87
3C0F
0FFC
03F0
ENDCHAR
STARTCHAR 24E0
ENCODING 10333
SWIDTH 1800 0
DWIDTH 18 0
BBX 16 15 -1 -3
BITMAP
03F0
0FFC
3C0F
7BFF
767B
E639
E639
E639
E7F9
E1B9
703B
783F
3C0F
0FFC
03F0
ENDCHAR
STARTCHAR 24E1
ENCODING 10334
SWIDTH 1800 0
DWIDTH 18 0
BBX 16 15 -1 -3
BITMAP
03F0
0FFC
3C0F
7B87
73FF
E3CD
E381
E381
E381
E381
7383
7807
3C0F
0FFC
03F0
ENDCHAR
STARTCHAR 24E2
ENCODING 10335
SWIDTH 1800 0
DWIDTH 18 0
BBX 16 15 1 -3
BITMAP
07E0
0FF8
107C
279E
4FCE
8CE7
8F07
87C7
98C7
8CC7
4FCE
231E
107C
0FF8
07E0
ENDCHAR
STARTCHAR 24E3
ENCODING 10336
SWIDTH 1800 0
DWIDTH 18 0
BBX 16 15 -1 -3
BITMAP
03F0
0FFC
3C0F
79C7
71C3
E7F1
E7F1
E1C1
E1C1
E1C1
71DB
79F7
3C4F
0FFC
03F0
ENDCHAR
STARTCHAR 24E4
ENCODING 10337
SWIDTH 1800 0
DWIDTH 18 0
BBX 16 15 -1 -3
BITMAP
03F0
0FFC
3C0F
7807
773B
E739
E739
E739
E739
E7F9
73FB
7807
3C0F
0FFC
03F0
ENDCHAR
STARTCHAR 24E5
ENCODING 10338
SWIDTH 1800 0
DWIDTH 18 0
BBX 16 15 -1 -3
BITMAP
03F0
0FFC
3C0F
7807
7E1F
E619
E739
E331
E3F1
E1E1
71C3
78C7
3C0F
0FFC
03F0
ENDCHAR
STARTCHAR 24E6
ENCODING 10339
SWIDTH 1800 0
DWIDTH 18 0
BBX 16 15 1 -3
BITMAP
07E0
0FF8
107C
201E
5B3E
9B67
9BE7
9BE7
8FE7
8EC7
4ECE
26DE
107C
0FF8
03E0
ENDCHAR
STARTCHAR 24E7
ENCODING 10340
SWIDTH 1800 0
DWIDTH 18 0
BBX 16 15 -1 -3
BITMAP
03F0
0FFC
3B27
7F3F
73F3
E1E1
E1E1
E0E1
E1E1
E1E1
73F3
7B37
3F2F
0FFC
03F0
ENDCHAR
STARTCHAR 24E8
ENCODING 10341
SWIDTH 1800 0
DWIDTH 18 0
BBX 16 15 -1 -3
BITMAP
03F0
0FFC
3C0F
7F1F
733B
E1B1
E1F1
E0E1
E061
E0C1
77C3
7B87
3C0F
0FFC
03F0
ENDCHAR
STARTCHAR 24E9
ENCODING 10342
SWIDTH 1800 0
DWIDTH 18 0
BBX 16 15 -1 -3
BITMAP
03F0
0FFC
3C0F
7FFF
77FB
E039
E061
E0C1
E181
E301
77FB
7FFF
3C0F
0FFC
03F0
ENDCHAR
STARTCHAR 2460
ENCODING 10343
SWIDTH 1800 0
DWIDTH 18 0
BBX 16 15 -1 -3
BITMAP
03F0
0FFC
3CEF
79E7
73E3
E2E1
E0E1
E0E1
E0E1
E0E1
70E3
78E7
3C0F
0FFC
03F0
ENDCHAR
STARTCHAR 2461
ENCODING 10344
SWIDTH 1800 0
DWIDTH 18 0
BBX 16 15 -1 -3
BITMAP
03F0
0FFC
3DEF
7BF7
7233
E071
E0E1
E1C1
E381
E3F1
77F3
7807
3C0F
0FFC
03F0
ENDCHAR
STARTCHAR 2462
ENCODING 10345
SWIDTH 1800 0
DWIDTH 18 0
BBX 16 15 -1 -3
BITMAP
03F0
0FFC
3C4F
79F7
7333
E031
E0F1
E0F9
E019
E339
73F3
79E7
3C0F
0FFC
03F0
ENDCHAR
STARTCHAR 2463
ENCODING 10346
SWIDTH 1800 0
DWIDTH 18 0
BBX 16 15 -1 -3
BITMAP
03F0
0FFC
3C0F
78E7
71E3
E3E1
E761
E6E1
EFF9
EFF9
70E3
78E7
3C0F
0FFC
03F0
ENDCHAR
STARTCHAR 2464
ENCODING 10347
SWIDTH 1800 0
DWIDTH 18 0
BBX 16 15 -1 -3
BITMAP
03F0
0FFC
3C0F
7BF7
73F3
E301
E3F1
E331
E019
E319
73F3
79E7
3C0F
0FFC
03F0
ENDCHAR
STARTCHAR 2465
ENCODING 10348
SWIDTH 1800 0
DWIDTH 18 0
BBX 16 15 -1 -3
BITMAP
03F0
0FFC
3C0F
7837
70F3
E0C1
E1F1
E3F9
E239
E339
71F3
78E7
3C0F
0FFC
03F0
ENDCHAR
STARTCHAR 2466
ENCODING 10349
SWIDTH 1800 0
DWIDTH 18 0
BBX 16 15 -1 -3
BITMAP
03F0
0FFC
3C0F
7FFF
77FB
E039
E031
E071
E071
E061
70E3
78E7
3C0F
0FFC
03F0
ENDCHAR
STARTCHAR 2467
ENCODING 10350
SWIDTH 1800 0
DWIDTH 18 0
BBX 16 14 -1 -2
BITMAP
03F0
1FFE
3E1F
79E7
73F3
E331
E1F1
E3F1
E331
E331
73F3
38E7
1C0E
07F8
ENDCHAR
STARTCHAR 2468
ENCODING 10351
SWIDTH 1800 0
DWIDTH 18 0
BBX 16 15 -1 -3
BITMAP
03F0
0FFC
3C0F
79E7
73F3
E331
E3F1
E1F1
E031
E331
71F3
7847
3C0F
0FFC
03F0
ENDCHAR
STARTCHAR 2469
ENCODING 10352
SWIDTH 1800 0
DWIDTH 18 0
BBX 16 15 -1 -3
BITMAP
03F0
0FFC
3C1F
7F77
7F7B
EFFD
E7FD
E7FD
E7FD
E7FD
777B
7837
3C0F
0FFC
03F0
ENDCHAR
STARTCHAR 246A
ENCODING 10353
SWIDTH 1800 0
DWIDTH 18 0
BBX 16 15 -1 -3
BITMAP
03F0
0FFC
3C0F
7F3F
7F7B
EF79
E739
E739
E739
E739
773B
7807
3C0F
0FFC
03F0
ENDCHAR
STARTCHAR 246B
ENCODING 10354
SWIDTH 1800 0
DWIDTH 18 0
BBX 16 14 -1 -3
BITMAP
03F0
1FFE
3EFF
7FFF
7F9B
EE19
EE39
EE31
EE61
7EC3
79FF
3DF7
1FFE
03F0
ENDCHAR
STARTCHAR 246C
ENCODING 10355
SWIDTH 1800 0
DWIDTH 18 0
BBX 16 14 -1 -2
BITMAP
03F0
1FFE
3E1F
7F7F
7FFF
EF0D
E739
E73D
E70D
E7CD
77FF
3827
1C0E
07F8
ENDCHAR
STARTCHAR 246D
ENCODING 10356
SWIDTH 1800 0
DWIDTH 18 0
BBX 16 15 -1 -3
BITMAP
03F0
0FFC
3C0F
7F1F
7F3F
EF7D
E77D
E7FD
E7FF
E7FF
771F
781F
3C0F
0FFC
03F0
ENDCHAR
STARTCHAR 246E
ENCODING 10357
SWIDTH 1800 0
DWIDTH 18 0
BBX 16 14 -1 -3
BITMAP
03F0
0FFE
3AF7
76FF
7EC3
E6F9
E6CD
E60D
E60D
76CF
7EFB
3A77
1FFE
03F0
ENDCHAR
STARTCHAR 00BD
ENCODING 10358
SWIDTH 1800 0
DWIDTH 18 0
BBX 12 13 2 -2
BITMAP
0020
6060
E0C0
6180
6380
6700
6EC0
7DE0
1970
3060
60E0
C1F0
81F0
ENDCHAR
STARTCHAR 2153
ENCODING 10359
SWIDTH 1800 0
DWIDTH 18 0
BBX 14 14 1 -3
BITMAP
3800
7820
7870
3860
38C0
3980
3B78
06DC
0C78
1878
304C
70FC
E070
4000
ENDCHAR
STARTCHAR 2154
ENCODING 10360
SWIDTH 1800 0
DWIDTH 18 0
BBX 14 13 1 -2
BITMAP
7800
F830
1860
30E0
F9C0
FB80
0378
066C
0C3C
183C
304C
607C
C038
ENDCHAR
STARTCHAR 00BC
ENCODING 10361
SWIDTH 1800 0
DWIDTH 18 0
BBX 13 12 2 -2
BITMAP
7020
F060
70C0
7180
7300
7670
7EF0
1DF0
3970
33F8
63F8
C070
ENDCHAR
STARTCHAR 00BE
ENCODING 10362
SWIDTH 1800 0
DWIDTH 18 0
BBX 13 13 2 -2
BITMAP
0010
F030
9860
70C0
7980
9B00
FF60
6EE0
1CE0
3960
73F8
E3F8
C060
ENDCHAR
STARTCHAR 215B
ENCODING 10363
SWIDTH 1800 0
DWIDTH 18 0
BBX 14 13 1 -2
BITMAP
7000
F060
F0E0
70C0
7180
7330
76F8
0CCC
18F8
30FC
60CC
C0FC
C070
ENDCHAR
STARTCHAR 215C
ENCODING 10364
SWIDTH 1800 0
DWIDTH 18 0
BBX 15 13 1 -2
BITMAP
F800
D830
7860
78C0
D980
FB90
277C
0E6C
1C7C
387C
306E
607C
C038
ENDCHAR
STARTCHAR 215D
ENCODING 10365
SWIDTH 1800 0
DWIDTH 18 0
BBX 15 13 1 -2
BITMAP
F800
F810
F030
F860
1CC0
DD90
FB7C
266C
0C7C
187C
3866
707C
6038
ENDCHAR
STARTCHAR 215E
ENCODING 10366
SWIDTH 1800 0
DWIDTH 18 0
BBX 14 13 1 -2
BITMAP
7C00
0C30
1860
18E0
31C0
3380
377C
0E6C
0C7C
187C
30EC
607C
C038
ENDCHAR
STARTCHAR 00E6
ENCODING 10529
SWIDTH 1800 0
DWIDTH 18 0
BBX 11 8 3 0
BITMAP
7B80
FFC0
CC60
7FE0
FFE0
CC60
FFE0
7B80
ENDCHAR
STARTCHAR 0111
ENCODING 10530
SWIDTH 1800 0
DWIDTH 18 0
BBX 11 11 3 0
BITMAP
0380
0380
7FE0
0380
3F80
7F80
E380
E380
E380
7F80
3F80
ENDCHAR
STARTCHAR 00F0
ENCODING 10531
SWIDTH 1800 0
DWIDTH 18 0
BBX 9 11 4 0
BITMAP
0100
7F80
FF00
CF80
3980
0180
FF80
F180
C380
7F00
3E00
ENDCHAR
STARTCHAR 0127
ENCODING 10532
SWIDTH 1800 0
DWIDTH 18 0
BBX 10 11 3 0
BITMAP
3800
FFC0
FFC0
3800
3B80
3FC0
39C0
39C0
39C0
39C0
39C0
ENDCHAR
STARTCHAR 0131
ENCODING 10533
SWIDTH 1800 0
DWIDTH 18 0
BBX 3 11 7 0
BITMAP
E0
E0
E0
E0
E0
E0
E0
E0
E0
E0
E0
ENDCHAR
STARTCHAR 0133
ENCODING 10534
SWIDTH 1800 0
DWIDTH 18 0
BBX 9 13 4 -2
BITMAP
E300
C300
0000
E380
E380
E380
E380
E380
E380
E380
E380
0F80
0F00
ENDCHAR
STARTCHAR 0138
ENCODING 10535
SWIDTH 1800 0
DWIDTH 18 0
BBX 10 10 3 0
BITMAP
E000
E000
E3C0
E700
EE00
FC00
FE00
E700
E380
E1C0
ENDCHAR
STARTCHAR 0140
ENCODING 10536
SWIDTH 1800 0
DWIDTH 18 0
BBX 7 11 5 0
BITMAP
E0
E0
E0
E0
E6
EE
E4
E0
E0
E0
E0
ENDCHAR
STARTCHAR 0142
ENCODING 10537
SWIDTH 1800 0
DWIDTH 18 0
BBX 11 11 3 0
BITMAP
0E60
0EC0
0F80
0F80
0F00
0E00
1E00
3E00
3E00
6E00
CE00
ENDCHAR
STARTCHAR 00F8
ENCODING 10538
SWIDTH 1800 0
DWIDTH 18 0
BBX 11 14 3 -3
BITMAP
0180
0180
1F00
7F80
67C0
C6C0
CC60
CCE0
F8C0
79C0
7F80
3F00
6000
2000
ENDCHAR
STARTCHAR 0153
ENCODING 10539
SWIDTH 1800 0
DWIDTH 18 0
BBX 13 8 2 0
BITMAP
3FF0
6730
E710
E7F8
E700
E700
7FB0
3DE0
ENDCHAR
STARTCHAR 00DF
ENCODING 10540
SWIDTH 1800 0
DWIDTH 18 0
BBX 10 13 4 -2
BITMAP
7E00
FF00
F780
E380
E300
EF80
EFC0
E1C0
E1C0
FB80
DF00
C000
C000
ENDCHAR
STARTCHAR 00FE
ENCODING 10541
SWIDTH 1800 0
DWIDTH 18 0
BBX 9 11 4 -1
BITMAP
E000
E000
FE00
E300
E180
E180
E380
FF00
FE00
E000
E000
ENDCHAR
STARTCHAR 0167
ENCODING 10542
SWIDTH 1800 0
DWIDTH 18 0
BBX 9 12 4 -1
BITMAP
1C80
1F80
7E00
FC00
1C00
FF80
FF80
1C00
1C00
1C00
1D80
1F80
ENDCHAR
STARTCHAR 014B
ENCODING 10543
SWIDTH 1800 0
DWIDTH 18 0
BBX 7 9 5 -1
BITMAP
D0
FE
EE
EE
EE
EE
0E
5E
FC
ENDCHAR
STARTCHAR 0149
ENCODING 10544
SWIDTH 1800 0
DWIDTH 18 0
BBX 9 8 4 0
BITMAP
FF00
E380
E380
E380
E380
E380
E380
E380
ENDCHAR
STARTCHAR 3200
ENCODING 10545
SWIDTH 1800 0
DWIDTH 18 0
BBX 16 13 -1 -2
BITMAP
1806
3FFB
7FFB
6039
E039
E039
E039
E039
E03B
703B
3807
1C0E
0800
ENDCHAR
STARTCHAR 3201
ENCODING 10546
SWIDTH 1800 0
DWIDTH 18 0
BBX 17 13 0 -1
BITMAP
100000
300C00
6E0600
6E0700
4E0380
CE0380
CE0380
CE0380
4E0380
6FFF00
7FFF00
380E00
101C00
ENDCHAR
STARTCHAR 3202
ENCODING 10547
SWIDTH 1800 0
DWIDTH 18 0
BBX 16 12 -1 -1
BITMAP
1806
3803
77FB
67F9
E701
E701
E701
E701
77F9
77FB
3806
080E
ENDCHAR
STARTCHAR 3203
ENCODING 10548
SWIDTH 1800 0
DWIDTH 18 0
BBX 16 12 -1 -1
BITMAP
1806
3803
7FFB
6FF9
E039
E7F9
E7F9
E701
77FF
77FF
3806
080C
ENDCHAR
STARTCHAR 3204
ENCODING 10549
SWIDTH 1800 0
DWIDTH 18 0
BBX 16 13 -1 -1
BITMAP
1800
3806
7003
67FB
E7F9
E739
E739
E739
E739
773B
3FFB
3C07
080E
ENDCHAR
STARTCHAR 3205
ENCODING 10550
SWIDTH 1800 0
DWIDTH 18 0
BBX 16 12 -1 -1
BITMAP
1806
3F3B
773B
E739
E7F9
E7F9
E739
E739
77FB
77FB
3807
080E
ENDCHAR
STARTCHAR 3206
ENCODING 10551
SWIDTH 1800 0
DWIDTH 18 0
BBX 16 12 -1 -1
BITMAP
1806
38E3
70E3
60E1
E0E1
E0E1
E1F1
E3F9
77BF
720B
3807
080E
ENDCHAR
STARTCHAR 3207
ENCODING 10552
SWIDTH 1800 0
DWIDTH 18 0
BBX 16 12 -1 -1
BITMAP
1806
39F3
77FB
6F3D
EE1D
EE1D
EE1D
EF3D
77FB
73E3
3807
080E
ENDCHAR
STARTCHAR 3208
ENCODING 10553
SWIDTH 1800 0
DWIDTH 18 0
BBX 16 13 -1 -2
BITMAP
1806
3FFF
7FFB
61C1
E1C1
E1C1
E1C1
E7F1
EF79
741B
3807
1C0E
0804
ENDCHAR
STARTCHAR 3209
ENCODING 10554
SWIDTH 1800 0
DWIDTH 18 0
BBX 16 13 -1 -2
BITMAP
1806
38E3
77FF
67FD
E0E1
E0E1
E0E1
E3F1
E7BF
760F
3807
1C0E
0800
ENDCHAR
STARTCHAR 320A
ENCODING 10555
SWIDTH 1800 0
DWIDTH 18 0
BBX 16 13 -1 -2
BITMAP
1806
3FFB
77FB
6039
E039
E7F9
E7F9
E039
E03B
703B
383F
1C0E
0800
ENDCHAR
STARTCHAR 320B
ENCODING 10556
SWIDTH 1800 0
DWIDTH 18 0
BBX 16 12 -1 -1
BITMAP
1806
3FFB
77FB
6701
E7F9
E7F9
E701
E701
77FB
77FB
3807
080E
ENDCHAR
STARTCHAR 320C
ENCODING 10557
SWIDTH 1800 0
DWIDTH 18 0
BBX 16 12 -1 -1
BITMAP
1806
3803
7FFF
6FFD
E3F1
E3F1
E3F1
E3F1
7FFF
7FFF
3806
080C
ENDCHAR
STARTCHAR 320D
ENCODING 10558
SWIDTH 1800 0
DWIDTH 18 0
BBX 16 13 -1 -2
BITMAP
1806
3803
71C3
6FFD
EFFD
E739
EE1D
EE1D
EF3F
77FB
3BF7
1C0E
0800
ENDCHAR
STARTCHAR 320E
ENCODING 10559
SWIDTH 1800 0
DWIDTH 18 0
BBX 16 13 -1 -2
BITMAP
1806
3FFB
7FFB
61F9
E1FD
E1FD
E3B9
EF39
E43B
703B
383F
1C0E
0804
ENDCHAR
STARTCHAR 320F
ENCODING 10560
SWIDTH 1800 0
DWIDTH 18 0
BBX 16 13 -1 -2
BITMAP
1806
383B
7E3B
6E39
EE39
EE3D
EE3D
EFF9
EFFB
703B
383E
1C0E
0800
ENDCHAR
STARTCHAR 3210
ENCODING 10561
SWIDTH 1800 0
DWIDTH 18 0
BBX 16 13 -1 -2
BITMAP
1806
3FFB
7FFB
6E39
EE39
EE3F
EE3F
EFF9
EFFB
703B
383F
1C0E
0800
ENDCHAR
STARTCHAR 3211
ENCODING 10562
SWIDTH 1800 0
DWIDTH 18 0
BBX 16 13 -1 -2
BITMAP
1806
3FFB
7FFB
61F9
EFFD
EFFD
EE39
EFF9
EFFB
703B
383F
3C0E
0800
ENDCHAR
STARTCHAR 3212
ENCODING 10563
SWIDTH 1800 0
DWIDTH 18 0
BBX 16 13 -1 -2
BITMAP
183E
3FFB
77FB
66F9
E6FD
E6FD
E6F9
E7F9
E7FB
703B
3807
1C0E
0800
ENDCHAR
STARTCHAR 3213
ENCODING 10564
SWIDTH 1800 0
DWIDTH 18 0
BBX 17 13 0 -2
BITMAP
100C00
307600
7FF700
7FF380
5FFB80
DFFB80
DFF380
DFF380
5FF700
607700
707E00
381C00
100000
ENDCHAR
STARTCHAR 3214
ENCODING 10565
SWIDTH 1800 0
DWIDTH 18 0
BBX 16 13 -1 -2
BITMAP
1806
3B9F
739F
639D
E39F
E39F
E7DD
EEFD
E01F
701F
381F
1C0E
0800
ENDCHAR
STARTCHAR 3215
ENCODING 10566
SWIDTH 1800 0
DWIDTH 18 0
BBX 16 13 -1 -2
BITMAP
1806
3B9F
77DF
6EFD
EEFF
EEFF
EEFD
E7DD
E39F
701F
381F
3C0E
0800
ENDCHAR
STARTCHAR 3216
ENCODING 10567
SWIDTH 1800 0
DWIDTH 18 0
BBX 16 13 -1 -2
BITMAP
183E
3FFB
7FFB
63B9
E3BD
E3BD
E7F9
EEF9
EC7B
703B
383F
1C0E
0800
ENDCHAR
STARTCHAR 3217
ENCODING 10568
SWIDTH 1800 0
DWIDTH 18 0
BBX 16 13 -1 -2
BITMAP
183E
3BBB
7FFB
6FF9
E3BD
E3BD
E3B9
EFF9
ECF9
703B
383E
1C0E
0800
ENDCHAR
STARTCHAR 3218
ENCODING 10569
SWIDTH 1800 0
DWIDTH 18 0
BBX 16 13 -1 -2
BITMAP
1806
3FFB
77FB
60F9
E7FD
E7FD
E0F9
E3B9
E739
703B
383E
3C0E
0800
ENDCHAR
STARTCHAR 3219
ENCODING 10570
SWIDTH 1800 0
DWIDTH 18 0
BBX 16 13 -1 -2
BITMAP
1806
3FFB
7FFB
6E39
EFFD
EFFD
EE39
EFF9
EFFB
703B
383F
3C0E
0800
ENDCHAR
STARTCHAR 321A
ENCODING 10571
SWIDTH 1800 0
DWIDTH 18 0
BBX 16 13 -1 -2
BITMAP
1806
381F
7FFF
6FFD
E7DF
E7DF
E7DD
EFFD
EFFF
701F
381F
3C0E
0800
ENDCHAR
STARTCHAR 321B
ENCODING 10572
SWIDTH 1800 0
DWIDTH 18 0
BBX 16 13 -1 -2
BITMAP
1806
3BBB
7FFB
6FF9
E6F9
EEFD
EEF9
EFF9
E7FB
703B
383F
1C0E
0804
ENDCHAR
STARTCHAR 249C
ENCODING 10573
SWIDTH 1800 0
DWIDTH 18 0
BBX 16 12 -1 -1
BITMAP
1806
3883
77F3
6631
E1F1
E7F1
E631
E671
77FB
739B
3807
080E
ENDCHAR
STARTCHAR 249D
ENCODING 10574
SWIDTH 1800 0
DWIDTH 18 0
BBX 16 13 -1 -1
BITMAP
1800
3806
7703
6703
E7F1
E7F9
E71D
E71D
E71D
77BF
3FFB
1E06
080C
ENDCHAR
STARTCHAR 249E
ENCODING 10575
SWIDTH 1800 0
DWIDTH 18 0
BBX 16 12 -1 -1
BITMAP
1806
39F3
73FB
6711
E601
E601
E61D
E319
73FB
71E3
3807
080E
ENDCHAR
STARTCHAR 249F
ENCODING 10576
SWIDTH 1800 0
DWIDTH 18 0
BBX 16 13 -1 -1
BITMAP
1800
3806
703B
603B
E7F9
EFF9
FC39
FC39
FC39
7E7B
3FFB
1C36
080C
ENDCHAR
STARTCHAR 24A0
ENCODING 10577
SWIDTH 1800 0
DWIDTH 18 0
BBX 16 12 -1 -1
BITMAP
1806
3803
71E3
63F1
E619
E7F9
E7F9
E619
73FB
71E3
3807
080E
ENDCHAR
STARTCHAR 24A1
ENCODING 10578
SWIDTH 1800 0
DWIDTH 18 0
BBX 16 13 -1 -2
BITMAP
1826
38E3
71C3
61C1
E7F9
E7F9
E1C1
E1C1
E1C3
71C3
39C7
1C0E
0800
ENDCHAR
STARTCHAR 24A2
ENCODING 10579
SWIDTH 1800 0
DWIDTH 18 0
BBX 16 13 -1 -2
BITMAP
1806
3803
73FB
63F9
E739
E739
E739
E3F9
E1FB
733B
3BF7
1DEE
0800
ENDCHAR
STARTCHAR 24A3
ENCODING 10580
SWIDTH 1800 0
DWIDTH 18 0
BBX 16 13 -1 -1
BITMAP
1800
3806
7703
6703
E701
E7F9
E7F9
E719
E719
771B
3F1B
1C07
080E
ENDCHAR
STARTCHAR 24A4
ENCODING 10581
SWIDTH 1800 0
DWIDTH 18 0
BBX 17 13 0 -2
BITMAP
100C00
318600
61C700
608380
41C380
C1C380
C1C380
C1C380
61C700
61C700
71CE00
381C00
100000
ENDCHAR
STARTCHAR 24A5
ENCODING 10582
SWIDTH 1800 0
DWIDTH 18 0
BBX 16 12 -1 -1
BITMAP
1826
3873
7063
6001
E071
E071
E071
E071
7073
71F3
39E6
080C
ENDCHAR
STARTCHAR 24A6
ENCODING 10583
SWIDTH 1800 0
DWIDTH 18 0
BBX 17 13 0 -1
BITMAP
100000
300C00
6E0600
6E2700
4E7380
CEE380
CFC380
CFC380
4EE380
6E7700
7E3700
380E00
101C00
ENDCHAR
STARTCHAR 24A7
ENCODING 10584
SWIDTH 1800 0
DWIDTH 18 0
BBX 17 12 0 -1
BITMAP
100C00
300600
61C700
61C380
41C380
C1C380
C1C380
41C380
61C700
71C700
380E00
101C00
ENDCHAR
STARTCHAR 24A8
ENCODING 10585
SWIDTH 1800 0
DWIDTH 18 0
BBX 16 13 0 -1
BITMAP
1000
300C
6006
7A26
5FF3
D99B
D99B
D99B
599B
799E
7186
380C
1018
ENDCHAR
STARTCHAR 24A9
ENCODING 10586
SWIDTH 1800 0
DWIDTH 18 0
BBX 16 12 -1 -1
BITMAP
1806
3803
7003
67F9
E719
E719
E719
E719
771B
771B
3807
080E
ENDCHAR
STARTCHAR 24AA
ENCODING 10587
SWIDTH 1800 0
DWIDTH 18 0
BBX 16 12 -1 -1
BITMAP
1806
3803
71F3
67FD
E71F
EE0F
EE0F
EE0F
7F1F
77FF
39F7
080E
ENDCHAR
STARTCHAR 24AB
ENCODING 10588
SWIDTH 1800 0
DWIDTH 18 0
BBX 16 13 -1 -2
BITMAP
1806
3803
73FB
63FD
E39D
E39D
E39D
E3FD
E3FB
7383
3B87
1C0E
0800
ENDCHAR
STARTCHAR 24AC
ENCODING 10589
SWIDTH 1800 0
DWIDTH 18 0
BBX 16 13 -1 -2
BITMAP
1806
3BFB
77FB
6E39
EE39
EE39
EF39
E7F9
E1BB
703B
383F
1C0E
0800
ENDCHAR
STARTCHAR 24AD
ENCODING 10590
SWIDTH 1800 0
DWIDTH 18 0
BBX 16 13 -1 -2
BITMAP
1806
3803
73BB
63FD
E3CF
E381
E381
E381
E383
7383
3B87
1C0E
0800
ENDCHAR
STARTCHAR 24AE
ENCODING 10591
SWIDTH 1800 0
DWIDTH 18 0
BBX 16 12 -1 -1
BITMAP
1806
3803
71F3
63F9
E311
E3E1
E1F1
E739
73BB
73F3
38C6
080C
ENDCHAR
STARTCHAR 24AF
ENCODING 10592
SWIDTH 1800 0
DWIDTH 18 0
BBX 16 13 -1 -2
BITMAP
19C6
39C3
71C3
67F1
E7F1
E1C1
E1C1
E1C1
E1DB
71FB
38E7
3C0E
0800
ENDCHAR
STARTCHAR 24B0
ENCODING 10593
SWIDTH 1800 0
DWIDTH 18 0
BBX 16 12 -1 -1
BITMAP
1806
3003
773B
E739
E739
E739
E739
E739
77FB
71DB
3807
1C0E
ENDCHAR
STARTCHAR 24B1
ENCODING 10594
SWIDTH 1800 0
DWIDTH 18 0
BBX 16 12 -1 -1
BITMAP
1806
3803
7003
6E1D
E619
E739
E331
E3F1
71E3
71E3
38C7
080E
ENDCHAR
STARTCHAR 24B2
ENCODING 10595
SWIDTH 1800 0
DWIDTH 18 0
BBX 16 12 -1 -1
BITMAP
1806
3803
7003
6CCD
E6ED
E6F9
E6F9
E3F9
73BB
73B3
3807
080E
ENDCHAR
STARTCHAR 24B3
ENCODING 10596
SWIDTH 1800 0
DWIDTH 18 0
BBX 16 12 -1 -1
BITMAP
1806
3803
771B
6339
E1F1
E1E1
E0E1
E1F1
73B3
773B
3807
080E
ENDCHAR
STARTCHAR 24B4
ENCODING 10597
SWIDTH 1800 0
DWIDTH 18 0
BBX 16 13 -1 -2
BITMAP
1806
3803
771F
6399
E1B9
E0F1
E0F1
E061
E2E3
77C3
3B87
3C0E
0800
ENDCHAR
STARTCHAR 24B5
ENCODING 10598
SWIDTH 1800 0
DWIDTH 18 0
BBX 16 12 -1 -1
BITMAP
1806
3803
77FB
67F9
E031
E0E1
E1C1
E381
77FB
77FB
3806
080C
ENDCHAR
STARTCHAR 2474
ENCODING 10599
SWIDTH 1800 0
DWIDTH 18 0
BBX 16 12 -1 -1
BITMAP
1806
38E3
71E3
63E1
E2E1
E0E1
E0E1
E0E1
70E3
70E3
38E6
080C
ENDCHAR
STARTCHAR 2475
ENCODING 10600
SWIDTH 1800 0
DWIDTH 18 0
BBX 17 12 0 -1
BITMAP
100C00
33E600
67E700
447380
C06380
C0E380
C38380
470380
67F700
67F700
300E00
101C00
ENDCHAR
STARTCHAR 2476
ENCODING 10601
SWIDTH 1800 0
DWIDTH 18 0
BBX 16 13 -1 -2
BITMAP
1806
3863
71F3
63B9
E039
E0F1
E0F9
E119
E31B
73FB
38F7
3C0E
0800
ENDCHAR
STARTCHAR 2477
ENCODING 10602
SWIDTH 1800 0
DWIDTH 18 0
BBX 16 13 -1 -1
BITMAP
1800
3806
7003
60F3
E1F1
E1F1
E371
E671
EFFD
7FFF
3873
3C77
080E
ENDCHAR
STARTCHAR 2478
ENCODING 10603
SWIDTH 1800 0
DWIDTH 18 0
BBX 16 12 -1 -1
BITMAP
1806
3BFB
73FB
6301
E3F1
E3F9
E019
E119
73FB
71F3
3807
080E
ENDCHAR
STARTCHAR 2479
ENCODING 10604
SWIDTH 1800 0
DWIDTH 18 0
BBX 16 12 0 -1
BITMAP
100C
3006
6066
61E3
43C3
C3E3
C7F3
4473
6676
77F6
3BCC
1018
ENDCHAR
STARTCHAR 247A
ENCODING 10605
SWIDTH 1800 0
DWIDTH 18 0
BBX 16 13 -1 -2
BITMAP
1806
3803
77FB
67F9
E039
E031
E071
E071
E063
70E3
38E7
3C0E
0800
ENDCHAR
STARTCHAR 247B
ENCODING 10606
SWIDTH 1800 0
DWIDTH 18 0
BBX 16 12 -1 -1
BITMAP
1806
3803
71F3
63B1
E3B1
E1F1
E3F1
E319
731B
73F3
39E6
080C
ENDCHAR
STARTCHAR 247C
ENCODING 10607
SWIDTH 1800 0
DWIDTH 18 0
BBX 17 13 0 -2
BITMAP
100C00
300600
63E700
666380
466380
C7E380
C3F380
C07380
476700
63E700
708E00
381C00
100000
ENDCHAR
STARTCHAR 247D
ENCODING 10608
SWIDTH 1800 0
DWIDTH 18 0
BBX 16 12 -1 -1
BITMAP
1806
3F7B
7FFF
7FEF
E7C7
E7C7
E7C7
E7C7
77EF
77FF
383E
080C
ENDCHAR
STARTCHAR 247E
ENCODING 10609
SWIDTH 1800 0
DWIDTH 18 0
BBX 16 12 -1 -1
BITMAP
1806
3BBB
77FB
6FF9
E3B9
E3B9
E3B9
E3B9
73BB
73BB
3B87
080E
ENDCHAR
STARTCHAR 247F
ENCODING 10610
SWIDTH 1800 0
DWIDTH 18 0
BBX 16 13 -1 -2
BITMAP
1806
3F73
7FFB
6F8D
E719
E739
E771
E7E1
E7FF
77FF
3807
1C0E
0800
ENDCHAR
STARTCHAR 2480
ENCODING 10611
SWIDTH 1800 0
DWIDTH 18 0
BBX 16 12 -1 -1
BITMAP
1806
3F73
7FFB
6F8D
E71D
E739
E73D
E70D
77CF
77FB
3827
080E
ENDCHAR
STARTCHAR 2481
ENCODING 10612
SWIDTH 1800 0
DWIDTH 18 0
BBX 16 13 -1 -1
BITMAP
1800
3806
773B
6F7B
EFF9
E7F9
E7F9
E7FD
E7FD
773B
3F3B
1C07
080E
ENDCHAR
STARTCHAR 2482
ENCODING 10613
SWIDTH 1800 0
DWIDTH 18 0
BBX 16 13 -1 -2
BITMAP
1806
38FB
77FB
6FC1
E7F9
E7FD
E70D
E78D
E7FF
777B
3807
1C0E
0800
ENDCHAR
STARTCHAR 00B9
ENCODING 10614
SWIDTH 1800 0
DWIDTH 18 0
BBX 4 8 6 4
BITMAP
70
F0
F0
70
70
70
70
70
ENDCHAR
STARTCHAR 00B2
ENCODING 10615
SWIDTH 1800 0
DWIDTH 18 0
BBX 7 8 5 4
BITMAP
78
FC
CC
1C
38
70
FE
FE
ENDCHAR
STARTCHAR 00B3
ENCODING 10616
SWIDTH 1800 0
DWIDTH 18 0
BBX 7 9 5 3
BITMAP
78
FC
0C
7C
7C
0E
CE
FC
20
ENDCHAR
STARTCHAR 2074
ENCODING 10617
SWIDTH 1800 0
DWIDTH 18 0
BBX 9 8 4 3
BITMAP
1E00
1E00
3E00
7E00
FF80
FF80
0E00
0E00
ENDCHAR
STARTCHAR 207F
ENCODING 10618
SWIDTH 1800 0
DWIDTH 18 0
BBX 8 6 4 4
BITMAP
FF
E7
E7
E7
E7
E7
ENDCHAR
STARTCHAR 2081
ENCODING 10619
SWIDTH 1800 0
DWIDTH 18 0
BBX 4 8 6 -2
BITMAP
70
F0
F0
70
70
70
70
70
ENDCHAR
STARTCHAR 2082
ENCODING 10620
SWIDTH 1800 0
DWIDTH 18 0
BBX 7 8 5 -2
BITMAP
30
FC
CC
0C
18
70
E0
FE
ENDCHAR
STARTCHAR 2083
ENCODING 10621
SWIDTH 1800 0
DWIDTH 18 0
BBX 7 8 5 -2
BITMAP
3C
7E
46
3C
3E
06
FE
7C
ENDCHAR
STARTCHAR 2084
ENCODING 10622
SWIDTH 1800 0
DWIDTH 18 0
BBX 9 7 4 -2
BITMAP
0E00
1E00
3E00
6E00
FF80
FF80
0E00
ENDCHAR
STARTCHAR 3041
ENCODING 10785
SWIDTH 1800 0
DWIDTH 18 0
BBX 10 9 3 -1
BITMAP
1A00
7E00
7B00
1F00
7F80
7EC0
FD80
7B80
2800
ENDCHAR
STARTCHAR 3042
ENCODING 10786
SWIDTH 1800 0
DWIDTH 18 0
BBX 13 12 2 -1
BITMAP
1C00
FF80
FF80
1CC0
1FC0
7FF0
FDB8
DFB8
DF38
FE70
FEE0
0400
ENDCHAR
STARTCHAR 3043
ENCODING 10787
SWIDTH 1800 0
DWIDTH 18 0
BBX 10 8 4 0
BITMAP
E000
E000
E000
E300
E180
E1C0
FCC0
7C00
ENDCHAR
STARTCHAR 3044
ENCODING 10788
SWIDTH 1800 0
DWIDTH 18 0
BBX 13 12 2 -1
BITMAP
E000
E000
E000
E180
E1C0
E0E0
E070
E070
F138
7F20
3F00
0C00
ENDCHAR
STARTCHAR 3045
ENCODING 10789
SWIDTH 1800 0
DWIDTH 18 0
BBX 7 10 5 -2
BITMAP
60
7C
18
78
FC
CE
0C
1C
38
10
ENDCHAR
STARTCHAR 3046
ENCODING 10790
SWIDTH 1800 0
DWIDTH 18 0
BBX 10 13 3 -2
BITMAP
3800
3F80
0780
0000
3F80
FFC0
E1C0
01C0
01C0
03C0
0780
0E00
0400
ENDCHAR
STARTCHAR 3047
ENCODING 10791
SWIDTH 1800 0
DWIDTH 18 0
BBX 9 9 4 0
BITMAP
3000
3E00
0C00
FC00
FC00
3C00
7C00
EF80
8F80
ENDCHAR
STARTCHAR 3048
ENCODING 10792
SWIDTH 1800 0
DWIDTH 18 0
BBX 12 11 2 0
BITMAP
0C00
1FC0
0380
3F80
3F80
0380
0F00
1F00
7B80
F1F0
61F0
ENDCHAR
STARTCHAR 3049
ENCODING 10793
SWIDTH 1800 0
DWIDTH 18 0
BBX 11 8 2 0
BITMAP
1C00
1FC0
7F60
7F80
3FC0
7C60
EC60
7BC0
ENDCHAR
STARTCHAR 304A
ENCODING 10794
SWIDTH 1800 0
DWIDTH 18 0
BBX 14 12 1 -1
BITMAP
0C00
0C20
3FF0
3F18
0E00
0FF0
3F78
7E1C
EE0C
EE9C
FCF8
7870
ENDCHAR
STARTCHAR 304B
ENCODING 10795
SWIDTH 1800 0
DWIDTH 18 0
BBX 12 9 2 -1
BITMAP
3800
3800
FF60
FF60
3730
7730
6700
FF00
4C00
ENDCHAR
STARTCHAR 304C
ENCODING 10796
SWIDTH 1800 0
DWIDTH 18 0
BBX 15 12 0 0
BITMAP
0004
1C1E
1C1A
7FE8
7FF0
1DF0
1DD8
39D8
39C0
71C0
EF80
4700
ENDCHAR
STARTCHAR 304D
ENCODING 10797
SWIDTH 1800 0
DWIDTH 18 0
BBX 11 13 3 -1
BITMAP
1800
1B80
FF80
FC40
0FC0
FF80
FF00
3FC0
7F80
E000
E0E0
7FE0
3F80
ENDCHAR
STARTCHAR 304E
ENCODING 10798
SWIDTH 1800 0
DWIDTH 18 0
BBX 15 13 1 -1
BITMAP
1808
1FFC
FF3E
FCD0
0FC0
FF00
FF00
3FC0
7F80
E000
C0E0
7FE0
3F80
ENDCHAR
STARTCHAR 304F
ENCODING 10799
SWIDTH 1800 0
DWIDTH 18 0
BBX 7 12 5 -1
BITMAP
04
0E
1C
70
E0
C0
E0
70
38
1C
0C
04
ENDCHAR
STARTCHAR 3050
ENCODING 10800
SWIDTH 1800 0
DWIDTH 18 0
BBX 13 12 2 -1
BITMAP
0620
0EB0
1DF8
38C0
7040
C000
E000
7000
3800
1C00
0E00
0400
ENDCHAR
STARTCHAR 3051
ENCODING 10801
SWIDTH 1800 0
DWIDTH 18 0
BBX 12 13 2 -1
BITMAP
01C0
61C0
E1F0
FFF0
DF80
C180
C180
E180
6180
6380
6F00
6600
2000
ENDCHAR
STARTCHAR 3052
ENCODING 10802
SWIDTH 1800 0
DWIDTH 18 0
BBX 15 12 0 0
BITMAP
C00C
C3BC
C39E
C3F8
DFF0
DF80
C380
C380
E380
6700
6F00
6C00
ENDCHAR
STARTCHAR 3053
ENCODING 10803
SWIDTH 1800 0
DWIDTH 18 0
BBX 12 11 2 0
BITMAP
1FE0
1FE0
0000
0000
0000
0000
8000
C000
E010
FFF0
7FF0
ENDCHAR
STARTCHAR 3054
ENCODING 10804
SWIDTH 1800 0
DWIDTH 18 0
BBX 14 14 1 -1
BITMAP
0008
001C
006C
0030
3FD0
3FC0
0000
0000
0000
C000
C000
F010
7FF0
0FE0
ENDCHAR
STARTCHAR 3055
ENCODING 10805
SWIDTH 1800 0
DWIDTH 18 0
BBX 11 12 3 -1
BITMAP
0800
1FC0
3F80
FE00
8700
1FC0
7FC0
6000
E000
60C0
7FE0
1F00
ENDCHAR
STARTCHAR 3056
ENCODING 10806
SWIDTH 1800 0
DWIDTH 18 0
BBX 14 14 1 -1
BITMAP
0010
0018
186C
1FF8
1FB0
FE00
E700
1FC0
7FC0
6040
E000
60C0
7FE0
1F80
ENDCHAR
STARTCHAR 3057
ENCODING 10807
SWIDTH 1800 0
DWIDTH 18 0
BBX 9 12 4 -1
BITMAP
E000
E000
E000
E000
E000
E000
E000
E000
E180
7F80
7F00
0C00
ENDCHAR
STARTCHAR 3058
ENCODING 10808
SWIDTH 1800 0
DWIDTH 18 0
BBX 10 12 4 0
BITMAP
0080
E1C0
E6C0
E300
E200
E000
E000
E000
E100
E380
7F80
3F00
ENDCHAR
STARTCHAR 3059
ENCODING 10809
SWIDTH 1800 0
DWIDTH 18 0
BBX 11 13 3 -2
BITMAP
0700
0700
FFE0
FFE0
0700
3F00
6700
6700
7F80
3F00
0700
3E00
1800
ENDCHAR
STARTCHAR 305A
ENCODING 10810
SWIDTH 1800 0
DWIDTH 18 0
BBX 14 14 2 -2
BITMAP
0010
0E18
0E6C
FFB0
FFA0
0E00
7E00
CE00
CE00
FF00
7E00
0E00
7C00
3000
ENDCHAR
STARTCHAR 305B
ENCODING 10811
SWIDTH 1800 0
DWIDTH 18 0
BBX 14 11 0 0
BITMAP
1C70
1C70
FFFC
FFFC
1C70
1C70
1DE0
1DC0
1C00
1FF8
07F8
ENDCHAR
STARTCHAR 305C
ENCODING 10812
SWIDTH 1800 0
DWIDTH 18 0
BBX 15 14 0 -1
BITMAP
0004
0006
1C7A
1CF8
1CE8
FFF8
FFF8
1CE0
1CE0
1FC0
1F80
1C00
0FF8
07F8
ENDCHAR
STARTCHAR 305D
ENCODING 10813
SWIDTH 1800 0
DWIDTH 18 0
BBX 11 12 3 0
BITMAP
4080
E1C0
3380
0720
7FE0
FF80
1C00
1800
3800
1C00
1FE0
07C0
ENDCHAR
STARTCHAR 305E
ENCODING 10814
SWIDTH 1800 0
DWIDTH 18 0
BBX 14 12 1 0
BITMAP
0188
63AC
7334
3658
FFC0
FF00
1800
3800
3000
3800
1FC0
0FC0
ENDCHAR
STARTCHAR 305F
ENCODING 10815
SWIDTH 1800 0
DWIDTH 18 0
BBX 14 12 1 -1
BITMAP
1C00
1C00
7F80
7F80
18F8
18F8
1800
3900
3300
73FC
E1FC
4000
ENDCHAR
STARTCHAR 3060
ENCODING 10816
SWIDTH 1800 0
DWIDTH 18 0
BBX 14 13 1 -1
BITMAP
1C10
1C58
1D68
7F30
7E00
18F8
18F8
1800
3900
3300
73FC
E1FC
4000
ENDCHAR
STARTCHAR 3061
ENCODING 10817
SWIDTH 1800 0
DWIDTH 18 0
BBX 10 11 3 0
BITMAP
1800
1B00
FF00
FC00
3800
3FC0
79C0
20C0
01C0
1F80
0E00
ENDCHAR
STARTCHAR 3062
ENCODING 10818
SWIDTH 1800 0
DWIDTH 18 0
BBX 13 12 1 0
BITMAP
0010
1C58
1F68
FF30
1800
1B80
3FC0
3CE0
20E0
01C0
0FC0
0F00
ENDCHAR
STARTCHAR 3063
ENCODING 10819
SWIDTH 1800 0
DWIDTH 18 0
BBX 10 8 4 0
BITMAP
1F00
FF80
E1C0
00C0
01C0
0380
1F00
0C00
ENDCHAR
STARTCHAR 3064
ENCODING 10820
SWIDTH 1800 0
DWIDTH 18 0
BBX 12 10 2 0
BITMAP
0F80
3FE0
F070
C070
0070
0070
00E0
01C0
0780
0700
ENDCHAR
STARTCHAR 3065
ENCODING 10821
SWIDTH 1800 0
DWIDTH 18 0
BBX 16 12 0 0
BITMAP
0006
001E
07CF
3FFC
F838
6038
0038
0038
0070
00E0
03C0
0300
ENDCHAR
STARTCHAR 3066
ENCODING 10822
SWIDTH 1800 0
DWIDTH 18 0
BBX 11 10 3 0
BITMAP
07E0
FFE0
7E00
1C00
1800
3800
3800
1C00
1FC0
03C0
ENDCHAR
STARTCHAR 3067
ENCODING 10823
SWIDTH 1800 0
DWIDTH 18 0
BBX 14 12 1 0
BITMAP
0008
000C
0FF4
FFD8
FC10
3800
7000
7000
7000
3800
1F80
0780
ENDCHAR
STARTCHAR 3068
ENCODING 10824
SWIDTH 1800 0
DWIDTH 18 0
BBX 11 11 2 0
BITMAP
1800
1800
18C0
1FE0
1F00
3800
6000
E000
E020
7FE0
3FC0
ENDCHAR
STARTCHAR 3069
ENCODING 10825
SWIDTH 1800 0
DWIDTH 18 0
BBX 14 12 2 0
BITMAP
0018
3078
307C
39F0
3FC0
3E00
7800
E000
C000
C000
FFC0
7FC0
ENDCHAR
STARTCHAR 306A
ENCODING 10826
SWIDTH 1800 0
DWIDTH 18 0
BBX 14 12 1 -1
BITMAP
1C20
1C78
7F98
7F60
1C60
1C60
1960
3FE0
36F8
77FC
E7CC
4000
ENDCHAR
STARTCHAR 306B
ENCODING 10827
SWIDTH 1800 0
DWIDTH 18 0
BBX 12 12 2 -1
BITMAP
7000
E000
E7F0
E7F0
E000
E000
FC00
EC10
EFF0
E7F0
7000
4000
ENDCHAR
STARTCHAR 306C
ENCODING 10828
SWIDTH 1800 0
DWIDTH 18 0
BBX 14 12 1 -1
BITMAP
0380
2300
67C0
7FF0
3B30
7F38
7E18
EE78
CFF8
FDFC
79E8
00C0
ENDCHAR
STARTCHAR 306D
ENCODING 10829
SWIDTH 1800 0
DWIDTH 18 0
BBX 14 12 1 -1
BITMAP
1C00
1C00
3FE0
7FF0
5F38
1C18
3C18
7DF8
FDB8
5DFC
1DE0
1C00
ENDCHAR
STARTCHAR 306E
ENCODING 10830
SWIDTH 1800 0
DWIDTH 18 0
BBX 13 11 1 -1
BITMAP
0FC0
1FF0
7BF0
7338
E318
E718
EE18
7C38
7C70
00E0
0080
ENDCHAR
STARTCHAR 306F
ENCODING 10831
SWIDTH 1800 0
DWIDTH 18 0
BBX 14 12 1 -1
BITMAP
60E0
E068
E7FC
E7F0
E060
E060
E3E0
E7F0
ECFC
EFDC
77C8
6000
ENDCHAR
STARTCHAR 3070
ENCODING 10832
SWIDTH 1800 0
DWIDTH 18 0
BBX 16 14 0 -1
BITMAP
0004
0006
41DB
E0DC
E7FC
E7F0
E0C0
E0C0
E3C0
E7E0
EDF8
EFB8
7F90
6000
ENDCHAR
STARTCHAR 3071
ENCODING 10833
SWIDTH 1800 0
DWIDTH 18 0
BBX 15 13 0 -1
BITMAP
000E
40EA
E0EE
E7F8
E7F8
E060
E0E0
E3E0
EFF8
ECFC
EFEC
7F80
6000
ENDCHAR
STARTCHAR 3072
ENCODING 10834
SWIDTH 1800 0
DWIDTH 18 0
BBX 13 10 2 0
BITMAP
18C0
F8C0
F8E0
70F0
60F8
60D0
E1C0
61C0
7F80
3F00
ENDCHAR
STARTCHAR 3073
ENCODING 10835
SWIDTH 1800 0
DWIDTH 18 0
BBX 15 12 1 0
BITMAP
0008
002C
39B6
F9D8
F1E0
61F0
E1F0
E1C0
E1C0
E380
7F80
3E00
ENDCHAR
STARTCHAR 3074
ENCODING 10836
SWIDTH 1800 0
DWIDTH 18 0
BBX 14 12 1 0
BITMAP
001C
0014
18DC
FCE0
78F0
30F8
70D8
60C0
60C0
71C0
7F80
3F00
ENDCHAR
STARTCHAR 3075
ENCODING 10837
SWIDTH 1800 0
DWIDTH 18 0
BBX 12 12 2 -1
BITMAP
0E00
1F00
0100
1800
1C60
4E70
C7B0
7190
7180
0380
0F00
0E00
ENDCHAR
STARTCHAR 3076
ENCODING 10838
SWIDTH 1800 0
DWIDTH 18 0
BBX 14 13 1 -1
BITMAP
0008
0E7C
1F3C
0130
1C00
0C20
4E70
C7B8
71D0
39C0
0180
0F80
0E00
ENDCHAR
STARTCHAR 3077
ENCODING 10839
SWIDTH 1800 0
DWIDTH 18 0
BBX 14 13 1 -1
BITMAP
0018
0E34
0F9C
0100
0C00
0C20
4F30
E798
79D8
38C0
01C0
0F80
0600
ENDCHAR
STARTCHAR 3078
ENCODING 10840
SWIDTH 1800 0
DWIDTH 18 0
BBX 14 8 1 0
BITMAP
0F00
1F80
39C0
F0E0
4070
0038
001C
0008
ENDCHAR
STARTCHAR 3079
ENCODING 10841
SWIDTH 1800 0
DWIDTH 18 0
BBX 14 10 1 0
BITMAP
0010
0058
0F6C
1FB0
39C0
F0E0
4070
0038
001C
0008
ENDCHAR
STARTCHAR 307A
ENCODING 10842
SWIDTH 1800 0
DWIDTH 18 0
BBX 14 10 1 0
BITMAP
0038
0028
0F38
1F80
39C0
F0E0
4070
0038
001C
0008
ENDCHAR
STARTCHAR 307B
ENCODING 10843
SWIDTH 1800 0
DWIDTH 18 0
BBX 14 13 1 -1
BITMAP
0008
77FC
E7E0
E0E4
E7FC
E7F8
E0E0
E3E0
EFF8
EEFC
EDCC
7780
6000
ENDCHAR
STARTCHAR 307C
ENCODING 10844
SWIDTH 1800 0
DWIDTH 18 0
BBX 16 13 0 -1
BITMAP
0024
7FE6
FFDB
E38C
EFEC
EFF0
E380
E780
FFE0
FDF0
FFB8
7F00
6000
ENDCHAR
STARTCHAR 307D
ENCODING 10845
SWIDTH 1800 0
DWIDTH 18 0
BBX 16 13 0 -1
BITMAP
002E
7FEB
FFCE
E380
EFE0
EFF0
E380
E780
FFE0
FDF0
FFB0
7F00
6000
ENDCHAR
STARTCHAR 307E
ENCODING 10846
SWIDTH 1800 0
DWIDTH 18 0
BBX 11 12 3 -1
BITMAP
0600
07C0
7FC0
7E00
0FC0
FFC0
FE00
3E00
7F80
CFE0
DE40
7C00
ENDCHAR
STARTCHAR 307F
ENCODING 10847
SWIDTH 1800 0
DWIDTH 18 0
BBX 13 12 1 -1
BITMAP
1FC0
1FC0
0380
03B0
3FB0
7FF0
EEF0
DC78
F8E8
61C0
0380
0300
ENDCHAR
STARTCHAR 3080
ENCODING 10848
SWIDTH 1800 0
DWIDTH 18 0
BBX 14 12 1 -1
BITMAP
0E00
0E80
7FB0
7F38
1E1C
7E08
E600
FE00
7E20
3C38
1FF0
0FE0
ENDCHAR
STARTCHAR 3081
ENCODING 10849
SWIDTH 1800 0
DWIDTH 18 0
BBX 13 11 1 0
BITMAP
0300
0300
6FC0
7FF0
7A78
7E38
FE38
EC38
CE70
FAE0
70C0
ENDCHAR
STARTCHAR 3082
ENCODING 10850
SWIDTH 1800 0
DWIDTH 18 0
BBX 11 12 2 -1
BITMAP
0E00
0C00
7F00
7F00
1800
1800
FE00
7E00
30E0
30E0
3FC0
1F80
ENDCHAR
STARTCHAR 3083
ENCODING 10851
SWIDTH 1800 0
DWIDTH 18 0
BBX 9 9 4 0
BITMAP
1800
D800
CF00
7F80
F180
F780
B700
3800
1000
ENDCHAR
STARTCHAR 3084
ENCODING 10852
SWIDTH 1800 0
DWIDTH 18 0
BBX 12 13 2 -1
BITMAP
0600
0600
4600
E3E0
6FF0
7C30
7830
F830
5CF0
0CE0
0600
0600
0600
ENDCHAR
STARTCHAR 3085
ENCODING 10853
SWIDTH 1800 0
DWIDTH 18 0
BBX 10 9 4 -1
BITMAP
0E00
CF00
FFC0
FEC0
FEC0
DFC0
DF00
3E00
1800
ENDCHAR
STARTCHAR 3086
ENCODING 10854
SWIDTH 1800 0
DWIDTH 18 0
BBX 12 12 2 -1
BITMAP
0380
0380
EFE0
FFE0
FBF0
F3F0
6BF0
7FF0
67E0
6700
0E00
0C00
ENDCHAR
STARTCHAR 3087
ENCODING 10855
SWIDTH 1800 0
DWIDTH 18 0
BBX 10 9 3 -1
BITMAP
0E00
0F80
0FC0
0E00
7E00
FF80
FFC0
FC80
7000
ENDCHAR
STARTCHAR 3088
ENCODING 10856
SWIDTH 1800 0
DWIDTH 18 0
BBX 12 12 2 -1
BITMAP
0700
0700
07F0
07F0
0700
0700
7F00
F7C0
E6E0
FE70
FC20
3000
ENDCHAR
STARTCHAR 3089
ENCODING 10857
SWIDTH 1800 0
DWIDTH 18 0
BBX 11 12 3 -1
BITMAP
3000
3E00
0E00
E000
E780
FFC0
F860
F060
2060
00E0
0FC0
0F00
ENDCHAR
STARTCHAR 308A
ENCODING 10858
SWIDTH 1800 0
DWIDTH 18 0
BBX 9 11 4 0
BITMAP
E380
E380
E380
E380
E380
E380
E380
0700
0700
1E00
1800
ENDCHAR
STARTCHAR 308B
ENCODING 10859
SWIDTH 1800 0
DWIDTH 18 0
BBX 11 12 3 -1
BITMAP
FE00
FE00
0C00
3F00
7FC0
E1C0
C0E0
1E60
3FE0
33C0
1FC0
0F00
ENDCHAR
STARTCHAR 308C
ENCODING 10860
SWIDTH 1800 0
DWIDTH 18 0
BBX 14 12 2 -1
BITMAP
1C00
1E00
7E00
7DE0
1FE0
1F60
3CE0
7CE0
FCCC
5CFC
1C78
0030
ENDCHAR
STARTCHAR 308D
ENCODING 10861
SWIDTH 1800 0
DWIDTH 18 0
BBX 11 12 3 -1
BITMAP
7E00
7F00
0E00
1C00
3FC0
7FE0
F0E0
4060
0060
00E0
1FC0
1F00
ENDCHAR
STARTCHAR 308E
ENCODING 10862
SWIDTH 1800 0
DWIDTH 18 0
BBX 10 9 4 -1
BITMAP
3800
F800
FD00
3FC0
3EC0
78C0
F9C0
FB80
3B00
ENDCHAR
STARTCHAR 308F
ENCODING 10863
SWIDTH 1800 0
DWIDTH 18 0
BBX 13 11 1 0
BITMAP
1C00
FC00
FE00
1FF0
1FB8
1E18
7C18
FC38
5C78
1CF0
1CC0
ENDCHAR
STARTCHAR 3090
ENCODING 10864
SWIDTH 1800 0
DWIDTH 18 0
BBX 14 13 1 -2
BITMAP
1F80
1FC0
0180
0380
1FF0
3F78
7618
6E1C
EDFC
FF3C
7BF8
21F0
0080
ENDCHAR
STARTCHAR 3091
ENCODING 10865
SWIDTH 1800 0
DWIDTH 18 0
BBX 12 13 2 -2
BITMAP
7F00
7F80
0E00
3FC0
70E0
7E60
3660
3FE0
1FC0
78E0
F970
FF30
0600
ENDCHAR
STARTCHAR 3092
ENCODING 10866
SWIDTH 1800 0
DWIDTH 18 0
BBX 11 12 2 -1
BITMAP
0600
0E00
7F80
1C00
1F00
3BE0
F3E0
6F80
1F80
3800
3FC0
0FC0
ENDCHAR
STARTCHAR 3093
ENCODING 10867
SWIDTH 1800 0
DWIDTH 18 0
BBX 12 12 2 -1
BITMAP
0600
0E00
0E00
1C00
1800
1E00
3F00
7700
6730
E730
C7F0
43E0
ENDCHAR
STARTCHAR 30A1
ENCODING 11041
SWIDTH 1800 0
DWIDTH 18 0
BBX 10 9 3 -1
BITMAP
7FC0
7FC0
00C0
01C0
3F80
3B00
7000
E000
C000
ENDCHAR
STARTCHAR 30A2
ENCODING 11042
SWIDTH 1800 0
DWIDTH 18 0
BBX 12 12 2 -1
BITMAP
FFF0
FFF0
0070
0070
0EE0
0FE0
0F80
0F00
1C00
3C00
7800
2000
ENDCHAR
STARTCHAR 30A3
ENCODING 11043
SWIDTH 1800 0
DWIDTH 18 0
BBX 7 8 4 0
BITMAP
04
1E
3C
FC
DC
1C
1C
1C
ENDCHAR
STARTCHAR 30A4
ENCODING 11044
SWIDTH 1800 0
DWIDTH 18 0
BBX 10 11 3 0
BITMAP
0080
03C0
0780
1F00
7E00
FE00
CE00
0E00
0E00
0E00
0E00
ENDCHAR
STARTCHAR 30A5
ENCODING 11045
SWIDTH 1800 0
DWIDTH 18 0
BBX 9 9 4 -1
BITMAP
1C00
FF80
FF80
E380
E380
0700
0700
0E00
0400
ENDCHAR
STARTCHAR 30A6
ENCODING 11046
SWIDTH 1800 0
DWIDTH 18 0
BBX 11 12 3 -1
BITMAP
0E00
0E00
FFE0
FFE0
E0E0
E0E0
00E0
01C0
03C0
0780
0F00
0400
ENDCHAR
STARTCHAR 30A7
ENCODING 11047
SWIDTH 1800 0
DWIDTH 18 0
BBX 11 8 3 0
BITMAP
7FC0
7FC0
0E00
0E00
0E00
0E00
FFE0
FFE0
ENDCHAR
STARTCHAR 30A8
ENCODING 11048
SWIDTH 1800 0
DWIDTH 18 0
BBX 13 11 2 0
BITMAP
FFF0
FFF0
0700
0700
0700
0700
0700
0700
0700
FFF8
FFF8
ENDCHAR
STARTCHAR 30A9
ENCODING 11049
SWIDTH 1800 0
DWIDTH 18 0
BBX 12 8 2 0
BITMAP
0380
3FF0
3FF0
0180
1B80
3380
FF80
6F00
ENDCHAR
STARTCHAR 30AA
ENCODING 11050
SWIDTH 1800 0
DWIDTH 18 0
BBX 13 11 2 0
BITMAP
0380
0380
7FF8
7FF8
0380
1B80
1B80
3B80
7380
EF80
4600
ENDCHAR
STARTCHAR 30AB
ENCODING 11051
SWIDTH 1800 0
DWIDTH 18 0
BBX 10 12 3 -1
BITMAP
1C00
1C00
FFC0
FFC0
1DC0
1DC0
1DC0
39C0
39C0
7380
EF80
4600
ENDCHAR
STARTCHAR 30AC
ENCODING 11052
SWIDTH 1800 0
DWIDTH 18 0
BBX 15 13 1 -1
BITMAP
0008
1C3C
1C7E
1C30
FFC0
FFC0
1DC0
1DC0
1DC0
39C0
7BC0
F780
4700
ENDCHAR
STARTCHAR 30AD
ENCODING 11053
SWIDTH 1800 0
DWIDTH 18 0
BBX 12 11 2 0
BITMAP
1800
1980
1F80
7E00
FE70
0FF0
3F80
FF00
6700
0380
0300
ENDCHAR
STARTCHAR 30AE
ENCODING 11054
SWIDTH 1800 0
DWIDTH 18 0
BBX 14 12 1 0
BITMAP
0810
38D8
1F6C
3F60
FC00
4DC0
0FE0
7F00
7E00
0700
0700
0200
ENDCHAR
STARTCHAR 30AF
ENCODING 11055
SWIDTH 1800 0
DWIDTH 18 0
BBX 12 11 2 0
BITMAP
0C00
0C00
1FF0
3FF0
F060
60E0
00E0
01C0
0780
1F00
1800
ENDCHAR
STARTCHAR 30B0
ENCODING 11056
SWIDTH 1800 0
DWIDTH 18 0
BBX 15 12 1 0
BITMAP
0008
1C6C
1836
3FFC
7FC0
E1C0
C180
0180
0380
0F00
3E00
1800
ENDCHAR
STARTCHAR 30B1
ENCODING 11057
SWIDTH 1800 0
DWIDTH 18 0
BBX 12 11 2 0
BITMAP
0800
1C00
1800
3FF0
7FF0
E380
E380
4380
0700
0F00
0C00
ENDCHAR
STARTCHAR 30B2
ENCODING 11058
SWIDTH 1800 0
DWIDTH 18 0
BBX 15 13 1 -1
BITMAP
0008
086C
1C36
183C
3FC0
7FC0
7380
E380
4300
0700
0700
1E00
0800
ENDCHAR
STARTCHAR 30B3
ENCODING 11059
SWIDTH 1800 0
DWIDTH 18 0
BBX 12 10 2 0
BITMAP
FFF0
FFF0
0070
0070
0070
0070
0070
0070
FFF0
FFF0
ENDCHAR
STARTCHAR 30B4
ENCODING 11060
SWIDTH 1800 0
DWIDTH 18 0
BBX 16 13 0 0
BITMAP
0004
0016
003F
FFFE
FFE8
00E0
00E0
00E0
00E0
00E0
00E0
FFE0
FFE0
ENDCHAR
STARTCHAR 30B5
ENCODING 11061
SWIDTH 1800 0
DWIDTH 18 0
BBX 13 11 2 0
BITMAP
1CE0
1CE0
FFF8
FFF8
1CE0
1CE0
1CE0
01C0
03C0
1F80
0E00
ENDCHAR
STARTCHAR 30B6
ENCODING 11062
SWIDTH 1800 0
DWIDTH 18 0
BBX 16 12 0 0
BITMAP
001E
1DFF
1DDA
FFF8
FFF0
1DC0
1DC0
1DC0
0380
0780
1F00
1C00
ENDCHAR
STARTCHAR 30B7
ENCODING 11063
SWIDTH 1800 0
DWIDTH 18 0
BBX 13 11 2 0
BITMAP
3000
3800
3810
1038
6070
70E0
33C0
0780
3E00
F800
6000
ENDCHAR
STARTCHAR 30B8
ENCODING 11064
SWIDTH 1800 0
DWIDTH 18 0
BBX 13 13 2 0
BITMAP
0010
0038
10D8
3868
1C20
0838
6070
70E0
33C0
2780
3E00
F800
6000
ENDCHAR
STARTCHAR 30B9
ENCODING 11065
SWIDTH 1800 0
DWIDTH 18 0
BBX 12 12 2 -1
BITMAP
7FE0
7FE0
00E0
01C0
0380
0700
0F80
1F80
3DC0
78E0
F070
2040
ENDCHAR
STARTCHAR 30BA
ENCODING 11066
SWIDTH 1800 0
DWIDTH 18 0
BBX 16 13 0 0
BITMAP
0004
001E
FFFF
FFDA
01C8
0380
0700
0700
0F80
1FC0
39C0
F0E0
2040
ENDCHAR
STARTCHAR 30BB
ENCODING 11067
SWIDTH 1800 0
DWIDTH 18 0
BBX 13 11 1 0
BITMAP
1C30
1DF8
1FF8
7F30
FC70
DCE0
1C00
1C00
1C00
1FF8
1FF8
ENDCHAR
STARTCHAR 30BC
ENCODING 11068
SWIDTH 1800 0
DWIDTH 18 0
BBX 16 12 0 0
BITMAP
0C04
1C36
1CFF
1FEA
3F60
FCE0
5CC0
1DC0
1C00
1C00
1FF0
1FF0
ENDCHAR
STARTCHAR 30BD
ENCODING 11069
SWIDTH 1800 0
DWIDTH 18 0
BBX 11 12 3 -1
BITMAP
0040
C060
E0E0
70C0
21C0
0380
0780
0F00
1E00
7C00
F000
4000
ENDCHAR
STARTCHAR 30BE
ENCODING 11070
SWIDTH 1800 0
DWIDTH 18 0
BBX 15 12 1 0
BITMAP
0008
002C
60BE
71FC
3990
2380
0700
0E00
1E00
7800
F000
C000
ENDCHAR
STARTCHAR 30BF
ENCODING 11071
SWIDTH 1800 0
DWIDTH 18 0
BBX 10 11 3 0
BITMAP
1800
1800
3FC0
7FC0
E0C0
CDC0
0F80
0780
0FC0
3EC0
3800
ENDCHAR
STARTCHAR 30C0
ENCODING 11072
SWIDTH 1800 0
DWIDTH 18 0
BBX 15 12 1 0
BITMAP
0008
1C2C
187E
3FF4
7FD0
E1C0
DD80
1F80
0780
0FC0
7CC0
3000
ENDCHAR
STARTCHAR 30C1
ENCODING 11073
SWIDTH 1800 0
DWIDTH 18 0
BBX 12 11 2 0
BITMAP
0180
1FC0
3F00
2700
FFF0
FFF0
0700
0700
0E00
3E00
1800
ENDCHAR
STARTCHAR 30C2
ENCODING 11074
SWIDTH 1800 0
DWIDTH 18 0
BBX 15 12 1 0
BITMAP
0008
077C
7F7E
7E34
4E00
FFE0
FFE0
0E00
0E00
1C00
7C00
3000
ENDCHAR
STARTCHAR 30C3
ENCODING 11075
SWIDTH 1800 0
DWIDTH 18 0
BBX 12 9 2 0
BITMAP
0020
0870
DC70
EEE0
77C0
03C0
3F80
7E00
7000
ENDCHAR
STARTCHAR 30C4
ENCODING 11076
SWIDTH 1800 0
DWIDTH 18 0
BBX 14 11 1 0
BITMAP
0008
001C
0E18
E738
7730
3270
20E0
03C0
1F80
7E00
3000
ENDCHAR
STARTCHAR 30C5
ENCODING 11077
SWIDTH 1800 0
DWIDTH 18 0
BBX 15 12 1 0
BITMAP
0008
002C
003E
00F8
38D0
DDC0
EDC0
6380
0700
3E00
FC00
6000
ENDCHAR
STARTCHAR 30C6
ENCODING 11078
SWIDTH 1800 0
DWIDTH 18 0
BBX 12 12 2 -1
BITMAP
1FC0
1FC0
0000
FFF0
FFF0
0700
0700
0700
0E00
1E00
3C00
1800
ENDCHAR
STARTCHAR 30C7
ENCODING 11079
SWIDTH 1800 0
DWIDTH 18 0
BBX 15 13 0 -1
BITMAP
0004
1F9E
1FBE
0018
FFE8
FFE0
0E00
0E00
0E00
1C00
3C00
7800
3000
ENDCHAR
STARTCHAR 30C8
ENCODING 11080
SWIDTH 1800 0
DWIDTH 18 0
BBX 10 11 5 0
BITMAP
E000
E000
E000
EC00
EF00
E380
E1C0
E080
E000
E000
E000
ENDCHAR
STARTCHAR 30C9
ENCODING 11081
SWIDTH 1800 0
DWIDTH 18 0
BBX 10 12 4 0
BITMAP
0180
E5C0
E6C0
E300
E200
E800
FE00
EF00
E780
E300
E000
E000
ENDCHAR
STARTCHAR 30CA
ENCODING 11082
SWIDTH 1800 0
DWIDTH 18 0
BBX 12 12 2 -1
BITMAP
0700
0700
FFF0
FFF0
0700
0700
0700
0E00
0E00
1E00
1C00
0800
ENDCHAR
STARTCHAR 30CB
ENCODING 11083
SWIDTH 1800 0
DWIDTH 18 0
BBX 12 8 2 2
BITMAP
7FC0
7FC0
0000
0000
0000
0000
FFF0
FFF0
ENDCHAR
STARTCHAR 30CC
ENCODING 11084
SWIDTH 1800 0
DWIDTH 18 0
BBX 11 12 3 -1
BITMAP
FFC0
FFC0
01C0
0180
1180
3F80
1F00
0F80
1FC0
7DE0
F0C0
4000
ENDCHAR
STARTCHAR 30CD
ENCODING 11085
SWIDTH 1800 0
DWIDTH 18 0
BBX 11 11 3 0
BITMAP
0400
7FC0
7FE0
0380
0F00
1E80
7FC0
FEE0
0EE0
0E40
0E00
ENDCHAR
STARTCHAR 30CE
ENCODING 11086
SWIDTH 1800 0
DWIDTH 18 0
BBX 10 12 3 -1
BITMAP
0080
00C0
01C0
0180
0380
0700
0E00
0E00
3C00
7800
F000
C000
ENDCHAR
STARTCHAR 30CF
ENCODING 11087
SWIDTH 1800 0
DWIDTH 18 0
BBX 12 8 2 1
BITMAP
1100
3B80
39C0
30E0
7060
E070
E030
4020
ENDCHAR
STARTCHAR 30D0
ENCODING 11088
SWIDTH 1800 0
DWIDTH 18 0
BBX 14 11 1 1
BITMAP
0018
004C
006C
10B0
19E0
18C0
38E0
3070
7030
E038
C010
ENDCHAR
STARTCHAR 30D1
ENCODING 11089
SWIDTH 1800 0
DWIDTH 18 0
BBX 14 10 1 1
BITMAP
001C
0014
109C
19C0
39C0
38E0
7070
7030
E038
4010
ENDCHAR
STARTCHAR 30D2
ENCODING 11090
SWIDTH 1800 0
DWIDTH 18 0
BBX 11 11 3 0
BITMAP
E000
E000
E180
FFC0
FE00
F000
E000
E000
E000
FFE0
FFE0
ENDCHAR
STARTCHAR 30D3
ENCODING 11091
SWIDTH 1800 0
DWIDTH 18 0
BBX 14 12 1 0
BITMAP
E01C
E06C
E0F4
E3B0
FF80
FE00
E000
E000
E000
E000
FFE0
FFE0
ENDCHAR
STARTCHAR 30D4
ENCODING 11092
SWIDTH 1800 0
DWIDTH 18 0
BBX 13 12 1 0
BITMAP
E000
E038
E028
E3B8
FF80
FE00
E000
E000
E000
E000
FFC0
FFC0
ENDCHAR
STARTCHAR 30D5
ENCODING 11093
SWIDTH 1800 0
DWIDTH 18 0
BBX 10 11 3 0
BITMAP
FFC0
FFC0
01C0
01C0
0380
0700
0F00
1E00
3C00
7800
2000
ENDCHAR
STARTCHAR 30D6
ENCODING 11094
SWIDTH 1800 0
DWIDTH 18 0
BBX 14 12 1 0
BITMAP
0008
007C
FFFC
FFB0
0380
0300
0700
0E00
1C00
3800
7000
2000
ENDCHAR
STARTCHAR 30D7
ENCODING 11095
SWIDTH 1800 0
DWIDTH 18 0
BBX 14 12 1 0
BITMAP
001C
0014
FF9C
FFC0
0180
0380
0300
0700
0E00
1C00
7800
3000
ENDCHAR
STARTCHAR 30D8
ENCODING 11096
SWIDTH 1800 0
DWIDTH 18 0
BBX 11 6 3 0
BITMAP
1C00
3E00
7700
E380
C1E0
0040
ENDCHAR
STARTCHAR 30D9
ENCODING 11097
SWIDTH 1800 0
DWIDTH 18 0
BBX 12 9 2 0
BITMAP
0020
01F0
01F0
1CC0
3F00
7780
E1C0
40E0
0040
ENDCHAR
STARTCHAR 30DA
ENCODING 11098
SWIDTH 1800 0
DWIDTH 18 0
BBX 12 8 2 0
BITMAP
0070
08D0
1E70
3F00
7380
E1C0
60F0
0060
ENDCHAR
STARTCHAR 30DB
ENCODING 11099
SWIDTH 1800 0
DWIDTH 18 0
BBX 13 12 2 -1
BITMAP
0700
0700
7FF0
7FF0
2700
37E0
7760
E778
C730
1F00
1F00
1000
ENDCHAR
STARTCHAR 30DC
ENCODING 11100
SWIDTH 1800 0
DWIDTH 18 0
BBX 14 13 1 0
BITMAP
0008
072C
077C
0730
7FF0
7FF0
0700
37E0
7770
F778
6710
1F00
1C00
ENDCHAR
STARTCHAR 30DD
ENCODING 11101
SWIDTH 1800 0
DWIDTH 18 0
BBX 14 12 1 0
BITMAP
071C
0714
071C
7FF0
7FF0
0700
37E0
3770
F778
6710
1F00
1C00
ENDCHAR
STARTCHAR 30DE
ENCODING 11102
SWIDTH 1800 0
DWIDTH 18 0
BBX 9 9 4 0
BITMAP
7F80
7F80
0700
0E00
5C00
F800
3C00
1F00
0600
ENDCHAR
STARTCHAR 30DF
ENCODING 11103
SWIDTH 1800 0
DWIDTH 18 0
BBX 11 12 3 -1
BITMAP
3000
3E00
0F80
3380
7E00
0F80
C380
F800
3F00
07C0
01E0
0040
ENDCHAR
STARTCHAR 30E0
ENCODING 11104
SWIDTH 1800 0
DWIDTH 18 0
BBX 13 11 1 0
BITMAP
0600
0E00
0C00
0C00
0C00
1C20
1860
1870
3FF8
FFF8
7018
ENDCHAR
STARTCHAR 30E1
ENCODING 11105
SWIDTH 1800 0
DWIDTH 18 0
BBX 11 12 2 -1
BITMAP
0040
00E0
00E0
01C0
3980
3F80
0F80
0FE0
1CE0
3860
F000
6000
ENDCHAR
STARTCHAR 30E2
ENCODING 11106
SWIDTH 1800 0
DWIDTH 18 0
BBX 13 11 1 0
BITMAP
7FF0
7FF0
0700
0700
FFF8
FFF8
0700
0700
0700
07F8
07F8
ENDCHAR
STARTCHAR 30E3
ENCODING 11107
SWIDTH 1800 0
DWIDTH 18 0
BBX 10 8 3 0
BITMAP
1080
3FC0
1FC0
7DC0
FCC0
4E00
0E00
0400
ENDCHAR
STARTCHAR 30E4
ENCODING 11108
SWIDTH 1800 0
DWIDTH 18 0
BBX 12 12 2 -1
BITMAP
3000
3040
39F0
3FF0
1F60
FC60
EC20
0E00
0600
0700
0700
0200
ENDCHAR
STARTCHAR 30E5
ENCODING 11109
SWIDTH 1800 0
DWIDTH 18 0
BBX 11 7 3 0
BITMAP
3F80
3F80
0380
0380
0380
FFE0
FFE0
ENDCHAR
STARTCHAR 30E6
ENCODING 11110
SWIDTH 1800 0
DWIDTH 18 0
BBX 15 10 1 0
BITMAP
3FF0
3FF0
0070
0070
0070
0070
0070
0070
FFFE
FFFE
ENDCHAR
STARTCHAR 30E7
ENCODING 11111
SWIDTH 1800 0
DWIDTH 18 0
BBX 12 7 3 0
BITMAP
FFE0
FFE0
FFE0
FFE0
00E0
FFF0
FFF0
ENDCHAR
STARTCHAR 30E8
ENCODING 11112
SWIDTH 1800 0
DWIDTH 18 0
BBX 14 10 1 0
BITMAP
7FF8
7FF8
0038
0038
7FF8
7FF8
0038
0038
FFFC
FFFC
ENDCHAR
STARTCHAR 30E9
ENCODING 11113
SWIDTH 1800 0
DWIDTH 18 0
BBX 11 12 3 -1
BITMAP
3FC0
3FC0
0000
FFE0
FFE0
01C0
0380
0700
0E00
3C00
7800
3000
ENDCHAR
STARTCHAR 30EA
ENCODING 11114
SWIDTH 1800 0
DWIDTH 18 0
BBX 8 13 5 -2
BITMAP
E7
E7
E7
E7
E7
E7
E7
E7
0E
0E
1C
78
10
ENDCHAR
STARTCHAR 30EB
ENCODING 11115
SWIDTH 1800 0
DWIDTH 18 0
BBX 13 12 2 -1
BITMAP
1F80
1F80
1F80
1F80
1F80
1F80
1F80
3BB8
3BF8
73E0
E3C0
4000
ENDCHAR
STARTCHAR 30EC
ENCODING 11116
SWIDTH 1800 0
DWIDTH 18 0
BBX 10 11 4 0
BITMAP
E000
E000
E000
E000
E000
E000
E1C0
E7C0
FF00
F800
6000
ENDCHAR
STARTCHAR 30ED
ENCODING 11117
SWIDTH 1800 0
DWIDTH 18 0
BBX 12 9 2 0
BITMAP
FFF0
FFF0
E070
E070
E070
E070
E070
FFF0
FFF0
ENDCHAR
STARTCHAR 30EE
ENCODING 11118
SWIDTH 1800 0
DWIDTH 18 0
BBX 10 7 4 0
BITMAP
FFC0
FFC0
E1C0
E1C0
03C0
0F80
0600
ENDCHAR
STARTCHAR 30EF
ENCODING 11119
SWIDTH 1800 0
DWIDTH 18 0
BBX 12 11 2 0
BITMAP
FFF0
FFF0
E070
E070
E070
0070
0070
0070
00E0
03C0
0180
ENDCHAR
STARTCHAR 30F0
ENCODING 11120
SWIDTH 1800 0
DWIDTH 18 0
BBX 13 11 2 0
BITMAP
01C0
01C0
7FF0
7FF0
1DC0
1DC0
FFF8
FFF8
01C0
01C0
01C0
ENDCHAR
STARTCHAR 30F1
ENCODING 11121
SWIDTH 1800 0
DWIDTH 18 0
BBX 13 10 2 0
BITMAP
7FF0
7FF0
0070
0070
0EE0
0FC0
0E80
0E00
FFF8
FFF8
ENDCHAR
STARTCHAR 30F2
ENCODING 11122
SWIDTH 1800 0
DWIDTH 18 0
BBX 10 10 3 0
BITMAP
FFC0
FFC0
01C0
FF80
FF80
0300
0700
0600
0E00
0400
ENDCHAR
STARTCHAR 30F3
ENCODING 11123
SWIDTH 1800 0
DWIDTH 18 0
BBX 13 9 2 0
BITMAP
3000
3820
1838
1870
00E0
03C0
3F80
FE00
7000
ENDCHAR
STARTCHAR 30F4
ENCODING 11124
SWIDTH 1800 0
DWIDTH 18 0
BBX 14 12 1 0
BITMAP
000C
0E2C
0E34
FFD0
FFC0
E1C0
E1C0
01C0
01C0
01C0
0380
0100
ENDCHAR
STARTCHAR 30F5
ENCODING 11125
SWIDTH 1800 0
DWIDTH 18 0
BBX 10 8 3 0
BITMAP
1C00
FFC0
FFC0
19C0
39C0
71C0
E7C0
4700
ENDCHAR
STARTCHAR 30F6
ENCODING 11126
SWIDTH 1800 0
DWIDTH 18 0
BBX 11 9 3 0
BITMAP
1000
3800
3000
7FE0
FFE0
E300
C700
0E00
0600
ENDCHAR
STARTCHAR 0410
ENCODING 11297
SWIDTH 1800 0
DWIDTH 18 0
BBX 13 12 2 0
BITMAP
0200
0200
0700
0F00
0F80
1D80
19C0
3FE0
7FE0
7070
E070
E038
ENDCHAR
STARTCHAR 0411
ENCODING 11298
SWIDTH 1800 0
DWIDTH 18 0
BBX 9 11 4 0
BITMAP
FF00
FF00
E000
E000
FE00
FF00
E780
E380
E380
FF00
FE00
ENDCHAR
STARTCHAR 0412
ENCODING 11299
SWIDTH 1800 0
DWIDTH 18 0
BBX 10 11 4 0
BITMAP
FF00
FF80
E180
E180
FF80
FF80
E180
E0C0
E080
FF80
FF00
ENDCHAR
STARTCHAR 0413
ENCODING 11300
SWIDTH 1800 0
DWIDTH 18 0
BBX 10 11 3 0
BITMAP
FFC0
FFC0
E000
E000
E000
E000
E000
E000
E000
E000
E000
ENDCHAR
STARTCHAR 0414
ENCODING 11301
SWIDTH 1800 0
DWIDTH 18 0
BBX 11 13 3 -2
BITMAP
7FC0
7FC0
71C0
71C0
71C0
F1C0
E1C0
E1C0
FFC0
FFE0
C060
C060
C060
ENDCHAR
STARTCHAR 0415
ENCODING 11302
SWIDTH 1800 0
DWIDTH 18 0
BBX 11 11 3 0
BITMAP
FFE0
FFE0
E000
E000
FFC0
FFC0
E000
E000
E000
FFE0
FFE0
ENDCHAR
STARTCHAR 0401
ENCODING 11303
SWIDTH 1800 0
DWIDTH 18 0
BBX 9 12 4 0
BITMAP
C300
E300
0000
FF80
FF80
E000
FF80
FF80
E000
E000
FF80
FF80
ENDCHAR
STARTCHAR 0416
ENCODING 11304
SWIDTH 1800 0
DWIDTH 18 0
BBX 13 11 2 0
BITMAP
C718
E738
7770
3760
3FE0
3FE0
3FE0
3FE0
F770
F770
C730
ENDCHAR
STARTCHAR 0417
ENCODING 11305
SWIDTH 1800 0
DWIDTH 18 0
BBX 9 12 4 0
BITMAP
1C00
7F00
F780
4380
0780
1F00
1F80
0380
4380
E380
FF00
3E00
ENDCHAR
STARTCHAR 0418
ENCODING 11306
SWIDTH 1800 0
DWIDTH 18 0
BBX 11 11 3 0
BITMAP
E0E0
E1E0
E3E0
E3E0
E7E0
EEE0
FCE0
F8E0
F0E0
F0E0
E0E0
ENDCHAR
STARTCHAR 0419
ENCODING 11307
SWIDTH 1800 0
DWIDTH 18 0
BBX 11 11 3 0
BITMAP
3B00
1E00
E0E0
E1E0
E3E0
E7E0
EEE0
FCE0
F8E0
F0E0
E0E0
ENDCHAR
STARTCHAR 041A
ENCODING 11308
SWIDTH 1800 0
DWIDTH 18 0
BBX 10 11 3 0
BITMAP
E1C0
E380
E700
FE00
FC00
FE00
E700
E700
E380
E1C0
E1C0
ENDCHAR
STARTCHAR 041B
ENCODING 11309
SWIDTH 1800 0
DWIDTH 18 0
BBX 11 11 3 0
BITMAP
3FE0
3FE0
38E0
38E0
38E0
38E0
38E0
38E0
70E0
F0E0
C0E0
ENDCHAR
STARTCHAR 041C
ENCODING 11310
SWIDTH 1800 0
DWIDTH 18 0
BBX 12 11 2 0
BITMAP
E070
E070
F0F0
F8F0
F9F0
EDF0
EF70
E770
E670
E270
E070
ENDCHAR
STARTCHAR 041D
ENCODING 11311
SWIDTH 1800 0
DWIDTH 18 0
BBX 11 11 3 0
BITMAP
E0E0
E0E0
E0E0
E0E0
FFE0
FFE0
E0E0
E0E0
E0E0
E0E0
E0E0
ENDCHAR
STARTCHAR 041E
ENCODING 11312
SWIDTH 1800 0
DWIDTH 18 0
BBX 12 11 2 0
BITMAP
1F80
7FE0
70E0
E070
E070
E070
E070
E070
70E0
3FE0
1F80
ENDCHAR
STARTCHAR 041F
ENCODING 11313
SWIDTH 1800 0
DWIDTH 18 0
BBX 11 11 3 0
BITMAP
FFE0
FFE0
E0E0
E0E0
E0E0
E0E0
E0E0
E0E0
E0E0
E0E0
E0E0
ENDCHAR
STARTCHAR 0420
ENCODING 11314
SWIDTH 1800 0
DWIDTH 18 0
BBX 9 11 4 0
BITMAP
FE00
FF00
E380
E380
E380
FF80
FE00
E000
E000
E000
E000
ENDCHAR
STARTCHAR 0421
ENCODING 11315
SWIDTH 1800 0
DWIDTH 18 0
BBX 12 11 2 0
BITMAP
1FC0
3FE0
7040
6000
6000
E000
6000
6070
70F0
3FE0
0FC0
ENDCHAR
STARTCHAR 0422
ENCODING 11316
SWIDTH 1800 0
DWIDTH 18 0
BBX 11 11 3 0
BITMAP
FFE0
FFE0
0E00
0E00
0E00
0E00
0E00
0E00
0E00
0E00
0E00
ENDCHAR
STARTCHAR 0423
ENCODING 11317
SWIDTH 1800 0
DWIDTH 18 0
BBX 10 11 4 0
BITMAP
C1C0
6380
7380
3F00
1F00
1E00
0E00
1C00
1800
7800
7000
ENDCHAR
STARTCHAR 0424
ENCODING 11318
SWIDTH 1800 0
DWIDTH 18 0
BBX 11 11 2 0
BITMAP
0E00
1F00
7FC0
FFE0
EE60
EE60
EEE0
7FE0
3FC0
0F00
0600
ENDCHAR
STARTCHAR 0425
ENCODING 11319
SWIDTH 1800 0
DWIDTH 18 0
BBX 12 11 2 0
BITMAP
F070
78E0
39C0
1F80
0F80
0F00
1F80
1FC0
39E0
70E0
E070
ENDCHAR
STARTCHAR 0426
ENCODING 11320
SWIDTH 1800 0
DWIDTH 18 0
BBX 12 12 2 -1
BITMAP
E1C0
E1C0
E1C0
E1C0
E1C0
E1C0
E1C0
E1C0
FFE0
FFF0
0070
0070
ENDCHAR
STARTCHAR 0427
ENCODING 11321
SWIDTH 1800 0
DWIDTH 18 0
BBX 11 11 3 0
BITMAP
E0E0
E0E0
E0E0
E0E0
E0E0
E1E0
7FE0
3FE0
00E0
00E0
00E0
ENDCHAR
STARTCHAR 0428
ENCODING 11322
SWIDTH 1800 0
DWIDTH 18 0
BBX 12 11 2 0
BITMAP
E670
E670
E670
E670
E670
E670
E670
E670
E670
FFF0
FFF0
ENDCHAR
STARTCHAR 0429
ENCODING 11323
SWIDTH 1800 0
DWIDTH 18 0
BBX 13 12 2 -1
BITMAP
E770
E770
E770
E770
E770
E770
E770
E770
FFF0
FFF8
0038
0038
ENDCHAR
STARTCHAR 042A
ENCODING 11324
SWIDTH 1800 0
DWIDTH 18 0
BBX 12 11 2 0
BITMAP
F800
F800
3800
3800
3FC0
3FE0
3870
3870
3870
3FE0
3FC0
ENDCHAR
STARTCHAR 042B
ENCODING 11325
SWIDTH 1800 0
DWIDTH 18 0
BBX 12 11 2 0
BITMAP
E070
E070
E070
E070
FF70
FFF0
E1F0
E1F0
E1F0
FFF0
FF70
ENDCHAR
STARTCHAR 042C
ENCODING 11326
SWIDTH 1800 0
DWIDTH 18 0
BBX 10 11 4 0
BITMAP
E000
E000
E000
E000
FF00
FF80
E1C0
E1C0
E1C0
FF80
FF00
ENDCHAR
STARTCHAR 042D
ENCODING 11327
SWIDTH 1800 0
DWIDTH 18 0
BBX 9 12 4 0
BITMAP
1000
7E00
FF00
C380
0180
1F80
1F80
0180
C380
E780
FF00
3C00
ENDCHAR
STARTCHAR 042E
ENCODING 11328
SWIDTH 1800 0
DWIDTH 18 0
BBX 13 11 2 0
BITMAP
E3E0
E7F0
E670
EC38
FC38
FC38
FC38
FC38
EE70
EFE0
E3C0
ENDCHAR
STARTCHAR 042F
ENCODING 11329
SWIDTH 1800 0
DWIDTH 18 0
BBX 10 11 3 0
BITMAP
3FC0
7FC0
61C0
61C0
71C0
3FC0
1FC0
39C0
39C0
71C0
E1C0
ENDCHAR
STARTCHAR 0430
ENCODING 11345
SWIDTH 1800 0
DWIDTH 18 0
BBX 7 8 4 0
BITMAP
3C
FC
CE
3E
FE
CE
FE
7E
ENDCHAR
STARTCHAR 0431
ENCODING 11346
SWIDTH 1800 0
DWIDTH 18 0
BBX 8 9 4 0
BITMAP
06
3E
78
FE
FF
E3
E3
7F
3E
ENDCHAR
STARTCHAR 0432
ENCODING 11347
SWIDTH 1800 0
DWIDTH 18 0
BBX 8 8 4 0
BITMAP
FE
FF
E7
FE
FF
E3
FF
FE
ENDCHAR
STARTCHAR 0433
ENCODING 11348
SWIDTH 1800 0
DWIDTH 18 0
BBX 8 8 5 0
BITMAP
FF
FF
E0
E0
E0
E0
E0
E0
ENDCHAR
STARTCHAR 0434
ENCODING 11349
SWIDTH 1800 0
DWIDTH 18 0
BBX 9 9 4 -1
BITMAP
7F00
7F00
6700
6700
6700
FF00
FF80
C180
C180
ENDCHAR
STARTCHAR 0435
ENCODING 11350
SWIDTH 1800 0
DWIDTH 18 0
BBX 8 9 4 -1
BITMAP
3C
7E
E3
FF
FF
E3
E7
7E
1C
ENDCHAR
STARTCHAR 0451
ENCODING 11351
SWIDTH 1800 0
DWIDTH 18 0
BBX 8 10 4 0
BITMAP
E3
63
18
7E
E7
FF
FF
C3
FF
7E
ENDCHAR
STARTCHAR 0436
ENCODING 11352
SWIDTH 1800 0
DWIDTH 18 0
BBX 11 8 3 0
BITMAP
CE60
EEE0
6EC0
7FC0
7FC0
7FC0
EEE0
CE60
ENDCHAR
STARTCHAR 0437
ENCODING 11353
SWIDTH 1800 0
DWIDTH 18 0
BBX 6 8 5 0
BITMAP
78
FC
4C
3C
3C
4C
FC
78
ENDCHAR
STARTCHAR 0438
ENCODING 11354
SWIDTH 1800 0
DWIDTH 18 0
BBX 8 8 4 0
BITMAP
E3
E7
EF
EF
F7
F7
E7
C7
ENDCHAR
STARTCHAR 0439
ENCODING 11355
SWIDTH 1800 0
DWIDTH 18 0
BBX 9 9 4 0
BITMAP
3C00
FD80
E380
E780
EF80
FB80
FB80
F380
E380
ENDCHAR
STARTCHAR 043A
ENCODING 11356
SWIDTH 1800 0
DWIDTH 18 0
BBX 8 8 4 0
BITMAP
E7
EE
FC
F8
FC
EC
EE
E7
ENDCHAR
STARTCHAR 043B
ENCODING 11357
SWIDTH 1800 0
DWIDTH 18 0
BBX 8 8 4 0
BITMAP
3F
3F
3F
3F
3F
3F
F7
67
ENDCHAR
STARTCHAR 043C
ENCODING 11358
SWIDTH 1800 0
DWIDTH 18 0
BBX 10 8 3 0
BITMAP
E1C0
E1C0
F3C0
FFC0
EDC0
EDC0
E1C0
E1C0
ENDCHAR
STARTCHAR 043D
ENCODING 11359
SWIDTH 1800 0
DWIDTH 18 0
BBX 8 8 4 0
BITMAP
E7
E7
E7
FF
FF
E7
E7
E7
ENDCHAR
STARTCHAR 043E
ENCODING 11360
SWIDTH 1800 0
DWIDTH 18 0
BBX 9 8 4 0
BITMAP
3E00
7F00
E380
E380
E380
E380
7F00
3E00
ENDCHAR
STARTCHAR 043F
ENCODING 11361
SWIDTH 1800 0
DWIDTH 18 0
BBX 8 8 4 0
BITMAP
FF
FF
E7
E7
E7
E7
E7
E7
ENDCHAR
STARTCHAR 0440
ENCODING 11362
SWIDTH 1800 0
DWIDTH 18 0
BBX 8 10 4 -2
BITMAP
FC
FF
E7
E3
FF
FE
E0
E0
E0
E0
ENDCHAR
STARTCHAR 0441
ENCODING 11363
SWIDTH 1800 0
DWIDTH 18 0
BBX 9 9 4 -1
BITMAP
3E00
7F00
F300
E380
E000
E380
F300
7F00
0C00
ENDCHAR
STARTCHAR 0442
ENCODING 11364
SWIDTH 1800 0
DWIDTH 18 0
BBX 9 8 4 0
BITMAP
FF80
FF80
1C00
1C00
1C00
1C00
1C00
1C00
ENDCHAR
STARTCHAR 0443
ENCODING 11365
SWIDTH 1800 0
DWIDTH 18 0
BBX 8 9 4 -1
BITMAP
E3
66
76
3E
1C
18
38
70
60
ENDCHAR
STARTCHAR 0444
ENCODING 11366
SWIDTH 1800 0
DWIDTH 18 0
BBX 9 9 4 0
BITMAP
1C00
3E00
FF80
FF80
DD80
DD80
FF80
3E00
1C00
ENDCHAR
STARTCHAR 0445
ENCODING 11367
SWIDTH 1800 0
DWIDTH 18 0
BBX 8 8 4 0
BITMAP
E7
67
7E
3C
3C
3E
76
E7
ENDCHAR
STARTCHAR 0446
ENCODING 11368
SWIDTH 1800 0
DWIDTH 18 0
BBX 9 9 4 -1
BITMAP
E700
E700
E700
E700
E700
FF80
FF80
0380
0380
ENDCHAR
STARTCHAR 0447
ENCODING 11369
SWIDTH 1800 0
DWIDTH 18 0
BBX 8 8 4 0
BITMAP
E7
E7
E7
E7
FF
7F
07
07
ENDCHAR
STARTCHAR 0448
ENCODING 11370
SWIDTH 1800 0
DWIDTH 18 0
BBX 10 8 3 0
BITMAP
FDC0
FDC0
FDC0
FDC0
FDC0
FDC0
FFC0
FFC0
ENDCHAR
STARTCHAR 0449
ENCODING 11371
SWIDTH 1800 0
DWIDTH 18 0
BBX 10 9 3 -1
BITMAP
FDC0
FDC0
FDC0
FDC0
FDC0
FFC0
FFC0
01C0
01C0
ENDCHAR
STARTCHAR 044A
ENCODING 11372
SWIDTH 1800 0
DWIDTH 18 0
BBX 9 8 4 0
BITMAP
F000
F000
7000
7F00
7380
7380
7F80
7F00
ENDCHAR
STARTCHAR 044B
ENCODING 11373
SWIDTH 1800 0
DWIDTH 18 0
BBX 10 8 3 0
BITMAP
E1C0
E1C0
C1C0
FDC0
E7C0
E7C0
FFC0
FDC0
ENDCHAR
STARTCHAR 044C
ENCODING 11374
SWIDTH 1800 0
DWIDTH 18 0
BBX 8 8 4 0
BITMAP
E0
E0
FE
FF
E7
E7
FE
FC
ENDCHAR
STARTCHAR 044D
ENCODING 11375
SWIDTH 1800 0
DWIDTH 18 0
BBX 8 8 4 0
BITMAP
7E
FE
47
1F
1F
47
F7
7E
ENDCHAR
STARTCHAR 044E
ENCODING 11376
SWIDTH 1800 0
DWIDTH 18 0
BBX 10 8 3 0
BITMAP
E700
EF80
EDC0
F9C0
F9C0
EDC0
EF80
E780
ENDCHAR
STARTCHAR 044F
ENCODING 11377
SWIDTH 1800 0
DWIDTH 18 0
BBX 7 8 5 0
BITMAP
7E
FE
CE
FE
7E
6E
EE
CE
ENDCHAR
STARTCHAR AC00
ENCODING 12321
SWIDTH 1800 0
DWIDTH 18 0
BBX 15 14 1 -2
BITMAP
0038
FF38
FF38
0738
0738
073E
073E
0E38
1E38
7C38
F838
6038
0038
0038
ENDCHAR
STARTCHAR AC01
ENCODING 12322
SWIDTH 1800 0
DWIDTH 18 0
BBX 14 14 2 -2
BITMAP
FF70
FF70
0770
0F7C
1E7C
FC70
7870
4070
7FF0
7FF0
0070
0070
0070
0070
ENDCHAR
STARTCHAR AC04
ENCODING 12323
SWIDTH 1800 0
DWIDTH 18 0
BBX 15 14 1 -2
BITMAP
0038
FF38
FF38
073E
073E
0E38
3E38
FC38
7038
3838
3800
3800
3FFC
3FFC
ENDCHAR
STARTCHAR AC07
ENCODING 12324
SWIDTH 1800 0
DWIDTH 18 0
BBX 15 14 1 -2
BITMAP
0038
FF38
FF38
073E
0F3E
1E38
FC38
7838
4000
7FF8
7FF8
7000
7FF8
7FF8
ENDCHAR
STARTCHAR AC08
ENCODING 12325
SWIDTH 1800 0
DWIDTH 18 0
BBX 15 14 1 -2
BITMAP
0038
FF38
FF38
073E
0F3E
FE38
7C38
4038
7FF8
7FF8
7FF8
7FF8
7FF8
3FF8
ENDCHAR
STARTCHAR AC09
ENCODING 12326
SWIDTH 1800 0
DWIDTH 18 0
BBX 15 14 1 -2
BITMAP
0038
FF38
FF38
073E
0F3E
FE38
7C38
4000
7FF8
7FF8
7E38
7E38
7E38
7E38
ENDCHAR
STARTCHAR AC0A
ENCODING 12327
SWIDTH 1800 0
DWIDTH 18 0
BBX 15 14 1 -2
BITMAP
0038
7F38
7F38
073E
0F3E
FE38
7C38
2000
7FF8
7FF8
7FF8
7FF8
7FF8
7FF8
ENDCHAR
STARTCHAR AC10
ENCODING 12328
SWIDTH 1800 0
DWIDTH 18 0
BBX 15 14 1 -2
BITMAP
0038
FF38
FF38
073E
0F3E
1E38
FC38
7838
4000
7FF8
7FF8
7038
7FF8
7FF8
ENDCHAR
STARTCHAR AC11
ENCODING 12329
SWIDTH 1800 0
DWIDTH 18 0
BBX 14 14 2 -2
BITMAP
0070
FE70
FE70
0E7C
1E7C
7C70
F870
E070
E070
FFF0
FFF0
E070
FFF0
7FF0
ENDCHAR
STARTCHAR AC12
ENCODING 12330
SWIDTH 1800 0
DWIDTH 18 0
BBX 14 14 2 -2
BITMAP
0070
FE70
FE70
0E7C
1E7C
7C70
F870
E070
FC70
FC70
FCF8
FDFC
FDDC
FD88
ENDCHAR
STARTCHAR AC13
ENCODING 12331
SWIDTH 1800 0
DWIDTH 18 0
BBX 15 14 1 -2
BITMAP
0038
FF38
FF38
073E
0F3E
1E38
7C38
7838
6380
07C0
0FE0
7EFC
7C78
3018
ENDCHAR
STARTCHAR AC14
ENCODING 12332
SWIDTH 1800 0
DWIDTH 18 0
BBX 15 14 1 -2
BITMAP
0038
FF38
FF38
073E
0F3E
1E38
FC38
7000
0E70
1E70
1EF8
7FDC
73DC
428C
ENDCHAR
STARTCHAR AC15
ENCODING 12333
SWIDTH 1800 0
DWIDTH 18 0
BBX 15 14 1 -2
BITMAP
0038
FF38
FF38
073E
0F3E
1E38
FC38
7BF8
4FF0
0E38
1C38
0E38
0FF0
03E0
ENDCHAR
STARTCHAR AC16
ENCODING 12334
SWIDTH 1800 0
DWIDTH 18 0
BBX 14 14 2 -2
BITMAP
0070
FE70
FE70
0E7C
1E7C
7C70
F870
E070
FFF0
FFF0
0700
0F80
FFF0
F8F0
ENDCHAR
STARTCHAR AC17
ENCODING 12335
SWIDTH 1800 0
DWIDTH 18 0
BBX 14 14 2 -2
BITMAP
0070
FE70
FE70
0E7C
0E7C
3C70
F870
E770
FFF0
FFF0
0700
1F80
FFF0
F0F0
ENDCHAR
STARTCHAR AC19
ENCODING 12336
SWIDTH 1800 0
DWIDTH 18 0
BBX 14 14 2 -2
BITMAP
0070
FE70
FE70
0E7C
0E7C
7C70
F870
E000
FFF0
FFF0
FFF0
FFF0
FFF0
7FF0
ENDCHAR
STARTCHAR AC1A
ENCODING 12337
SWIDTH 1800 0
DWIDTH 18 0
BBX 14 14 2 -2
BITMAP
0070
FE70
FE70
0E7C
0E7C
3C70
F870
E070
7FF0
7FF0
38E0
38E0
7FF0
7FF0
ENDCHAR
STARTCHAR AC1B
ENCODING 12338
SWIDTH 1800 0
DWIDTH 18 0
BBX 15 15 1 -3
BITMAP
0038
FF38
FF38
073E
073E
1E38
FC38
F038
0380
7FFC
7CFC
1C70
1CF0
0FE0
07C0
ENDCHAR
STARTCHAR AC1C
ENCODING 12339
SWIDTH 1800 0
DWIDTH 18 0
BBX 13 14 1 -2
BITMAP
01F8
FDF8
FDF8
1DF8
1DF8
1DF8
1DF8
3DF8
39F8
F9F8
F1F8
C1F8
01F8
01F8
ENDCHAR
STARTCHAR AC1D
ENCODING 12340
SWIDTH 1800 0
DWIDTH 18 0
BBX 14 14 0 -2
BITMAP
00FC
7EFC
7EFC
0EFC
0EFC
1CFC
FCFC
78FC
0000
7FFC
7FFC
001C
001C
001C
ENDCHAR
STARTCHAR AC20
ENCODING 12341
SWIDTH 1800 0
DWIDTH 18 0
BBX 13 14 1 -2
BITMAP
01F8
FDF8
FDF8
1DF8
1DF8
39F8
79F8
F1F8
E1F8
E000
E000
E000
FFF8
FFF8
ENDCHAR
STARTCHAR AC24
ENCODING 12342
SWIDTH 1800 0
DWIDTH 18 0
BBX 13 14 1 -2
BITMAP
01F8
FDF8
FDF8
1DF8
3DF8
79F8
F1F8
E000
FFF8
FFF8
FFF8
FFF8
FFF8
7FF8
ENDCHAR
STARTCHAR AC2C
ENCODING 12343
SWIDTH 1800 0
DWIDTH 18 0
BBX 14 14 0 -2
BITMAP
00FC
7EFC
7EFC
0EFC
0EFC
1CFC
FCFC
78FC
0000
7FFC
7FFC
701C
7FFC
7FFC
ENDCHAR
STARTCHAR AC2D
ENCODING 12344
SWIDTH 1800 0
DWIDTH 18 0
BBX 13 14 1 -2
BITMAP
01F8
FDF8
FDF8
1DF8
1DF8
79F8
F1F8
E000
E038
FFF8
FFF8
E038
FFF8
7FF8
ENDCHAR
STARTCHAR AC2F
ENCODING 12345
SWIDTH 1800 0
DWIDTH 18 0
BBX 14 14 0 -2
BITMAP
00FC
7EFC
7EFC
0EFC
0EFC
1CFC
FCFC
70FC
4000
01C0
03E0
0FF8
3E3C
180C
ENDCHAR
STARTCHAR AC30
ENCODING 12346
SWIDTH 1800 0
DWIDTH 18 0
BBX 14 14 0 -2
BITMAP
00FC
7EFC
7EFC
0EFC
0EFC
1CFC
FCFC
7000
0E70
0E70
1FF8
7FFC
73DC
628C
ENDCHAR
STARTCHAR AC31
ENCODING 12347
SWIDTH 1800 0
DWIDTH 18 0
BBX 14 14 0 -2
BITMAP
00FC
7EFC
7EFC
0EFC
0EFC
1CFC
FCFC
71FC
07F8
061C
0E1C
073C
07F8
01F0
ENDCHAR
STARTCHAR AC38
ENCODING 12348
SWIDTH 1800 0
DWIDTH 18 0
BBX 15 14 1 -2
BITMAP
0038
FF38
FF3E
073E
0738
0738
073E
0E3E
1E38
7C38
F838
6038
0038
0038
ENDCHAR
STARTCHAR AC39
ENCODING 12349
SWIDTH 1800 0
DWIDTH 18 0
BBX 15 14 1 -2
BITMAP
0038
FF38
FF3E
073E
0F3E
1E3E
FC38
7838
0000
3FF8
3FF8
0038
0038
0038
ENDCHAR
STARTCHAR AC3C
ENCODING 12350
SWIDTH 1800 0
DWIDTH 18 0
BBX 15 14 1 -2
BITMAP
0038
FF38
FF3E
073E
073E
0E3E
3E38
F838
7038
7000
7000
7000
7FF8
7FF8
ENDCHAR
STARTCHAR AC40
ENCODING 12351
SWIDTH 1800 0
DWIDTH 18 0
BBX 15 14 1 -2
BITMAP
0038
FF3E
FF3E
0738
0E3E
FC3E
7038
0000
7FF8
7FF8
7FF8
7FF8
3FF8
3FF8
ENDCHAR
STARTCHAR AC4B
ENCODING 12352
SWIDTH 1800 0
DWIDTH 18 0
BBX 15 14 1 -2
BITMAP
0038
FF3E
FF3E
0738
073E
1E3E
7C38
F838
6380
07C0
0FE0
7EFC
7C78
3018
ENDCHAR
STARTCHAR AC4D
ENCODING 12353
SWIDTH 1800 0
DWIDTH 18 0
BBX 15 14 1 -2
BITMAP
0038
FF38
FF3E
073E
073E
1E3E
7C38
FBF8
6FF0
0E38
1C38
0E38
0FF0
03E0
ENDCHAR
STARTCHAR AC54
ENCODING 12354
SWIDTH 1800 0
DWIDTH 18 0
BBX 13 14 1 -2
BITMAP
01F8
FDF8
FDF8
1DF8
1DF8
1DF8
1DF8
1DF8
39F8
79F8
F1F8
E1F8
01F8
01F8
ENDCHAR
STARTCHAR AC58
ENCODING 12355
SWIDTH 1800 0
DWIDTH 18 0
BBX 13 14 1 -2
BITMAP
01F8
FDF8
FDF8
1DF8
1DF8
39F8
F9F8
F1F8
C1F8
E000
E000
E000
FFF8
FFF8
ENDCHAR
STARTCHAR AC5C
ENCODING 12356
SWIDTH 1800 0
DWIDTH 18 0
BBX 13 14 1 -2
BITMAP
01F8
FDF8
FDF8
1DF8
3DF8
F9F8
F1F8
FFF8
7FF8
0038
7FF8
7FF8
7FF8
7FF8
ENDCHAR
STARTCHAR AC70
ENCODING 12357
SWIDTH 1800 0
DWIDTH 18 0
BBX 14 14 0 -2
BITMAP
001C
FF1C
FF1C
071C
077C
077C
0F1C
0E1C
1E1C
7C1C
F81C
701C
001C
001C
ENDCHAR
STARTCHAR AC71
ENCODING 12358
SWIDTH 1800 0
DWIDTH 18 0
BBX 13 14 1 -2
BITMAP
0038
FF38
FF38
07F8
0FF8
1E38
FC38
F838
4000
FFF8
FFF8
0038
0038
0038
ENDCHAR
STARTCHAR AC74
ENCODING 12359
SWIDTH 1800 0
DWIDTH 18 0
BBX 14 14 1 -2
BITMAP
0038
FF38
FF38
07F8
07F8
0E38
7E38
F838
6038
7000
7000
7000
7FFC
7FFC
ENDCHAR
STARTCHAR AC77
ENCODING 12360
SWIDTH 1800 0
DWIDTH 18 0
BBX 13 14 1 -2
BITMAP
0038
FF38
FF38
06F8
0EF8
3E38
F838
E000
FFF8
FFF8
E000
E000
FFF8
7FF8
ENDCHAR
STARTCHAR AC78
ENCODING 12361
SWIDTH 1800 0
DWIDTH 18 0
BBX 13 14 1 -2
BITMAP
0038
FF38
FF38
0EF8
1EF8
FC38
F038
0000
7FF8
7FF8
7FF8
7FF8
7FF8
7FF8
ENDCHAR
STARTCHAR AC7A
ENCODING 12362
SWIDTH 1800 0
DWIDTH 18 0
BBX 13 14 1 -2
BITMAP
0038
FF38
FF38
0EF8
1EF8
FC38
F038
0000
7DF8
7DF8
7DF8
7DF8
7FF8
7FF8
ENDCHAR
STARTCHAR AC80
ENCODING 12363
SWIDTH 1800 0
DWIDTH 18 0
BBX 13 14 1 -2
BITMAP
0038
FF38
FF38
06F8
0EF8
3E38
F838
E038
0000
FFF8
FFF8
E038
FFF8
FFF8
ENDCHAR
STARTCHAR AC81
ENCODING 12364
SWIDTH 1800 0
DWIDTH 18 0
BBX 13 14 1 -2
BITMAP
0038
FF38
FF38
06F8
0EF8
3E38
F838
E038
E038
FFF8
FFF8
E038
FFF8
7FF8
ENDCHAR
STARTCHAR AC83
ENCODING 12365
SWIDTH 1800 0
DWIDTH 18 0
BBX 13 14 1 -2
BITMAP
0038
FF38
FF38
0738
07F8
0EF8
3C38
F838
63B8
07C0
0FE0
7EF8
7C78
3018
ENDCHAR
STARTCHAR AC84
ENCODING 12366
SWIDTH 1800 0
DWIDTH 18 0
BBX 13 14 1 -2
BITMAP
0038
FF38
FF38
06F8
0EF8
3E38
F838
E000
1CE0
1CE0
3FF0
FFF8
E7B8
C118
ENDCHAR
STARTCHAR AC85
ENCODING 12367
SWIDTH 1800 0
DWIDTH 18 0
BBX 13 14 1 -2
BITMAP
0038
FF38
FF38
07F8
07F8
0E38
3C38
FBF8
6FF0
0E38
1C38
0E38
0FF0
03E0
ENDCHAR
STARTCHAR AC86
ENCODING 12368
SWIDTH 1800 0
DWIDTH 18 0
BBX 13 14 1 -2
BITMAP
0038
FF38
FF38
06F8
0EF8
3E38
F838
E000
7FF8
7FF8
0780
0F80
7FF8
7870
ENDCHAR
STARTCHAR AC89
ENCODING 12369
SWIDTH 1800 0
DWIDTH 18 0
BBX 14 14 0 -2
BITMAP
001C
7F9C
7F9C
03FC
0F7C
FE1C
781C
0000
3FFC
3FFC
3FFC
3FFC
3FFC
3FFC
ENDCHAR
STARTCHAR AC8A
ENCODING 12370
SWIDTH 1800 0
DWIDTH 18 0
BBX 13 14 1 -2
BITMAP
0038
FF38
FF38
07F8
0FF8
1E38
FC38
F000
7FF8
7FF8
38E0
38E0
FFF8
FFF8
ENDCHAR
STARTCHAR AC8B
ENCODING 12371
SWIDTH 1800 0
DWIDTH 18 0
BBX 14 15 1 -3
BITMAP
0038
FF38
FF38
07F8
0FF8
1E38
FC38
F038
0380
7FFC
7CFC
1C70
1CF0
0FE0
07C0
ENDCHAR
STARTCHAR AC8C
ENCODING 12372
SWIDTH 1800 0
DWIDTH 18 0
BBX 13 14 1 -2
BITMAP
01F8
FDF8
FDF8
1DF8
1FF8
1FF8
1DF8
39F8
79F8
F1F8
E1F8
C1F8
01F8
01F8
ENDCHAR
STARTCHAR AC90
ENCODING 12373
SWIDTH 1800 0
DWIDTH 18 0
BBX 13 14 1 -2
BITMAP
01F8
FDF8
FDF8
1FF8
1FF8
39F8
79F8
F1F8
E1F8
E1F8
E000
E000
FFF8
FFF8
ENDCHAR
STARTCHAR AC94
ENCODING 12374
SWIDTH 1800 0
DWIDTH 18 0
BBX 13 14 1 -2
BITMAP
01F8
FDF8
FDF8
1FF8
3FF8
F9F8
F1F8
41C0
7FF8
7FF8
FFF8
FFF8
FFF8
7FF8
ENDCHAR
STARTCHAR AC9C
ENCODING 12375
SWIDTH 1800 0
DWIDTH 18 0
BBX 14 14 0 -2
BITMAP
00FC
7EFC
7EFC
0FFC
0FFC
1CFC
FCFC
70FC
0000
7FFC
7FFC
701C
7FFC
7FFC
ENDCHAR
STARTCHAR AC9D
ENCODING 12376
SWIDTH 1800 0
DWIDTH 18 0
BBX 13 14 1 -2
BITMAP
01F8
FDF8
FDF8
1FF8
1FF8
79F8
F1F8
E1F8
E038
FFF8
FFF8
E038
FFF8
7FF8
ENDCHAR
STARTCHAR AC9F
ENCODING 12377
SWIDTH 1800 0
DWIDTH 18 0
BBX 14 14 1 -2
BITMAP
01F8
FDF8
FDF8
1FF8
1FF8
39F8
F9F8
F1F8
C380
07C0
0FE0
7EFC
7C78
3018
ENDCHAR
STARTCHAR ACA0
ENCODING 12378
SWIDTH 1800 0
DWIDTH 18 0
BBX 13 14 1 -2
BITMAP
01F8
FDF8
FDF8
1FF8
3FF8
F9F8
F1F8
0000
1CE0
1CE0
3FF0
FFF8
E7B8
C518
ENDCHAR
STARTCHAR ACA1
ENCODING 12379
SWIDTH 1800 0
DWIDTH 18 0
BBX 13 14 1 -2
BITMAP
01F8
FDF8
FDF8
1FF8
1FF8
39F8
79F8
F3F8
C7F0
0C38
0C38
0E78
0FF0
03E0
ENDCHAR
STARTCHAR ACA8
ENCODING 12380
SWIDTH 1800 0
DWIDTH 18 0
BBX 13 14 1 -2
BITMAP
0038
FE38
FE38
0FF8
0FF8
0E38
1FF8
1DF8
3C38
F838
F038
C038
0038
0038
ENDCHAR
STARTCHAR ACA9
ENCODING 12381
SWIDTH 1800 0
DWIDTH 18 0
BBX 13 14 1 -2
BITMAP
0038
FE38
FFF8
0FF8
0E38
3DF8
F9F8
E038
0000
7FF8
7FF8
0038
0038
0038
ENDCHAR
STARTCHAR ACAA
ENCODING 12382
SWIDTH 1800 0
DWIDTH 18 0
BBX 13 14 1 -2
BITMAP
0038
FE38
FFF8
0FF8
0E38
3DF8
F9F8
E038
0000
FDF8
FDF8
1C38
1C38
1C38
ENDCHAR
STARTCHAR ACAC
ENCODING 12383
SWIDTH 1800 0
DWIDTH 18 0
BBX 13 14 1 -2
BITMAP
0038
FE38
FFF8
0FF8
0E38
3DF8
F9F8
E038
0038
E000
E000
E000
FFF8
FFF8
ENDCHAR
STARTCHAR ACAF
ENCODING 12384
SWIDTH 1800 0
DWIDTH 18 0
BBX 13 14 1 -2
BITMAP
0038
FE38
FFF8
0FF8
0E38
3DF8
F9F8
E038
0000
FFF8
FFF8
E000
FFF8
FFF8
ENDCHAR
STARTCHAR ACB0
ENCODING 12385
SWIDTH 1800 0
DWIDTH 18 0
BBX 14 14 0 -2
BITMAP
001C
7FFC
7FFC
071C
0EFC
FEFC
781C
0000
3FFC
3FFC
7FFC
7FFC
7FFC
3FFC
ENDCHAR
STARTCHAR ACB8
ENCODING 12386
SWIDTH 1800 0
DWIDTH 18 0
BBX 13 14 1 -2
BITMAP
0038
FE38
FFF8
0FF8
0E38
3DF8
F9F8
E038
0000
FFF8
FFF8
E038
FFF8
FFF8
ENDCHAR
STARTCHAR ACB9
ENCODING 12387
SWIDTH 1800 0
DWIDTH 18 0
BBX 13 14 1 -2
BITMAP
0038
FFF8
FFF8
0E38
0E38
1DF8
F9F8
E038
E038
FFF8
FFF8
E038
FFF8
7FF8
ENDCHAR
STARTCHAR ACBB
ENCODING 12388
SWIDTH 1800 0
DWIDTH 18 0
BBX 13 14 1 -2
BITMAP
01F8
FFF8
FE38
0E38
0FF8
1DF8
3C38
F800
E380
07C0
0FE0
7EF8
7C78
3018
ENDCHAR
STARTCHAR ACBC
ENCODING 12389
SWIDTH 1800 0
DWIDTH 18 0
BBX 14 14 1 -2
BITMAP
0038
FEF8
FEF8
0E38
0E38
3CF8
F8F8
E038
0000
1CE0
3CE0
7FF0
F7BC
C518
ENDCHAR
STARTCHAR ACBD
ENCODING 12390
SWIDTH 1800 0
DWIDTH 18 0
BBX 13 14 1 -2
BITMAP
0038
FE38
FFF8
0FF8
0E38
1DF8
3DF8
FBF8
EFF0
0E38
1C38
0E38
0FF0
03E0
ENDCHAR
STARTCHAR ACC1
ENCODING 12391
SWIDTH 1800 0
DWIDTH 18 0
BBX 13 14 1 -2
BITMAP
0038
FFF8
FFF8
0E38
1DF8
FDF8
F038
0000
FFF8
FFF8
FFF8
FFF8
FFF8
7FF8
ENDCHAR
STARTCHAR ACC4
ENCODING 12392
SWIDTH 1800 0
DWIDTH 18 0
BBX 14 14 0 -2
BITMAP
00FC
7EFC
7FFC
0FFC
0EFC
0EFC
1DFC
1DFC
38FC
F8FC
70FC
00FC
00FC
00FC
ENDCHAR
STARTCHAR ACC8
ENCODING 12393
SWIDTH 1800 0
DWIDTH 18 0
BBX 13 14 1 -2
BITMAP
01F8
FDF8
FFF8
1FF8
1DF8
3BF8
7BF8
F1F8
41F8
E1C0
E000
E000
FFF8
FFF8
ENDCHAR
STARTCHAR ACCC
ENCODING 12394
SWIDTH 1800 0
DWIDTH 18 0
BBX 13 14 1 -2
BITMAP
01F8
FBF8
FBF8
19F8
3BF8
F3F8
E1F8
C000
FFF8
FFF8
FFF8
FFF8
FFF8
7FF8
ENDCHAR
STARTCHAR ACD5
ENCODING 12395
SWIDTH 1800 0
DWIDTH 18 0
BBX 13 14 1 -2
BITMAP
01F8
FBF8
FBF8
19F8
3BF8
FBF8
F1F8
C1F8
E038
FFF8
FFF8
E038
FFF8
7FF8
ENDCHAR
STARTCHAR ACD7
ENCODING 12396
SWIDTH 1800 0
DWIDTH 18 0
BBX 15 14 0 -2
BITMAP
00FC
7DFC
7DFC
0CFC
1CFC
3DFC
F9FC
7000
41C0
01C0
07F0
3F7E
3E3C
180C
ENDCHAR
STARTCHAR ACE0
ENCODING 12397
SWIDTH 1800 0
DWIDTH 18 0
BBX 15 12 1 -1
BITMAP
7FF8
7FF8
0038
0038
0038
0038
0E38
0E38
0E38
0E38
FFFE
FFFE
ENDCHAR
STARTCHAR ACE1
ENCODING 12398
SWIDTH 1800 0
DWIDTH 18 0
BBX 14 13 1 -2
BITMAP
7FF8
7FF8
0038
0738
0738
FFFC
FFFC
0000
7FF8
7FF8
0038
0038
0038
ENDCHAR
STARTCHAR ACE4
ENCODING 12399
SWIDTH 1800 0
DWIDTH 18 0
BBX 15 13 1 -2
BITMAP
7FF8
7FF8
0038
0738
0738
0738
FFFE
FFFE
7000
7000
7000
7FFC
7FFC
ENDCHAR
STARTCHAR ACE7
ENCODING 12400
SWIDTH 1800 0
DWIDTH 18 0
BBX 15 13 0 -2
BITMAP
3FFC
3FFC
001C
071C
071C
FFFE
FFFE
0000
3FFC
3FFC
3800
3FFC
3FFC
ENDCHAR
STARTCHAR ACE8
ENCODING 12401
SWIDTH 1800 0
DWIDTH 18 0
BBX 15 13 0 -2
BITMAP
7FF8
7FF8
0718
0738
FFFE
FFFE
0000
3FFC
3FFC
3FFC
3FFC
3FFE
3FFE
ENDCHAR
STARTCHAR ACEA
ENCODING 12402
SWIDTH 1800 0
DWIDTH 18 0
BBX 15 13 1 -2
BITMAP
7FF8
7FF8
0718
0738
FFFE
FFFE
0000
7FF8
7FF8
7FF8
7FF8
7FF8
7FF8
ENDCHAR
STARTCHAR ACEC
ENCODING 12403
SWIDTH 1800 0
DWIDTH 18 0
BBX 14 13 1 -2
BITMAP
7FF8
7FF8
0738
0738
FFFC
FFFC
0000
FC70
FC70
FCF8
FDFC
FDDC
7C80
ENDCHAR
STARTCHAR ACEF
ENCODING 12404
SWIDTH 1800 0
DWIDTH 18 0
BBX 15 14 1 -3
BITMAP
7FF8
7FF8
0718
0738
FFFE
FFFE
0060
FFFC
FFFC
FDF8
FD98
FDF8
7DF8
00F0
ENDCHAR
STARTCHAR ACF0
ENCODING 12405
SWIDTH 1800 0
DWIDTH 18 0
BBX 14 13 1 -2
BITMAP
7FF8
7FF8
0038
0738
0738
FFFC
FFFC
0000
7FF8
7FF8
7038
7FF8
7FF8
ENDCHAR
STARTCHAR ACF1
ENCODING 12406
SWIDTH 1800 0
DWIDTH 18 0
BBX 14 13 1 -2
BITMAP
7FF8
7FF8
0038
0738
0738
FFFC
FFFC
7038
7FF8
7FF8
7038
7FF8
7FF8
ENDCHAR
STARTCHAR ACF3
ENCODING 12407
SWIDTH 1800 0
DWIDTH 18 0
BBX 14 14 1 -2
BITMAP
7FF8
7FF8
0038
0038
0738
0738
FFFC
FFFC
0380
0380
0FC0
FEF8
7C78
3018
ENDCHAR
STARTCHAR ACF5
ENCODING 12408
SWIDTH 1800 0
DWIDTH 18 0
BBX 14 13 1 -2
BITMAP
7FF8
7FF8
0038
0738
0738
FFFC
FFFC
0FE0
1870
1870
1CF0
0FE0
07C0
ENDCHAR
STARTCHAR ACF6
ENCODING 12409
SWIDTH 1800 0
DWIDTH 18 0
BBX 14 13 1 -2
BITMAP
7FF8
7FF8
0038
0738
0738
FFFC
FFFC
7FF8
7FF8
0780
0FC0
7FF8
7878
ENDCHAR
STARTCHAR ACFC
ENCODING 12410
SWIDTH 1800 0
DWIDTH 18 0
BBX 15 14 1 -2
BITMAP
0038
7FB8
7FB8
03B8
03B8
3BBE
3BBE
3BB8
3BB8
FFF8
FFF8
0038
0038
0038
ENDCHAR
STARTCHAR ACFD
ENCODING 12411
SWIDTH 1800 0
DWIDTH 18 0
BBX 15 14 1 -2
BITMAP
0038
7FB8
7FB8
03BE
3BBE
3BB8
FFF8
FFF8
0038
7FF8
7FF8
0038
0038
0038
ENDCHAR
STARTCHAR AD00
ENCODING 12412
SWIDTH 1800 0
DWIDTH 18 0
BBX 15 14 1 -2
BITMAP
0038
7FB8
7FB8
03BE
3BBE
3BB8
FFF8
FFF8
0038
7000
7000
7000
7FF8
7FF8
ENDCHAR
STARTCHAR AD04
ENCODING 12413
SWIDTH 1800 0
DWIDTH 18 0
BBX 15 14 1 -2
BITMAP
0038
7FB8
7FB8
3BBE
3BBE
FFF8
FFF8
0000
7FF8
7FF8
7FF8
7FF8
7FF8
3FF8
ENDCHAR
STARTCHAR AD06
ENCODING 12414
SWIDTH 1800 0
DWIDTH 18 0
BBX 15 14 1 -2
BITMAP
0038
7FB8
7FB8
3BBE
3BBE
FFF8
FFF8
0000
7DF8
7DF8
7DF8
7DF8
7FF8
7FF8
ENDCHAR
STARTCHAR AD0C
ENCODING 12577
SWIDTH 1800 0
DWIDTH 18 0
BBX 15 14 1 -2
BITMAP
0038
FFB8
FFB8
03BE
3BBE
3BB8
FFF8
FFF8
7FF8
7FF8
7038
7038
7FF8
3FF8
ENDCHAR
STARTCHAR AD0D
ENCODING 12578
SWIDTH 1800 0
DWIDTH 18 0
BBX 15 14 1 -2
BITMAP
0038
FFB8
FFB8
03BE
3BBE
3BB8
FFF8
FFF8
7038
7FF8
7FF8
7038
7FF8
3FF8
ENDCHAR
STARTCHAR AD0F
ENCODING 12579
SWIDTH 1800 0
DWIDTH 18 0
BBX 15 14 1 -2
BITMAP
FFB8
FFB8
03B8
03BE
3BBE
3BB8
FFF8
FFF8
03B8
07C0
1FF0
7EFC
7878
2018
ENDCHAR
STARTCHAR AD11
ENCODING 12580
SWIDTH 1800 0
DWIDTH 18 0
BBX 15 14 1 -2
BITMAP
0038
FFB8
FFB8
03BE
3BBE
3BB8
FFF8
FFF8
0FF0
1C38
1C38
1E78
0FF0
07E0
ENDCHAR
STARTCHAR AD18
ENCODING 12581
SWIDTH 1800 0
DWIDTH 18 0
BBX 13 14 1 -2
BITMAP
01F8
FFF8
FFF8
0FF8
0FF8
7FF8
7FF8
7FF8
7FF8
FFF8
FFF8
01F8
01F8
01F8
ENDCHAR
STARTCHAR AD1C
ENCODING 12582
SWIDTH 1800 0
DWIDTH 18 0
BBX 14 14 1 -2
BITMAP
01F8
FFF8
FFF8
0FF8
7FF8
7FF8
FFF8
FFF8
01F8
71F8
7000
7000
7FFC
7FFC
ENDCHAR
STARTCHAR AD20
ENCODING 12583
SWIDTH 1800 0
DWIDTH 18 0
BBX 14 14 0 -2
BITMAP
00FC
7FFC
7FFC
3FFC
3FFC
FFFC
FFFC
0000
3FFC
3FFC
3FFC
3FFC
3FFC
3FFC
ENDCHAR
STARTCHAR AD29
ENCODING 12584
SWIDTH 1800 0
DWIDTH 18 0
BBX 14 14 0 -2
BITMAP
00FC
7FFC
7FFC
07FC
3FFC
3FFC
FFFC
FFFC
381C
3FFC
3FFC
381C
3FFC
1FFC
ENDCHAR
STARTCHAR AD2C
ENCODING 12585
SWIDTH 1800 0
DWIDTH 18 0
BBX 15 14 0 -2
BITMAP
00FC
00FC
7FFC
7FFC
07FC
3AFC
FFFC
FFFC
0000
0E70
1E78
3FFC
7BDE
628C
ENDCHAR
STARTCHAR AD2D
ENCODING 12586
SWIDTH 1800 0
DWIDTH 18 0
BBX 14 14 0 -2
BITMAP
00FC
7FFC
7FFC
07FC
3FFC
3FFC
FFFC
FFFC
07F8
061C
0E1C
0F3C
07F8
01F0
ENDCHAR
STARTCHAR AD34
ENCODING 12587
SWIDTH 1800 0
DWIDTH 18 0
BBX 13 14 1 -2
BITMAP
0038
FFB8
FFB8
03B8
03B8
3BB8
3BB8
3BB8
3BB8
FFF8
FFF8
0038
0038
0038
ENDCHAR
STARTCHAR AD35
ENCODING 12588
SWIDTH 1800 0
DWIDTH 18 0
BBX 13 14 1 -2
BITMAP
0038
FFB8
FFB8
03B8
3BB8
3BB8
FFF8
FFF8
0000
7FF8
7FF8
0038
0038
0038
ENDCHAR
STARTCHAR AD38
ENCODING 12589
SWIDTH 1800 0
DWIDTH 18 0
BBX 13 14 1 -2
BITMAP
0038
FFB8
FFB8
03B8
03B8
3BB8
3BB8
FFF8
FFF8
7038
7038
7000
7FF8
7FF8
ENDCHAR
STARTCHAR AD3C
ENCODING 12590
SWIDTH 1800 0
DWIDTH 18 0
BBX 13 14 1 -2
BITMAP
0038
FFB8
FFB8
3BB8
3BB8
FFF8
FFF8
0000
7FF8
7FF8
7FF8
7FF8
7FF8
7FF8
ENDCHAR
STARTCHAR AD44
ENCODING 12591
SWIDTH 1800 0
DWIDTH 18 0
BBX 13 14 1 -2
BITMAP
0038
FFB8
FFB8
03B8
3BB8
3BB8
FFF8
FFF8
0000
7FF8
7FF8
7038
7FF8
7FF8
ENDCHAR
STARTCHAR AD45
ENCODING 12592
SWIDTH 1800 0
DWIDTH 18 0
BBX 13 14 1 -2
BITMAP
0038
FFB8
FFB8
03B8
3BB8
3BB8
FFF8
FFF8
7038
7FF8
7FF8
7038
7FF8
7FF8
ENDCHAR
STARTCHAR AD47
ENCODING 12593
SWIDTH 1800 0
DWIDTH 18 0
BBX 13 14 1 -2
BITMAP
0038
0038
FFB8
FFB8
03B8
3BB8
FFF8
FFF8
0738
0F80
3FE0
F8F8
F070
4030
ENDCHAR
STARTCHAR AD49
ENCODING 12594
SWIDTH 1800 0
DWIDTH 18 0
BBX 13 14 1 -2
BITMAP
0038
FFB8
FFB8
03B8
3BB8
3BB8
FFF8
FFF8
0FF0
1C38
1C38
1E78
0FF0
07E0
ENDCHAR
STARTCHAR AD50
ENCODING 12595
SWIDTH 1800 0
DWIDTH 18 0
BBX 15 12 0 -1
BITMAP
3FFC
3FFC
001C
001C
1DDC
1DDC
1DDC
1DDC
1DDC
1DDC
FFFE
FFFE
ENDCHAR
STARTCHAR AD54
ENCODING 12596
SWIDTH 1800 0
DWIDTH 18 0
BBX 15 13 0 -2
BITMAP
3FFC
3FFC
001C
001C
1DDC
1DDC
FFFE
FFFE
3800
3800
3800
3FFE
3FFE
ENDCHAR
STARTCHAR AD58
ENCODING 12597
SWIDTH 1800 0
DWIDTH 18 0
BBX 15 13 0 -2
BITMAP
3FFC
3FFC
001C
1DDC
1DDC
FFFE
FFFE
3FFC
3FFC
3FFC
3FFC
3FFC
3FFC
ENDCHAR
STARTCHAR AD61
ENCODING 12598
SWIDTH 1800 0
DWIDTH 18 0
BBX 15 13 0 -2
BITMAP
3FFC
3FFC
001C
1DDC
1DDC
FFFE
FFFE
381C
3FFC
3FFC
381C
3FFC
3FFC
ENDCHAR
STARTCHAR AD63
ENCODING 12599
SWIDTH 1800 0
DWIDTH 18 0
BBX 15 14 0 -2
BITMAP
3FFC
3FFC
001C
001C
1DDC
1DDC
FFFE
FFFE
0380
0380
07C0
FEF0
7C78
3018
ENDCHAR
STARTCHAR AD6C
ENCODING 12600
SWIDTH 1800 0
DWIDTH 18 0
BBX 14 13 1 -2
BITMAP
7FF8
7FF8
0038
0038
0038
0038
FFFC
FFFC
0700
0700
0700
0700
0700
ENDCHAR
STARTCHAR AD6D
ENCODING 12601
SWIDTH 1800 0
DWIDTH 18 0
BBX 15 13 0 -2
BITMAP
3FFC
3FFC
001C
001C
FFFE
FFFE
0380
0380
7FFC
7FFC
001C
001C
001C
ENDCHAR
STARTCHAR AD70
ENCODING 12602
SWIDTH 1800 0
DWIDTH 18 0
BBX 14 13 1 -2
BITMAP
7FF8
7FF8
0038
0038
0038
FFFC
FFFC
0380
7380
7380
7000
7FFC
7FFC
ENDCHAR
STARTCHAR AD73
ENCODING 12603
SWIDTH 1800 0
DWIDTH 18 0
BBX 14 13 1 -2
BITMAP
7FF8
7FF8
0038
0038
FFFC
FFFC
0380
7FFC
7FFC
7000
7000
7FFC
3FFC
ENDCHAR
STARTCHAR AD74
ENCODING 12604
SWIDTH 1800 0
DWIDTH 18 0
BBX 14 13 1 -2
BITMAP
7FF8
7FF8
0038
0038
FFFC
FFFC
0700
7FF8
7FF8
7FF8
7FF8
7FF8
7FF8
ENDCHAR
STARTCHAR AD75
ENCODING 12605
SWIDTH 1800 0
DWIDTH 18 0
BBX 14 13 1 -2
BITMAP
7FF8
7FF8
0038
0038
FFFC
FFFC
0000
7FF8
7FF8
7E38
7E38
7E38
7E38
ENDCHAR
STARTCHAR AD76
ENCODING 12606
SWIDTH 1800 0
DWIDTH 18 0
BBX 14 13 1 -2
BITMAP
7FF8
7FF8
0038
0038
FFFC
FFFC
0000
7FF8
7FF8
7FF8
7FF8
7FF8
7FF8
ENDCHAR
STARTCHAR AD7B
ENCODING 12607
SWIDTH 1800 0
DWIDTH 18 0
BBX 14 13 1 -2
BITMAP
7FF8
7FF8
0038
0038
FFFC
FFFC
0070
FDFC
FDFC
FDF8
FD9C
FFFC
7EF0
ENDCHAR
STARTCHAR AD7C
ENCODING 12608
SWIDTH 1800 0
DWIDTH 18 0
BBX 14 13 1 -2
BITMAP
7FF8
7FF8
0038
0038
FFFC
FFFC
0780
0780
7FF8
7FF8
7038
7FF8
7FF8
ENDCHAR
STARTCHAR AD7D
ENCODING 12609
SWIDTH 1800 0
DWIDTH 18 0
BBX 15 13 0 -2
BITMAP
3FFC
3FFC
001C
001C
FFFE
FFFE
0380
381C
3FFC
3FFC
381C
3FFC
3FFC
ENDCHAR
STARTCHAR AD7F
ENCODING 12610
SWIDTH 1800 0
DWIDTH 18 0
BBX 14 13 1 -2
BITMAP
7FF8
7FF8
0038
0038
FFFC
FFFC
0780
0380
0380
07C0
FEF0
7C78
3018
ENDCHAR
STARTCHAR AD81
ENCODING 12611
SWIDTH 1800 0
DWIDTH 18 0
BBX 14 13 1 -2
BITMAP
7FF8
7FF8
0038
0038
FFFC
FFFC
0700
1FC0
1DE0
38E0
38E0
1FC0
0F80
ENDCHAR
STARTCHAR AD82
ENCODING 12612
SWIDTH 1800 0
DWIDTH 18 0
BBX 14 13 1 -2
BITMAP
7FF8
7FF8
0038
0038
0038
FFFC
FFFC
7FF8
7FF8
0700
0FC0
7FF8
7070
ENDCHAR
STARTCHAR AD88
ENCODING 12613
SWIDTH 1800 0
DWIDTH 18 0
BBX 14 14 0 -2
BITMAP
001C
7FDC
7FDC
01DC
01DC
01DC
01DC
FFFC
FFFC
0E1C
0EFC
0EFC
0E1C
0E1C
ENDCHAR
STARTCHAR AD89
ENCODING 12614
SWIDTH 1800 0
DWIDTH 18 0
BBX 14 14 0 -2
BITMAP
001C
7F9C
7FFC
03FC
039C
FFFC
FFFC
0E1C
0000
3FFC
3FFC
001C
001C
001C
ENDCHAR
STARTCHAR AD8C
ENCODING 12615
SWIDTH 1800 0
DWIDTH 18 0
BBX 13 14 1 -2
BITMAP
0038
FF38
FF38
07F8
07F8
0738
FFF8
FFF8
0E38
7E38
7000
7000
7FF8
7FF8
ENDCHAR
STARTCHAR AD90
ENCODING 12616
SWIDTH 1800 0
DWIDTH 18 0
BBX 13 14 1 -2
BITMAP
0038
FF38
FFF8
07F8
0738
FFF8
FFF8
0000
7FF8
7FF8
7FF8
7FF8
7FF8
7FF8
ENDCHAR
STARTCHAR AD9C
ENCODING 12617
SWIDTH 1800 0
DWIDTH 18 0
BBX 14 14 1 -2
BITMAP
0038
FF38
FFF8
07F8
0738
C778
FFF8
1C38
0000
1CE0
3CF0
7FF8
F7BC
C518
ENDCHAR
STARTCHAR AD9D
ENCODING 12618
SWIDTH 1800 0
DWIDTH 18 0
BBX 14 14 0 -2
BITMAP
001C
7F9C
7FBC
03BC
039C
FFFC
FFFC
0E1C
07F0
0638
0E38
0E38
07F8
03E0
ENDCHAR
STARTCHAR ADA4
ENCODING 12619
SWIDTH 1800 0
DWIDTH 18 0
BBX 14 14 0 -2
BITMAP
00FC
FEFC
FEFC
0EFC
0EFC
0EFC
0EFC
7FFC
7FFC
1CFC
1FFC
1FFC
1CFC
1CFC
ENDCHAR
STARTCHAR ADB7
ENCODING 12620
SWIDTH 1800 0
DWIDTH 18 0
BBX 13 14 1 -2
BITMAP
7FF8
7FF8
0FF8
0FF8
0FF8
FFF8
FFF8
3FF8
39F8
0780
0FC0
FFF8
78F8
6030
ENDCHAR
STARTCHAR ADC0
ENCODING 12621
SWIDTH 1800 0
DWIDTH 18 0
BBX 13 14 1 -2
BITMAP
0038
FF38
FF38
0738
0738
0738
0738
FFF8
FFF8
1C38
1C38
1C38
1C38
1C38
ENDCHAR
STARTCHAR ADC1
ENCODING 12622
SWIDTH 1800 0
DWIDTH 18 0
BBX 13 14 1 -2
BITMAP
0038
FF38
FF38
0738
0738
FFF8
FFF8
1C38
0000
7FF8
7FF8
0038
0038
0038
ENDCHAR
STARTCHAR ADC4
ENCODING 12623
SWIDTH 1800 0
DWIDTH 18 0
BBX 14 14 0 -2
BITMAP
001C
7F9C
7F9C
039C
039C
FFFC
FFFC
0E1C
0E1C
381C
3800
3800
3FFC
3FFC
ENDCHAR
STARTCHAR ADC8
ENCODING 12624
SWIDTH 1800 0
DWIDTH 18 0
BBX 13 14 1 -2
BITMAP
0038
FF38
FF38
0738
0738
FFF8
FFF8
0038
7FF8
7FF8
7FF8
7FF8
7FF8
7FF8
ENDCHAR
STARTCHAR ADD0
ENCODING 12625
SWIDTH 1800 0
DWIDTH 18 0
BBX 13 14 1 -2
BITMAP
0038
FF38
FF38
0738
0738
0738
FFF8
FFF8
7FF8
7FF8
7038
7038
7FF8
3FF8
ENDCHAR
STARTCHAR ADD1
ENCODING 12626
SWIDTH 1800 0
DWIDTH 18 0
BBX 13 14 1 -2
BITMAP
0038
FF38
FF38
0738
0738
0738
FFF8
FFF8
7038
7FF8
7FF8
7038
7FF8
7FF8
ENDCHAR
STARTCHAR ADD3
ENCODING 12627
SWIDTH 1800 0
DWIDTH 18 0
BBX 13 14 1 -2
BITMAP
0038
FF38
FF38
0738
0738
FFF8
FFF8
1C38
1FB8
0380
0FC0
7EF8
7C78
3018
ENDCHAR
STARTCHAR ADDC
ENCODING 12628
SWIDTH 1800 0
DWIDTH 18 0
BBX 14 13 1 -2
BITMAP
7FF8
7FF8
0038
0038
0038
FFFC
FFFC
1CE0
1CE0
1CE0
1CE0
1CE0
1CE0
ENDCHAR
STARTCHAR ADE0
ENCODING 12629
SWIDTH 1800 0
DWIDTH 18 0
BBX 14 13 1 -2
BITMAP
7FF8
7FF8
0038
0038
0038
FFFC
FFFC
0E70
7E70
7000
7000
7FF8
7FF8
ENDCHAR
STARTCHAR ADE4
ENCODING 12630
SWIDTH 1800 0
DWIDTH 18 0
BBX 14 13 1 -2
BITMAP
7FF8
7FF8
0038
0038
FFFC
FFFC
7FF8
7FF8
0038
7FF8
7FF8
7FF8
7FF8
ENDCHAR
STARTCHAR ADF8
ENCODING 12631
SWIDTH 1800 0
DWIDTH 18 0
BBX 14 12 2 -1
BITMAP
7FF0
7FF0
0070
0070
0070
0070
0070
0070
0070
0070
FFFC
FFFC
ENDCHAR
STARTCHAR ADF9
ENCODING 12632
SWIDTH 1800 0
DWIDTH 18 0
BBX 15 13 1 -2
BITMAP
7FF8
7FF8
0038
0038
0038
FFFE
FFFE
7FF8
7FF8
0038
0038
0038
0038
ENDCHAR
STARTCHAR ADFC
ENCODING 12633
SWIDTH 1800 0
DWIDTH 18 0
BBX 14 13 1 -2
BITMAP
7FF8
7FF8
0038
0038
0038
FFFC
FFFC
0000
7000
7000
7000
7FFC
7FFC
ENDCHAR
STARTCHAR ADFF
ENCODING 12634
SWIDTH 1800 0
DWIDTH 18 0
BBX 14 13 1 -2
BITMAP
7FF8
7FF8
0038
0038
FFFC
FFFC
0000
7FFC
7FFC
7000
7000
7FFC
7FFC
ENDCHAR
STARTCHAR AE00
ENCODING 12635
SWIDTH 1800 0
DWIDTH 18 0
BBX 14 13 1 -2
BITMAP
7FF8
7FF8
0038
0038
FFFC
FFFC
0000
7FF8
7FF8
7FF8
7FF8
7FF8
7FF8
ENDCHAR
STARTCHAR AE01
ENCODING 12636
SWIDTH 1800 0
DWIDTH 18 0
BBX 14 13 1 -2
BITMAP
7FF8
7FF8
0038
0038
FFFC
FFFC
0000
7FF8
7FF8
7E38
7E38
7F38
7F38
ENDCHAR
STARTCHAR AE08
ENCODING 12637
SWIDTH 1800 0
DWIDTH 18 0
BBX 14 13 1 -2
BITMAP
7FF8
7FF8
0038
0038
FFFC
FFFC
0000
7FF8
7FF8
7038
7038
7FF8
7FF8
ENDCHAR
STARTCHAR AE09
ENCODING 12638
SWIDTH 1800 0
DWIDTH 18 0
BBX 14 13 1 -2
BITMAP
7FF8
7FF8
0038
0038
0038
FFFC
FFFC
7038
7FF8
7FF8
7038
7FF8
7FF8
ENDCHAR
STARTCHAR AE0B
ENCODING 12639
SWIDTH 1800 0
DWIDTH 18 0
BBX 14 13 1 -2
BITMAP
7FF8
7FF8
0038
0038
FFFC
FFFC
0000
0380
0380
0FE0
FEF8
7C78
3018
ENDCHAR
STARTCHAR AE0D
ENCODING 12640
SWIDTH 1800 0
DWIDTH 18 0
BBX 14 13 1 -2
BITMAP
7FF8
7FF8
0038
0038
FFFC
FFFC
07C0
0FE0
1870
1870
1CF0
0FE0
07C0
ENDCHAR
STARTCHAR AE14
ENCODING 12641
SWIDTH 1800 0
DWIDTH 18 0
BBX 13 14 1 -2
BITMAP
0038
FFB8
FFB8
03B8
03B8
03B8
03B8
03B8
03B8
FFF8
FFF8
0038
0038
0038
ENDCHAR
STARTCHAR AE30
ENCODING 12642
SWIDTH 1800 0
DWIDTH 18 0
BBX 13 14 1 -2
BITMAP
0038
FF38
FF38
0738
0738
0738
0738
0738
0E38
3E38
F838
E038
0038
0038
ENDCHAR
STARTCHAR AE31
ENCODING 12643
SWIDTH 1800 0
DWIDTH 18 0
BBX 13 14 1 -2
BITMAP
0038
FF38
FF38
0738
0F38
1E38
FC38
F038
0000
7FF8
7FF8
0038
0038
0038
ENDCHAR
STARTCHAR AE34
ENCODING 12644
SWIDTH 1800 0
DWIDTH 18 0
BBX 14 14 1 -2
BITMAP
0038
FF38
FF38
0738
0F38
1E38
FC38
F038
0038
7038
7000
7000
7FFC
7FFC
ENDCHAR
STARTCHAR AE37
ENCODING 12645
SWIDTH 1800 0
DWIDTH 18 0
BBX 13 14 1 -2
BITMAP
0038
FF38
FF38
0738
0F38
1E38
FC38
F038
0000
FFF8
FFF8
E000
FFF8
FFF8
ENDCHAR
STARTCHAR AE38
ENCODING 12646
SWIDTH 1800 0
DWIDTH 18 0
BBX 13 14 1 -2
BITMAP
0038
FF38
FF38
0738
1E38
FC38
F038
0000
7FF8
7FF8
7FF8
7FF8
7FF8
7FF8
ENDCHAR
STARTCHAR AE3A
ENCODING 12647
SWIDTH 1800 0
DWIDTH 18 0
BBX 13 14 1 -2
BITMAP
0038
FF38
FF38
0738
1E38
FC38
F038
0000
7DF8
7DF8
7DF8
7DF8
7FF8
7FF8
ENDCHAR
STARTCHAR AE40
ENCODING 12648
SWIDTH 1800 0
DWIDTH 18 0
BBX 13 14 1 -2
BITMAP
0038
FF38
FF38
0738
0F38
1E38
FC38
F038
0000
FFF8
FFF8
E038
FFF8
FFF8
ENDCHAR
STARTCHAR AE41
ENCODING 12649
SWIDTH 1800 0
DWIDTH 18 0
BBX 13 14 1 -2
BITMAP
0038
FF38
FF38
0738
0F38
1E38
FC38
F038
E038
FFF8
FFF8
E038
FFF8
7FF8
ENDCHAR
STARTCHAR AE43
ENCODING 12650
SWIDTH 1800 0
DWIDTH 18 0
BBX 13 14 1 -2
BITMAP
0038
FF38
FF38
0738
0F38
1E38
FC38
F038
0738
0738
0F80
3FE0
F8F8
6030
ENDCHAR
STARTCHAR AE45
ENCODING 12651
SWIDTH 1800 0
DWIDTH 18 0
BBX 13 14 1 -2
BITMAP
0038
FF38
FF38
0738
0F38
1E38
FC38
F3F8
0FF0
0E38
1C38
0E38
0FF0
03E0
ENDCHAR
STARTCHAR AE46
ENCODING 12652
SWIDTH 1800 0
DWIDTH 18 0
BBX 13 14 1 -2
BITMAP
0038
FF38
FF38
0738
0F38
1E38
FC38
F038
7FF8
7FF8
0780
0FC0
7FF8
3878
ENDCHAR
STARTCHAR AE4A
ENCODING 12653
SWIDTH 1800 0
DWIDTH 18 0
BBX 14 14 1 -2
BITMAP
0038
FF38
FF38
0738
0F38
1E38
FC38
F038
7FFC
7FFC
1C70
1C70
7FFC
7FFC
ENDCHAR
STARTCHAR AE4C
ENCODING 12654
SWIDTH 1800 0
DWIDTH 18 0
BBX 15 14 1 -2
BITMAP
0038
FFB8
FFB8
3BB8
3BB8
3BBE
3BBE
3BB8
7738
F738
6E38
4438
0038
0038
ENDCHAR
STARTCHAR AE4D
ENCODING 12655
SWIDTH 1800 0
DWIDTH 18 0
BBX 15 14 1 -2
BITMAP
0038
FFB8
FFB8
3BBE
33BE
73B8
F738
EE38
4400
7FF8
7FF8
0038
0038
0038
ENDCHAR
STARTCHAR AE4E
ENCODING 12656
SWIDTH 1800 0
DWIDTH 18 0
BBX 15 15 1 -3
BITMAP
0038
FFB8
FFB8
3BBE
33BE
73B8
F738
6E38
0400
FFF8
FFF8
1C38
1C38
1C38
0038
ENDCHAR
STARTCHAR AE50
ENCODING 12657
SWIDTH 1800 0
DWIDTH 18 0
BBX 15 14 1 -2
BITMAP
0038
FFB8
FFB8
3BBE
33BE
73B8
7738
EF38
4638
7038
7000
7000
7FF8
7FF8
ENDCHAR
STARTCHAR AE54
ENCODING 12658
SWIDTH 1800 0
DWIDTH 18 0
BBX 15 14 1 -2
BITMAP
0038
FFB8
FFB8
3BBE
73BE
F7B8
E738
4600
7FF8
7FF8
7FF8
7FF8
7FF8
3FF8
ENDCHAR
STARTCHAR AE56
ENCODING 12659
SWIDTH 1800 0
DWIDTH 18 0
BBX 15 14 1 -2
BITMAP
0038
FFB8
FFB8
3BBE
73BE
F7B8
6738
0400
FDF8
FDF8
FDF8
FDF8
FFF8
7FF8
ENDCHAR
STARTCHAR AE5C
ENCODING 12660
SWIDTH 1800 0
DWIDTH 18 0
BBX 15 14 1 -2
BITMAP
0038
FFB8
FFB8
3BBE
33BE
73B8
F738
6E38
0400
7FF8
7FF8
7038
7FF8
7FF8
ENDCHAR
STARTCHAR AE5D
ENCODING 12661
SWIDTH 1800 0
DWIDTH 18 0
BBX 15 14 1 -2
BITMAP
0038
FFB8
FFB8
3BBE
33BE
73B8
FF38
6638
7038
7FF8
7FF8
7038
7FF8
3FF8
ENDCHAR
STARTCHAR AE5F
ENCODING 12662
SWIDTH 1800 0
DWIDTH 18 0
BBX 15 14 1 -2
BITMAP
0038
FFB8
FFB8
3BBE
73BE
73B8
EF38
4638
0380
0380
0FE0
FEF8
7C78
3018
ENDCHAR
STARTCHAR AE60
ENCODING 12663
SWIDTH 1800 0
DWIDTH 18 0
BBX 15 14 1 -2
BITMAP
0038
FFB8
FFB8
3BBE
33BE
73B8
FF38
6638
0000
1C70
1E70
3EF8
F7DC
628C
ENDCHAR
STARTCHAR AE61
ENCODING 12664
SWIDTH 1800 0
DWIDTH 18 0
BBX 15 14 1 -2
BITMAP
0038
FFB8
FFB8
3BBE
73BE
77B8
E738
4638
0FF0
0C38
1C38
1E78
0FF0
07E0
ENDCHAR
STARTCHAR AE65
ENCODING 12665
SWIDTH 1800 0
DWIDTH 18 0
BBX 15 14 1 -2
BITMAP
0038
FFB8
FFB8
3BBE
73BE
73B8
EF38
4638
7FF8
7FF8
7FF8
7FF8
7FF8
3FF8
ENDCHAR
STARTCHAR AE68
ENCODING 12666
SWIDTH 1800 0
DWIDTH 18 0
BBX 14 14 0 -2
BITMAP
00FC
7FFC
7FFC
3FFC
3FFC
3FFC
3FFC
3FFC
77FC
FEFC
7EFC
4CFC
00FC
00FC
ENDCHAR
STARTCHAR AE69
ENCODING 12667
SWIDTH 1800 0
DWIDTH 18 0
BBX 14 14 0 -2
BITMAP
00FC
7FFC
7FFC
3FFC
3FFC
7FFC
FFFC
6EFC
0400
3FFC
3FFC
001C
001C
001C
ENDCHAR
STARTCHAR AE6C
ENCODING 12668
SWIDTH 1800 0
DWIDTH 18 0
BBX 14 14 1 -2
BITMAP
01F8
FFF8
FFF8
7FF8
7FF8
FFF8
FFF8
DDF8
99F8
7000
7000
7000
7FFC
7FFC
ENDCHAR
STARTCHAR AE70
ENCODING 12669
SWIDTH 1800 0
DWIDTH 18 0
BBX 14 14 0 -2
BITMAP
00FC
7FFC
7FFC
37FC
37FC
F7FC
6EFC
0400
3FFC
3FFC
3FFC
3FFC
3FFC
3FFC
ENDCHAR
STARTCHAR AE78
ENCODING 12670
SWIDTH 1800 0
DWIDTH 18 0
BBX 14 14 0 -2
BITMAP
00FC
7FFC
7FFC
3FFC
3FFC
7FFC
FEFC
6EFC
0400
3FFC
3FFC
381C
3FFC
3FFC
ENDCHAR
STARTCHAR AE79
ENCODING 12833
SWIDTH 1800 0
DWIDTH 18 0
BBX 13 14 1 -2
BITMAP
01F8
FFF8
FFF8
6FF8
6FF8
EFF8
FDF8
1DF8
E038
FFF8
FFF8
E038
FFF8
7FF8
ENDCHAR
STARTCHAR AE7B
ENCODING 12834
SWIDTH 1800 0
DWIDTH 18 0
BBX 15 14 0 -2
BITMAP
00FC
7FFC
7FFC
3FFC
3FFC
7FFC
FEFC
6EFC
05C0
01E0
07F0
3FFE
3E3C
180C
ENDCHAR
STARTCHAR AE7C
ENCODING 12835
SWIDTH 1800 0
DWIDTH 18 0
BBX 14 14 1 -2
BITMAP
01F8
FFF8
FFF8
6FF8
6FF8
EFF8
DDF8
9DF8
0000
1CE0
1CF0
3FF8
F7BC
C118
ENDCHAR
STARTCHAR AE7D
ENCODING 12836
SWIDTH 1800 0
DWIDTH 18 0
BBX 14 14 0 -2
BITMAP
00FC
7FFC
7FFC
3FFC
3FFC
7FFC
FEFC
6FFC
07F8
0E1C
0E1C
0F3C
07F8
03F0
ENDCHAR
STARTCHAR AE84
ENCODING 12837
SWIDTH 1800 0
DWIDTH 18 0
BBX 14 14 2 -2
BITMAP
0070
FF70
FF70
777C
777C
7770
7770
777C
FE7C
FE70
FC70
4070
0070
0070
ENDCHAR
STARTCHAR AE85
ENCODING 12838
SWIDTH 1800 0
DWIDTH 18 0
BBX 15 14 1 -2
BITMAP
0038
FFB8
FFBE
33BE
73B8
77BE
F73E
EE38
0438
7FF8
7FF8
0038
0038
0038
ENDCHAR
STARTCHAR AE8C
ENCODING 12839
SWIDTH 1800 0
DWIDTH 18 0
BBX 15 14 1 -2
BITMAP
0038
F7BE
F7BE
33B8
73BE
F7BE
EF38
4600
7FF8
7FF8
7FF8
7FF8
7FF8
3FF8
ENDCHAR
STARTCHAR AEBC
ENCODING 12840
SWIDTH 1800 0
DWIDTH 18 0
BBX 14 14 0 -2
BITMAP
001C
FFDC
FFDC
39DC
39DC
39FC
39FC
39DC
73DC
F39C
671C
431C
001C
001C
ENDCHAR
STARTCHAR AEBD
ENCODING 12841
SWIDTH 1800 0
DWIDTH 18 0
BBX 14 14 0 -2
BITMAP
001C
7FDC
7FDC
39FC
39FC
7BDC
F79C
671C
0200
3FFC
3FFC
001C
001C
001C
ENDCHAR
STARTCHAR AEBE
ENCODING 12842
SWIDTH 1800 0
DWIDTH 18 0
BBX 14 15 0 -3
BITMAP
001C
7FDC
7FDC
39FC
39FC
73DC
F79C
671C
0200
3FFC
3FFC
071C
071C
071C
001C
ENDCHAR
STARTCHAR AEC0
ENCODING 12843
SWIDTH 1800 0
DWIDTH 18 0
BBX 15 14 0 -2
BITMAP
001C
FFDC
FFDC
39FC
39FC
79DC
739C
E79C
431C
381C
3800
3800
3FFE
3FFE
ENDCHAR
STARTCHAR AEC4
ENCODING 12844
SWIDTH 1800 0
DWIDTH 18 0
BBX 14 14 0 -2
BITMAP
001C
7FDC
7FDC
39FC
3BBC
F79C
671C
0200
3FFC
3FFC
7FFC
7FFC
7FFC
3FFC
ENDCHAR
STARTCHAR AECC
ENCODING 12845
SWIDTH 1800 0
DWIDTH 18 0
BBX 14 14 0 -2
BITMAP
001C
7FDC
7FDC
39FC
39FC
7BDC
F79C
671C
0000
7FFC
7FFC
701C
7FFC
7FFC
ENDCHAR
STARTCHAR AECD
ENCODING 12846
SWIDTH 1800 0
DWIDTH 18 0
BBX 14 14 0 -2
BITMAP
001C
7FDC
7FDC
39FC
39FC
73DC
F79C
671C
3A1C
3FFC
3FFC
381C
3FFC
3FFC
ENDCHAR
STARTCHAR AECF
ENCODING 12847
SWIDTH 1800 0
DWIDTH 18 0
BBX 15 14 0 -2
BITMAP
001C
7FDC
7FDC
39DC
39FC
7BFC
F79C
671C
03DC
01E0
07F0
3F7E
3E3C
180C
ENDCHAR
STARTCHAR AED0
ENCODING 12848
SWIDTH 1800 0
DWIDTH 18 0
BBX 15 14 0 -2
BITMAP
001C
7BDC
7BDC
39FC
39FC
7BDC
F79C
6F7C
0E70
1FF8
3FFC
FFDE
73CC
6084
ENDCHAR
STARTCHAR AED1
ENCODING 12849
SWIDTH 1800 0
DWIDTH 18 0
BBX 14 14 0 -2
BITMAP
001C
7FDC
7FDC
39FC
39FC
739C
F79C
63FC
03F8
061C
061C
073C
07F8
01F0
ENDCHAR
STARTCHAR AED8
ENCODING 12850
SWIDTH 1800 0
DWIDTH 18 0
BBX 14 14 0 -2
BITMAP
00FC
FFFC
FFFC
77FC
77FC
77FC
77FC
76FC
EEFC
EEFC
DCFC
08FC
00FC
00FC
ENDCHAR
STARTCHAR AED9
ENCODING 12851
SWIDTH 1800 0
DWIDTH 18 0
BBX 14 14 0 -2
BITMAP
00FC
FFFC
FFFC
77FC
77FC
F6FC
EEFC
CEFC
0CE0
7FFC
7FFC
001C
001C
001C
ENDCHAR
STARTCHAR AEDC
ENCODING 12852
SWIDTH 1800 0
DWIDTH 18 0
BBX 14 14 1 -2
BITMAP
01F8
FFF8
FFF8
7FF8
7FF8
7DF8
EDF8
FDF8
99F8
71F8
7000
7000
7FFC
7FFC
ENDCHAR
STARTCHAR AEE8
ENCODING 12853
SWIDTH 1800 0
DWIDTH 18 0
BBX 14 14 0 -2
BITMAP
00FC
FFFC
FFFC
77FC
77FC
F6FC
EEFC
DCFC
08E0
7FFC
7FFC
701C
7FFC
7FFC
ENDCHAR
STARTCHAR AEEB
ENCODING 12854
SWIDTH 1800 0
DWIDTH 18 0
BBX 14 14 1 -2
BITMAP
01F8
FFF8
FFF8
7FF8
7FF8
7DF8
FDF8
FDF8
1B80
0380
0FC0
7EFC
7C78
3018
ENDCHAR
STARTCHAR AEED
ENCODING 12855
SWIDTH 1800 0
DWIDTH 18 0
BBX 14 14 0 -2
BITMAP
00FC
FFFC
FFFC
77FC
77FC
76FC
EEFC
CDFC
07F8
0E1C
0E1C
0F3C
07F8
03F0
ENDCHAR
STARTCHAR AEF4
ENCODING 12856
SWIDTH 1800 0
DWIDTH 18 0
BBX 14 14 0 -2
BITMAP
001C
FF9C
FF9C
3BBC
3BBC
3B9C
3B9C
7BBC
773C
FF1C
6E1C
0C1C
001C
001C
ENDCHAR
STARTCHAR AEF8
ENCODING 12857
SWIDTH 1800 0
DWIDTH 18 0
BBX 15 14 0 -2
BITMAP
001C
FF9C
FFFC
3BFC
3B9C
7BFC
777C
6F1C
0E1C
3C1C
3800
3800
3FFE
3FFE
ENDCHAR
STARTCHAR AEFC
ENCODING 12858
SWIDTH 1800 0
DWIDTH 18 0
BBX 14 14 0 -2
BITMAP
001C
7F9C
7FBC
39BC
7BBC
F7BC
671C
0600
3FFC
3FFC
3FFC
3FFC
3FFC
3FFC
ENDCHAR
STARTCHAR AF07
ENCODING 12859
SWIDTH 1800 0
DWIDTH 18 0
BBX 15 14 0 -2
BITMAP
001C
FF9C
FFBC
3BBC
3B9C
7FBC
7F3C
6E1C
01DC
03E0
0FF8
3F7E
3E3C
180C
ENDCHAR
STARTCHAR AF08
ENCODING 12860
SWIDTH 1800 0
DWIDTH 18 0
BBX 14 14 1 -2
BITMAP
0038
FFB8
FFF8
73F8
73B8
E7F8
EF78
CE38
0000
1CE0
3CF0
7FF8
F7BC
C518
ENDCHAR
STARTCHAR AF0D
ENCODING 12861
SWIDTH 1800 0
DWIDTH 18 0
BBX 14 14 0 -2
BITMAP
001C
7F9C
7FBC
39BC
73BC
F7BC
6F1C
0600
3FFC
3FFC
3FFC
3FFC
3FFC
3FFC
ENDCHAR
STARTCHAR AF10
ENCODING 12862
SWIDTH 1800 0
DWIDTH 18 0
BBX 14 14 0 -2
BITMAP
00FC
7FFC
7FFC
3FFC
3FFC
3FFC
3FFC
3FFC
76FC
FEFC
7CFC
08FC
00FC
00FC
ENDCHAR
STARTCHAR AF2C
ENCODING 12863
SWIDTH 1800 0
DWIDTH 18 0
BBX 15 12 1 -1
BITMAP
7FF8
7FF8
1C38
1C38
1C38
1FB8
1FB8
1FB8
1FB8
1FB8
FFFE
FFFE
ENDCHAR
STARTCHAR AF2D
ENCODING 12864
SWIDTH 1800 0
DWIDTH 18 0
BBX 14 13 1 -2
BITMAP
7FF8
7FF8
1C38
1FB8
1FB8
FFFC
FFFC
0000
FFF8
FFF8
0038
0038
0038
ENDCHAR
STARTCHAR AF30
ENCODING 12865
SWIDTH 1800 0
DWIDTH 18 0
BBX 14 13 1 -2
BITMAP
FFF8
FFF8
1C38
1FB8
1FB8
1FB8
FFFC
FFFC
E000
E000
E000
FFF8
FFF8
ENDCHAR
STARTCHAR AF32
ENCODING 12866
SWIDTH 1800 0
DWIDTH 18 0
BBX 14 13 1 -2
BITMAP
FFF8
FFF8
1C38
1FB8
1FB8
FFFC
FFFC
E7FC
E7FC
E3F8
E338
FBF8
F9F0
ENDCHAR
STARTCHAR AF34
ENCODING 12867
SWIDTH 1800 0
DWIDTH 18 0
BBX 14 13 1 -2
BITMAP
FFF8
FFF8
1FB8
1FB8
FFFC
FFFC
0000
FFF8
FFF8
FFF8
FFF8
FFF8
7FF8
ENDCHAR
STARTCHAR AF3C
ENCODING 12868
SWIDTH 1800 0
DWIDTH 18 0
BBX 14 13 1 -2
BITMAP
FFF8
FFF8
1C38
1FB8
1FB8
FFFC
FFFC
0000
FFF8
FFF8
E038
FFF8
FFF8
ENDCHAR
STARTCHAR AF3D
ENCODING 12869
SWIDTH 1800 0
DWIDTH 18 0
BBX 14 13 1 -2
BITMAP
FFF8
FFF8
1C38
1FB8
1FB8
FFFC
FFFC
E038
FFF8
FFF8
E038
FFF8
7FF8
ENDCHAR
STARTCHAR AF3F
ENCODING 12870
SWIDTH 1800 0
DWIDTH 18 0
BBX 14 14 1 -2
BITMAP
FFF8
FFF8
1C38
1C38
1FB8
1FB8
FFFC
FFFC
0380
0380
0FC0
7EFC
7C78
3018
ENDCHAR
STARTCHAR AF41
ENCODING 12871
SWIDTH 1800 0
DWIDTH 18 0
BBX 14 13 1 -2
BITMAP
FFF8
FFF8
1C38
1FB8
1FB8
FFFC
FFFC
0FE0
1870
1870
1CF0
1FE0
07C0
ENDCHAR
STARTCHAR AF42
ENCODING 12872
SWIDTH 1800 0
DWIDTH 18 0
BBX 14 13 1 -2
BITMAP
FFF8
FFF8
1C38
1FB8
1FB8
FFFC
FFFC
FFF8
FFF8
0700
0F80
FFF8
7878
ENDCHAR
STARTCHAR AF43
ENCODING 12873
SWIDTH 1800 0
DWIDTH 18 0
BBX 14 13 1 -2
BITMAP
FFF8
FFF8
1C38
1FB8
1FB8
FFFC
FFFC
0700
FFF8
FFF8
0F80
FFF8
7878
ENDCHAR
STARTCHAR AF48
ENCODING 12874
SWIDTH 1800 0
DWIDTH 18 0
BBX 16 14 0 -2
BITMAP
001C
FBFC
FBFC
38FC
38FC
38FF
3FFF
3FFC
3FFC
FFFC
FFFC
001C
001C
001C
ENDCHAR
STARTCHAR AF49
ENCODING 12875
SWIDTH 1800 0
DWIDTH 18 0
BBX 16 14 0 -2
BITMAP
001C
FBFC
FBFC
38FF
3FFF
3FFC
FFFC
FFFC
0000
3FFC
3FFC
001C
001C
001C
ENDCHAR
STARTCHAR AF50
ENCODING 12876
SWIDTH 1800 0
DWIDTH 18 0
BBX 15 14 1 -2
BITMAP
0038
F7F8
F7F8
3FFE
3FFE
FFF8
FFF8
0000
7FF8
7FF8
7FF8
7FF8
7FF8
3FF8
ENDCHAR
STARTCHAR AF5C
ENCODING 12877
SWIDTH 1800 0
DWIDTH 18 0
BBX 15 14 1 -2
BITMAP
FFF8
FFF8
39F8
39FE
3FFE
3FF8
FFF8
FFF8
0000
0E70
1E70
3FF8
77DE
628C
ENDCHAR
STARTCHAR AF5D
ENCODING 12878
SWIDTH 1800 0
DWIDTH 18 0
BBX 16 14 0 -2
BITMAP
001C
FBFC
FBFC
38FF
3FFF
3FFC
FFFC
FFFC
07F8
0E1C
0E1C
0F3C
07F8
03F0
ENDCHAR
STARTCHAR AF64
ENCODING 12879
SWIDTH 1800 0
DWIDTH 18 0
BBX 15 14 0 -2
BITMAP
007E
FFFE
FFFE
73FE
73FE
73FE
7FFE
7FFE
7FFE
FFFE
FFFE
007E
007E
007E
ENDCHAR
STARTCHAR AF65
ENCODING 12880
SWIDTH 1800 0
DWIDTH 18 0
BBX 15 14 0 -2
BITMAP
007E
FFFE
FFFE
73FE
7FFE
7FFE
FFFE
FFFE
0000
3FFE
3FFE
000E
000E
000E
ENDCHAR
STARTCHAR AF79
ENCODING 12881
SWIDTH 1800 0
DWIDTH 18 0
BBX 15 14 0 -2
BITMAP
007E
FFFE
FFFE
73FE
7FFE
7FFE
FFFE
FFFE
07F8
0E1C
0E1C
0F3C
07F8
03F0
ENDCHAR
STARTCHAR AF80
ENCODING 12882
SWIDTH 1800 0
DWIDTH 18 0
BBX 14 14 0 -2
BITMAP
001C
FFFC
FFFC
38FC
38FC
38FC
3FFC
3FFC
3FFC
FFFC
FFFC
001C
001C
001C
ENDCHAR
STARTCHAR AF84
ENCODING 12883
SWIDTH 1800 0
DWIDTH 18 0
BBX 14 14 0 -2
BITMAP
001C
FFFC
FFFC
38FC
3FFC
3FFC
3FFC
FFFC
FFFC
701C
701C
7000
7FFC
7FFC
ENDCHAR
STARTCHAR AF88
ENCODING 12884
SWIDTH 1800 0
DWIDTH 18 0
BBX 14 14 0 -2
BITMAP
001C
FFFC
FFFC
3FFC
3FFC
FFFC
FFFC
0000
7FFC
7FFC
7FFC
7FFC
7FFC
3FFC
ENDCHAR
STARTCHAR AF90
ENCODING 12885
SWIDTH 1800 0
DWIDTH 18 0
BBX 14 14 0 -2
BITMAP
001C
FFFC
FFFC
38FC
3FFC
3FFC
FFFC
FFFC
0000
7FFC
7FFC
701C
7FFC
7FFC
ENDCHAR
STARTCHAR AF91
ENCODING 12886
SWIDTH 1800 0
DWIDTH 18 0
BBX 14 14 0 -2
BITMAP
001C
FFFC
FFFC
3FFC
3FFC
FFFC
FFFC
0000
701C
7FFC
7FFC
701C
7FFC
3FFC
ENDCHAR
STARTCHAR AF95
ENCODING 12887
SWIDTH 1800 0
DWIDTH 18 0
BBX 14 14 0 -2
BITMAP
001C
FFFC
FFFC
38FC
3FFC
3FFC
FFFC
FFFC
07F8
0E1C
0E1C
0F3C
07F8
03F0
ENDCHAR
STARTCHAR AF9C
ENCODING 12888
SWIDTH 1800 0
DWIDTH 18 0
BBX 15 12 0 -1
BITMAP
7FFC
7FFC
0E1C
0E1C
0E1C
0E1C
0E1C
0E7C
0E70
0E70
FFFE
FFFE
ENDCHAR
STARTCHAR AFB8
ENCODING 12889
SWIDTH 1800 0
DWIDTH 18 0
BBX 15 13 0 -2
BITMAP
7EFC
7EFC
0E1C
0E1C
0E1C
0E1C
FFFE
FFFE
0380
0380
0380
0380
0380
ENDCHAR
STARTCHAR AFB9
ENCODING 12890
SWIDTH 1800 0
DWIDTH 18 0
BBX 15 13 0 -2
BITMAP
7EFC
7EFC
0E1C
0E1C
0E1C
FFFE
FFFE
0380
7FFC
7FFC
001C
001C
001C
ENDCHAR
STARTCHAR AFBC
ENCODING 12891
SWIDTH 1800 0
DWIDTH 18 0
BBX 14 13 1 -2
BITMAP
FDF8
FDF8
1C38
1C38
1C38
FFFC
FFFC
0380
E380
E000
E000
FFF8
FFF8
ENDCHAR
STARTCHAR AFC0
ENCODING 12892
SWIDTH 1800 0
DWIDTH 18 0
BBX 14 13 1 -2
BITMAP
FDF8
FDF8
1C38
1C38
FFFC
FFFC
0700
FFF8
FFF8
FFF8
FFF8
FFF8
7FF8
ENDCHAR
STARTCHAR AFC7
ENCODING 12893
SWIDTH 1800 0
DWIDTH 18 0
BBX 15 13 0 -2
BITMAP
7EFC
7EFC
0E1C
0E1C
0E1C
FFFE
FFFE
7FFC
7FFC
7EDC
7FCC
7EFC
7EF8
ENDCHAR
STARTCHAR AFC8
ENCODING 12894
SWIDTH 1800 0
DWIDTH 18 0
BBX 15 13 0 -2
BITMAP
7EFC
7EFC
0E1C
0E1C
0E1C
FFFE
FFFE
0380
7FFC
7FFC
701C
7FFC
7FFC
ENDCHAR
STARTCHAR AFC9
ENCODING 12895
SWIDTH 1800 0
DWIDTH 18 0
BBX 14 13 1 -2
BITMAP
FDF8
FDF8
1C38
1C38
FFFC
FFFC
0700
E038
FFF8
FFF8
E038
FFF8
7FF8
ENDCHAR
STARTCHAR AFCB
ENCODING 12896
SWIDTH 1800 0
DWIDTH 18 0
BBX 15 13 0 -2
BITMAP
7EFC
7EFC
0E1C
0E1C
FFFE
FFFE
1FFE
0380
0380
07C0
1FF0
7C78
3018
ENDCHAR
STARTCHAR AFCD
ENCODING 12897
SWIDTH 1800 0
DWIDTH 18 0
BBX 14 13 1 -2
BITMAP
FDF8
FDF8
1C38
1C38
FFFC
FFFC
0700
1FC0
1DE0
38E0
38E0
1FC0
0F80
ENDCHAR
STARTCHAR AFCE
ENCODING 12898
SWIDTH 1800 0
DWIDTH 18 0
BBX 14 13 1 -2
BITMAP
FDF8
FDF8
1C38
1C38
1C38
FFFC
FFFC
FFF8
FFF8
0700
0F80
FFF8
7878
ENDCHAR
STARTCHAR AFD4
ENCODING 12899
SWIDTH 1800 0
DWIDTH 18 0
BBX 14 15 0 -3
BITMAP
001C
FFDC
FFDC
39DC
39DC
39DC
39DC
FFFC
FFFC
0E1C
0EFC
0EFC
0E1C
0E1C
001C
ENDCHAR
STARTCHAR AFDC
ENCODING 12900
SWIDTH 1800 0
DWIDTH 18 0
BBX 13 14 1 -2
BITMAP
0038
FFB8
FFB8
73F8
73F8
FFF8
FFF8
0038
7FF8
7FF8
7FF8
7FF8
7FF8
7FF8
ENDCHAR
STARTCHAR AFE8
ENCODING 12901
SWIDTH 1800 0
DWIDTH 18 0
BBX 14 14 1 -2
BITMAP
0038
FFB8
FFF8
33F8
73B8
FFF8
FFF8
0C00
0000
1CE0
3CF0
7FF8
F7BC
C518
ENDCHAR
STARTCHAR AFE9
ENCODING 12902
SWIDTH 1800 0
DWIDTH 18 0
BBX 14 14 0 -2
BITMAP
001C
7BDC
7BDC
39FC
39FC
FFFC
FFFC
0F1C
03F0
0F78
0E38
0E38
07F8
03E0
ENDCHAR
STARTCHAR AFF0
ENCODING 12903
SWIDTH 1800 0
DWIDTH 18 0
BBX 14 15 0 -3
BITMAP
00E0
7FFC
7FFC
3FFC
3FFC
3FFC
3FFC
FFFC
FFFC
1CFC
1FFC
1FFC
1CFC
1CFC
00FC
ENDCHAR
STARTCHAR AFF1
ENCODING 12904
SWIDTH 1800 0
DWIDTH 18 0
BBX 14 14 0 -2
BITMAP
00FC
FEFC
FFFC
77FC
76FC
FFFC
FFFC
1CFC
0000
7FFC
7FFC
001C
001C
001C
ENDCHAR
STARTCHAR AFF4
ENCODING 12905
SWIDTH 1800 0
DWIDTH 18 0
BBX 14 14 0 -2
BITMAP
00FC
FFFC
FFFC
77FC
77FC
77FC
FFFC
FFFC
1CFC
70FC
70E0
7000
7FFC
7FFC
ENDCHAR
STARTCHAR AFF8
ENCODING 12906
SWIDTH 1800 0
DWIDTH 18 0
BBX 14 14 0 -2
BITMAP
00FC
FEFC
FFFC
77FC
76FC
FFFC
FFFC
00FC
3FFC
3FFC
3FFC
3FFC
3FFC
3FFC
ENDCHAR
STARTCHAR B000
ENCODING 12907
SWIDTH 1800 0
DWIDTH 18 0
BBX 14 15 0 -2
BITMAP
001C
00FC
FEFC
FFFC
77FC
76FC
FFFC
FFFC
0000
0000
7FFC
7FFC
701C
7FFC
7FFC
ENDCHAR
STARTCHAR B001
ENCODING 12908
SWIDTH 1800 0
DWIDTH 18 0
BBX 14 15 0 -2
BITMAP
001C
00FC
FEFC
FFFC
77FC
76FC
FFFC
FFFC
0000
0000
381C
3FFC
3FFC
3FFC
3FFC
ENDCHAR
STARTCHAR B004
ENCODING 12909
SWIDTH 1800 0
DWIDTH 18 0
BBX 15 14 0 -2
BITMAP
00FC
FEFC
FFFC
77FC
767C
FFFC
FFFC
1C7C
0000
0E70
1E78
3FFC
7BDE
628C
ENDCHAR
STARTCHAR B00C
ENCODING 12910
SWIDTH 1800 0
DWIDTH 18 0
BBX 13 14 1 -2
BITMAP
0038
FFB8
FFB8
3BB8
3BB8
3BB8
3BB8
FFF8
FFF8
1C38
1C38
1C38
1C38
1C38
ENDCHAR
STARTCHAR B010
ENCODING 12911
SWIDTH 1800 0
DWIDTH 18 0
BBX 14 14 0 -2
BITMAP
001C
FFDC
FFDC
39DC
39DC
39DC
FFFC
FFFC
071C
771C
701C
7000
7FFC
7FFC
ENDCHAR
STARTCHAR B014
ENCODING 12912
SWIDTH 1800 0
DWIDTH 18 0
BBX 14 14 0 -2
BITMAP
001C
7FDC
7FDC
19DC
39DC
FFFC
FFFC
001C
3FFC
3FFC
7FFC
7FFC
7FFC
3FFC
ENDCHAR
STARTCHAR B01C
ENCODING 12913
SWIDTH 1800 0
DWIDTH 18 0
BBX 14 14 0 -2
BITMAP
001C
7FDC
7FDC
39DC
39DC
FFFC
FFFC
001C
0000
7FFC
7FFC
701C
7FFC
7FFC
ENDCHAR
STARTCHAR B01D
ENCODING 12914
SWIDTH 1800 0
DWIDTH 18 0
BBX 14 14 0 -2
BITMAP
001C
7FDC
7FDC
39DC
39DC
FFFC
FFFC
071C
701C
7FFC
7FFC
701C
7FFC
3FFC
ENDCHAR
STARTCHAR B028
ENCODING 12915
SWIDTH 1800 0
DWIDTH 18 0
BBX 14 14 1 -3
BITMAP
FDF8
FDF8
1C38
1C38
1C38
1C38
FFFC
FFFC
1CE0
1CE0
1CE0
1CE0
1CE0
1C00
ENDCHAR
STARTCHAR B044
ENCODING 12916
SWIDTH 1800 0
DWIDTH 18 0
BBX 14 12 2 -1
BITMAP
FFF0
FFF0
1C70
1C70
1C70
1C70
1C70
1C70
1C70
1C70
FFFC
FFFC
ENDCHAR
STARTCHAR B045
ENCODING 12917
SWIDTH 1800 0
DWIDTH 18 0
BBX 14 13 1 -2
BITMAP
7DF8
7DF8
1C38
1C38
1C38
FFFC
FFFC
0000
7FF8
7FF8
0038
0038
0038
ENDCHAR
STARTCHAR B048
ENCODING 12918
SWIDTH 1800 0
DWIDTH 18 0
BBX 14 13 1 -2
BITMAP
FDF8
FDF8
1C38
1C38
1C38
1C38
FFFC
FFFC
E000
E000
E000
FFF8
FFF8
ENDCHAR
STARTCHAR B04A
ENCODING 12919
SWIDTH 1800 0
DWIDTH 18 0
BBX 14 13 1 -2
BITMAP
FDF8
FDF8
1C38
1C38
1C38
FFFC
FFFC
E3F8
E3F8
E3F0
E338
FBB8
F9E0
ENDCHAR
STARTCHAR B04C
ENCODING 12920
SWIDTH 1800 0
DWIDTH 18 0
BBX 14 13 1 -2
BITMAP
FDF8
FDF8
1C38
1C38
FFFC
FFFC
0000
7FF8
7FF8
FFF8
FFF8
FFF8
7FF8
ENDCHAR
STARTCHAR B04E
ENCODING 12921
SWIDTH 1800 0
DWIDTH 18 0
BBX 14 13 1 -2
BITMAP
FDF8
FDF8
1C38
1C38
FFFC
FFFC
0000
FDF8
FDF8
FDF8
FDF8
FDF8
7DF8
ENDCHAR
STARTCHAR B053
ENCODING 12922
SWIDTH 1800 0
DWIDTH 18 0
BBX 14 13 1 -2
BITMAP
FDF8
FDF8
1C38
1C38
FFFC
FFFC
00E0
FFF8
FFF8
FDB8
FF98
FDF8
FCF0
ENDCHAR
STARTCHAR B054
ENCODING 12923
SWIDTH 1800 0
DWIDTH 18 0
BBX 14 13 1 -2
BITMAP
7DF8
7DF8
1C38
1C38
1C38
FFFC
FFFC
0000
FFF8
FFF8
E038
FFF8
FFF8
ENDCHAR
STARTCHAR B055
ENCODING 12924
SWIDTH 1800 0
DWIDTH 18 0
BBX 14 13 1 -2
BITMAP
7DF8
7DF8
1C38
1C38
1C38
FFFC
FFFC
E038
FFF8
FFF8
E038
FFF8
7FF8
ENDCHAR
STARTCHAR B057
ENCODING 12925
SWIDTH 1800 0
DWIDTH 18 0
BBX 15 13 0 -2
BITMAP
3EFC
3EFC
0E1C
0E1C
0E1C
7FFE
7FFE
0380
0380
07C0
FEF8
7C78
3018
ENDCHAR
STARTCHAR B059
ENCODING 12926
SWIDTH 1800 0
DWIDTH 18 0
BBX 14 13 1 -2
BITMAP
7DF8
7DF8
1C38
1C38
1C38
FFFC
FFFC
0FE0
1870
1870
1CF0
1FE0
07C0
ENDCHAR
STARTCHAR B05D
ENCODING 13089
SWIDTH 1800 0
DWIDTH 18 0
BBX 14 13 1 -2
BITMAP
FDF8
FDF8
1C38
1C38
FFFC
FFFC
0000
FFF8
FFF8
FFF8
FFF8
FFF8
7FF8
ENDCHAR
STARTCHAR B07C
ENCODING 13090
SWIDTH 1800 0
DWIDTH 18 0
BBX 14 14 0 -2
BITMAP
001C
FFDC
FFDC
39DC
39DC
39DC
39DC
39DC
71DC
F39C
679C
031C
001C
001C
ENDCHAR
STARTCHAR B07D
ENCODING 13091
SWIDTH 1800 0
DWIDTH 18 0
BBX 14 14 0 -2
BITMAP
001C
FFDC
FFDC
39DC
39DC
7BDC
F79C
671C
0000
3FFC
3FFC
001C
001C
001C
ENDCHAR
STARTCHAR B080
ENCODING 13092
SWIDTH 1800 0
DWIDTH 18 0
BBX 15 14 0 -2
BITMAP
001C
FFDC
FFDC
39DC
39DC
7BDC
739C
FF9C
671C
381C
3800
3800
3FFE
3FFE
ENDCHAR
STARTCHAR B084
ENCODING 13093
SWIDTH 1800 0
DWIDTH 18 0
BBX 13 14 1 -2
BITMAP
0038
FFB8
FFB8
73B8
73B8
E738
EF38
0400
7FF8
7FF8
7FF8
7FF8
7FF8
7FF8
ENDCHAR
STARTCHAR B08C
ENCODING 13094
SWIDTH 1800 0
DWIDTH 18 0
BBX 14 14 0 -2
BITMAP
001C
FFDC
FFDC
39DC
39DC
7BDC
F79C
671C
7FFC
7FFC
701C
701C
7FFC
3FFC
ENDCHAR
STARTCHAR B08D
ENCODING 13095
SWIDTH 1800 0
DWIDTH 18 0
BBX 14 14 0 -2
BITMAP
001C
FFDC
FFDC
39DC
39DC
7BDC
FF9C
671C
381C
3FFC
3FFC
381C
3FFC
3FFC
ENDCHAR
STARTCHAR B08F
ENCODING 13096
SWIDTH 1800 0
DWIDTH 18 0
BBX 15 14 0 -2
BITMAP
001C
FFDC
FFDC
39DC
39DC
7BDC
F79C
671C
01C0
01C0
07E0
3F7E
3E3C
180C
ENDCHAR
STARTCHAR B091
ENCODING 13097
SWIDTH 1800 0
DWIDTH 18 0
BBX 14 14 0 -2
BITMAP
001C
FFDC
FFDC
39DC
39DC
7BDC
F79C
671C
07F8
0E1C
0E1C
0F3C
07F8
03F0
ENDCHAR
STARTCHAR B098
ENCODING 13098
SWIDTH 1800 0
DWIDTH 18 0
BBX 14 14 2 -2
BITMAP
0070
E070
E070
E070
E070
E07C
E07C
E070
E070
FFF0
FFF0
0070
0070
0070
ENDCHAR
STARTCHAR B099
ENCODING 13099
SWIDTH 1800 0
DWIDTH 18 0
BBX 14 14 2 -2
BITMAP
E070
E070
E070
E07C
E07C
FFF0
FFF0
0070
7FF0
7FF0
0070
0070
0070
0070
ENDCHAR
STARTCHAR B09A
ENCODING 13100
SWIDTH 1800 0
DWIDTH 18 0
BBX 14 14 2 -2
BITMAP
E070
E070
E070
E07C
E07C
FFF0
FFF0
0070
FFF0
FFF0
1C70
1C70
1C70
1C70
ENDCHAR
STARTCHAR B09C
ENCODING 13101
SWIDTH 1800 0
DWIDTH 18 0
BBX 14 14 2 -2
BITMAP
0070
E070
E070
E07C
E07C
E070
FFF0
FFF0
0070
E070
E000
E000
FFF0
FFF0
ENDCHAR
STARTCHAR B09F
ENCODING 13102
SWIDTH 1800 0
DWIDTH 18 0
BBX 14 14 2 -2
BITMAP
E070
E070
E070
E07C
E07C
FFF0
FFF0
0070
FFF0
FFF0
E000
E000
FFF0
7FF0
ENDCHAR
STARTCHAR B0A0
ENCODING 13103
SWIDTH 1800 0
DWIDTH 18 0
BBX 14 14 2 -2
BITMAP
0070
E070
E070
E07C
E07C
FFF0
7FF0
FFF0
FFF0
0070
FFF0
FFF0
FFF0
7FF0
ENDCHAR
STARTCHAR B0A1
ENCODING 13104
SWIDTH 1800 0
DWIDTH 18 0
BBX 14 14 2 -2
BITMAP
0070
E070
E070
E07C
E07C
FFF0
FFF0
0070
FFF0
FFF0
FC70
FC70
FC70
FC70
ENDCHAR
STARTCHAR B0A2
ENCODING 13105
SWIDTH 1800 0
DWIDTH 18 0
BBX 14 14 2 -2
BITMAP
0070
E070
E070
E07C
E07C
FFF0
FFF0
0070
FFF0
FFF0
FFF0
FFF0
FFF0
FFF0
ENDCHAR
STARTCHAR B0A8
ENCODING 13106
SWIDTH 1800 0
DWIDTH 18 0
BBX 14 14 2 -2
BITMAP
E070
E070
E070
E07C
E07C
FFF0
FFF0
0070
FFF0
FFF0
E070
E070
FFF0
7FF0
ENDCHAR
STARTCHAR B0A9
ENCODING 13107
SWIDTH 1800 0
DWIDTH 18 0
BBX 14 14 2 -2
BITMAP
E070
E070
E070
E07C
E07C
FFF0
FFF0
0070
E070
FFF0
FFF0
E070
FFF0
7FF0
ENDCHAR
STARTCHAR B0AB
ENCODING 13108
SWIDTH 1800 0
DWIDTH 18 0
BBX 14 14 2 -2
BITMAP
E070
E070
E070
E07C
E07C
FFF0
FFF0
0070
0700
0F80
1FC0
FDF0
F8F0
6030
ENDCHAR
STARTCHAR B0AC
ENCODING 13109
SWIDTH 1800 0
DWIDTH 18 0
BBX 14 14 2 -2
BITMAP
E070
E070
E070
E07C
E07C
FFF0
FFF0
0070
1CE0
1CE0
3FF0
FFF8
E7BC
C118
ENDCHAR
STARTCHAR B0AD
ENCODING 13110
SWIDTH 1800 0
DWIDTH 18 0
BBX 14 14 2 -2
BITMAP
E070
E070
E070
E07C
E07C
FFF0
FFF0
07F0
1FE0
1C70
3870
1C70
1FE0
07C0
ENDCHAR
STARTCHAR B0AE
ENCODING 13111
SWIDTH 1800 0
DWIDTH 18 0
BBX 14 14 2 -2
BITMAP
E070
E070
E070
E07C
E07C
FFF0
FFF0
0070
FFF0
FFF0
0F00
1FC0
FFF0
7070
ENDCHAR
STARTCHAR B0AF
ENCODING 13112
SWIDTH 1800 0
DWIDTH 18 0
BBX 14 14 2 -2
BITMAP
E070
E070
E070
E07C
E07C
FFF0
FFF0
0070
0700
FFF0
FFF0
0F00
FFF0
78F0
ENDCHAR
STARTCHAR B0B1
ENCODING 13113
SWIDTH 1800 0
DWIDTH 18 0
BBX 14 14 2 -2
BITMAP
0070
E070
E070
E07C
E07C
FFF0
FFF0
0070
FFF0
FFF0
FFF0
FFF0
FFF0
7FF0
ENDCHAR
STARTCHAR B0B3
ENCODING 13114
SWIDTH 1800 0
DWIDTH 18 0
BBX 14 15 2 -3
BITMAP
E070
E070
E070
E07C
E07C
FFF0
FFF0
0070
0700
FFF8
F9F8
38E0
39E0
1FC0
0F80
ENDCHAR
STARTCHAR B0B4
ENCODING 13115
SWIDTH 1800 0
DWIDTH 18 0
BBX 13 14 1 -2
BITMAP
03B8
E3B8
E3B8
E3B8
E3B8
E3F8
E3F8
E3B8
E3B8
FFB8
FFB8
03B8
03B8
03B8
ENDCHAR
STARTCHAR B0B5
ENCODING 13116
SWIDTH 1800 0
DWIDTH 18 0
BBX 13 14 1 -2
BITMAP
E3B8
E3B8
E3B8
E3F8
E3F8
FFB8
FFB8
03B8
0000
7FF8
7FF8
0038
0038
0038
ENDCHAR
STARTCHAR B0B8
ENCODING 13117
SWIDTH 1800 0
DWIDTH 18 0
BBX 13 14 1 -2
BITMAP
03B8
E3B8
E3B8
E3B8
E3F8
E3F8
FFB8
FFB8
03B8
E3B8
E000
E000
FFF8
FFF8
ENDCHAR
STARTCHAR B0BC
ENCODING 13118
SWIDTH 1800 0
DWIDTH 18 0
BBX 13 14 1 -2
BITMAP
03B8
E3B8
E3B8
E3F8
E3F8
FFB8
FFB8
0000
7FF8
7FF8
FFF8
FFF8
FFF8
7FF8
ENDCHAR
STARTCHAR B0C4
ENCODING 13119
SWIDTH 1800 0
DWIDTH 18 0
BBX 13 14 1 -2
BITMAP
E3B8
E3B8
E3B8
E3F8
E3F8
FFB8
FFB8
03B8
FFF8
FFF8
E038
E038
FFF8
7FF8
ENDCHAR
STARTCHAR B0C5
ENCODING 13120
SWIDTH 1800 0
DWIDTH 18 0
BBX 13 14 1 -2
BITMAP
E3B8
E3B8
E3B8
E3F8
E3F8
FFB8
FFB8
0000
E038
FFF8
FFF8
E038
FFF8
7FF8
ENDCHAR
STARTCHAR B0C7
ENCODING 13121
SWIDTH 1800 0
DWIDTH 18 0
BBX 13 14 1 -2
BITMAP
E3B8
E3B8
E3B8
E3F8
E3F8
FFB8
FFB8
0038
0380
0380
0FC0
7FF8
7CF8
3030
ENDCHAR
STARTCHAR B0C8
ENCODING 13122
SWIDTH 1800 0
DWIDTH 18 0
BBX 14 14 1 -2
BITMAP
E3B8
E3B8
E3B8
E3F8
E3F8
FFB8
FFB8
0000
1CE0
1CE0
3FF0
7FF8
E79C
C108
ENDCHAR
STARTCHAR B0C9
ENCODING 13123
SWIDTH 1800 0
DWIDTH 18 0
BBX 13 14 1 -2
BITMAP
E3B8
E3B8
E3B8
E3F8
E3F8
FFB8
FFB8
07F8
0FF0
1C38
1C38
1E78
0FF0
07E0
ENDCHAR
STARTCHAR B0D0
ENCODING 13124
SWIDTH 1800 0
DWIDTH 18 0
BBX 14 14 2 -2
BITMAP
E070
E070
E070
E07C
E07C
E070
E070
E07C
E07C
FFF0
FFF0
0070
0070
0070
ENDCHAR
STARTCHAR B0D1
ENCODING 13125
SWIDTH 1800 0
DWIDTH 18 0
BBX 14 14 2 -2
BITMAP
E070
E07C
E07C
E070
E07C
FFFC
FFF0
0070
0000
7FF0
7FF0
0070
0070
0070
ENDCHAR
STARTCHAR B0D4
ENCODING 13126
SWIDTH 1800 0
DWIDTH 18 0
BBX 14 14 2 -2
BITMAP
E070
E070
E07C
E07C
E070
E07C
FFFC
FFF0
0070
7070
7000
7000
7FF8
7FF8
ENDCHAR
STARTCHAR B0D8
ENCODING 13127
SWIDTH 1800 0
DWIDTH 18 0
BBX 14 14 2 -2
BITMAP
0070
E07C
E07C
E070
E07C
FFFC
FFF0
7FF0
7FF0
0070
7FF0
7FF0
7FF0
7FF0
ENDCHAR
STARTCHAR B0E0
ENCODING 13128
SWIDTH 1800 0
DWIDTH 18 0
BBX 14 14 2 -2
BITMAP
E070
E07C
E07C
E070
E07C
FFFC
FFF0
0070
FFF0
FFF0
E070
E070
FFF0
7FF0
ENDCHAR
STARTCHAR B0E5
ENCODING 13129
SWIDTH 1800 0
DWIDTH 18 0
BBX 14 14 2 -2
BITMAP
E070
E07C
E07C
E070
E07C
FFFC
7FF0
07F0
1FE0
1C70
3870
1C70
1FE0
07C0
ENDCHAR
STARTCHAR B108
ENCODING 13130
SWIDTH 1800 0
DWIDTH 18 0
BBX 13 14 1 -2
BITMAP
E038
E038
E038
E038
E7F8
E7F8
E038
E038
E038
FFB8
FFB8
0038
0038
0038
ENDCHAR
STARTCHAR B109
ENCODING 13131
SWIDTH 1800 0
DWIDTH 18 0
BBX 13 14 1 -2
BITMAP
E038
E038
E3F8
E3F8
E038
FFB8
FFB8
0038
0000
7FF8
7FF8
0038
0038
0038
ENDCHAR
STARTCHAR B10B
ENCODING 13132
SWIDTH 1800 0
DWIDTH 18 0
BBX 14 14 1 -2
BITMAP
E038
E038
E3F8
E3F8
E038
FFB8
FFB8
0038
FC70
FC70
1CF8
1DFC
1DDC
1C80
ENDCHAR
STARTCHAR B10C
ENCODING 13133
SWIDTH 1800 0
DWIDTH 18 0
BBX 14 14 1 -2
BITMAP
E038
E038
E3F8
E3F8
E038
E038
FFB8
FFB8
0038
7038
7000
7000
7FFC
7FFC
ENDCHAR
STARTCHAR B110
ENCODING 13134
SWIDTH 1800 0
DWIDTH 18 0
BBX 13 14 1 -2
BITMAP
E038
E038
E3F8
E3F8
E038
FFB8
FFB8
0000
7FF8
7FF8
7FF8
7FF8
7FF8
7FF8
ENDCHAR
STARTCHAR B112
ENCODING 13135
SWIDTH 1800 0
DWIDTH 18 0
BBX 13 14 1 -2
BITMAP
E038
E038
E3F8
E3F8
E038
FFB8
FFB8
0000
FFF8
FFF8
FFB8
FFB8
FFF8
FFF8
ENDCHAR
STARTCHAR B113
ENCODING 13136
SWIDTH 1800 0
DWIDTH 18 0
BBX 13 14 1 -2
BITMAP
E038
E038
E3F8
E3F8
E038
FFB8
FFB8
FFB8
FFF8
1FF8
FFF8
FFB8
FFF8
FFF8
ENDCHAR
STARTCHAR B118
ENCODING 13137
SWIDTH 1800 0
DWIDTH 18 0
BBX 13 14 1 -2
BITMAP
E038
E038
E3F8
E3F8
E038
FFB8
FFB8
0038
7FF8
7FF8
7038
7038
7FF8
7FF8
ENDCHAR
STARTCHAR B119
ENCODING 13138
SWIDTH 1800 0
DWIDTH 18 0
BBX 13 14 1 -2
BITMAP
E038
E038
E3F8
E3F8
E038
FFB8
FFB8
0038
7038
7FF8
7FF8
7038
7FF8
7FF8
ENDCHAR
STARTCHAR B11B
ENCODING 13139
SWIDTH 1800 0
DWIDTH 18 0
BBX 13 14 1 -2
BITMAP
E038
E038
E3F8
E3F8
E038
F838
FFB8
0038
0738
0F80
1FC0
FDF8
F8F0
6030
ENDCHAR
STARTCHAR B11C
ENCODING 13140
SWIDTH 1800 0
DWIDTH 18 0
BBX 14 14 1 -2
BITMAP
E038
E038
E3F8
E3F8
E038
FFB8
FFB8
0038
1CE0
1CE0
3FF0
7FF8
E79C
C108
ENDCHAR
STARTCHAR B11D
ENCODING 13141
SWIDTH 1800 0
DWIDTH 18 0
BBX 13 14 1 -2
BITMAP
E038
E038
E3F8
E3F8
E038
FFB8
FFB8
07F8
0FF0
0C38
0C38
0E78
07F0
03E0
ENDCHAR
STARTCHAR B123
ENCODING 13142
SWIDTH 1800 0
DWIDTH 18 0
BBX 14 15 1 -3
BITMAP
E038
E038
E3F8
E3F8
E038
FFB8
FFB8
0038
0380
7FFC
7CFC
1C70
1CF0
0FE0
07C0
ENDCHAR
STARTCHAR B124
ENCODING 13143
SWIDTH 1800 0
DWIDTH 18 0
BBX 13 14 1 -2
BITMAP
01F8
E1F8
E1F8
E1F8
EFF8
EFF8
E1F8
E1F8
E1F8
FFF8
FFF8
01F8
01F8
01F8
ENDCHAR
STARTCHAR B125
ENCODING 13144
SWIDTH 1800 0
DWIDTH 18 0
BBX 13 14 1 -2
BITMAP
E1F8
E1F8
EFF8
EFF8
E1F8
FFF8
FFF8
01F8
0000
7FF8
7FF8
0038
0038
0038
ENDCHAR
STARTCHAR B128
ENCODING 13145
SWIDTH 1800 0
DWIDTH 18 0
BBX 13 14 1 -2
BITMAP
E1F8
E1F8
EFF8
EFF8
E1F8
E1F8
FFF8
FFF8
01F8
71F8
7000
7000
7FF8
7FF8
ENDCHAR
STARTCHAR B12C
ENCODING 13146
SWIDTH 1800 0
DWIDTH 18 0
BBX 13 14 1 -2
BITMAP
01F8
E1F8
EFF8
EFF8
E1F8
FFF8
FFF8
01C0
7FF8
7FF8
7FF8
7FF8
7FF8
7FF8
ENDCHAR
STARTCHAR B134
ENCODING 13147
SWIDTH 1800 0
DWIDTH 18 0
BBX 13 14 1 -2
BITMAP
E1F8
E1F8
EFF8
EFF8
E1F8
FFF8
FFF8
01F8
7FF8
7FF8
7038
7038
7FF8
3FF8
ENDCHAR
STARTCHAR B135
ENCODING 13148
SWIDTH 1800 0
DWIDTH 18 0
BBX 13 14 1 -2
BITMAP
E1F8
E1F8
EFF8
EFF8
E1F8
FFF8
FFF8
01F8
7038
7FF8
7FF8
7038
7FF8
3FF8
ENDCHAR
STARTCHAR B137
ENCODING 13149
SWIDTH 1800 0
DWIDTH 18 0
BBX 14 14 1 -2
BITMAP
01F8
E1F8
EFF8
EFF8
E1F8
E1F8
FFF8
FFF8
03C0
07C0
0FE0
7EFC
7C78
3018
ENDCHAR
STARTCHAR B138
ENCODING 13150
SWIDTH 1800 0
DWIDTH 18 0
BBX 14 14 1 -2
BITMAP
E1F8
E1F8
EFF8
EFF8
E1F8
FFF8
FFF8
0038
1CE0
1CE0
3FF0
7FF8
E79C
C108
ENDCHAR
STARTCHAR B139
ENCODING 13151
SWIDTH 1800 0
DWIDTH 18 0
BBX 13 14 1 -2
BITMAP
E1F8
E1F8
EFF8
EFF8
E1F8
FFF8
FFF8
07F8
0FF0
0E38
0E38
0E38
0FF0
03E0
ENDCHAR
STARTCHAR B140
ENCODING 13152
SWIDTH 1800 0
DWIDTH 18 0
BBX 13 14 1 -2
BITMAP
0038
E038
E3F8
E3F8
E038
E3F8
E3F8
E038
E038
FFB8
FFB8
0038
0038
0038
ENDCHAR
STARTCHAR B141
ENCODING 13153
SWIDTH 1800 0
DWIDTH 18 0
BBX 13 14 1 -2
BITMAP
0038
E3F8
E3F8
E3F8
E3F8
E038
FFB8
FFB8
0000
FFF8
FFF8
0038
0038
0038
ENDCHAR
STARTCHAR B144
ENCODING 13154
SWIDTH 1800 0
DWIDTH 18 0
BBX 13 14 1 -2
BITMAP
E038
E3F8
E3F8
E038
E3F8
E3F8
FFB8
FFB8
0038
E038
E000
E000
FFF8
FFF8
ENDCHAR
STARTCHAR B148
ENCODING 13155
SWIDTH 1800 0
DWIDTH 18 0
BBX 13 14 1 -2
BITMAP
E038
E3F8
E3F8
E3F8
E3F8
FFB8
FFB8
0038
7FF8
7FF8
7FF8
7FF8
7FF8
7FF8
ENDCHAR
STARTCHAR B150
ENCODING 13156
SWIDTH 1800 0
DWIDTH 18 0
BBX 13 14 1 -2
BITMAP
0038
E3F8
E3F8
E3F8
E3F8
E038
FFB8
FFB8
FFF8
FFF8
E038
E038
FFF8
7FF8
ENDCHAR
STARTCHAR B151
ENCODING 13157
SWIDTH 1800 0
DWIDTH 18 0
BBX 13 14 1 -2
BITMAP
0038
E3F8
E3F8
E3F8
E3F8
E038
FFB8
FFB8
E038
FFF8
FFF8
E038
FFF8
7FF8
ENDCHAR
STARTCHAR B154
ENCODING 13158
SWIDTH 1800 0
DWIDTH 18 0
BBX 14 14 1 -2
BITMAP
0038
E3F8
E3F8
E3F8
E3F8
E038
FFB8
FFB8
1CE0
1CE0
3FF0
7FF8
E79C
C108
ENDCHAR
STARTCHAR B155
ENCODING 13159
SWIDTH 1800 0
DWIDTH 18 0
BBX 13 14 1 -2
BITMAP
0038
E3F8
E3F8
E3F8
E3F8
E0B8
FFB8
FFB8
07F0
0C38
0C38
0E78
0FF0
03E0
ENDCHAR
STARTCHAR B158
ENCODING 13160
SWIDTH 1800 0
DWIDTH 18 0
BBX 13 14 1 -2
BITMAP
0038
E3F8
E3F8
E3F8
E3F8
E038
FFB8
FFB8
7FF8
7FF8
0038
7FF8
7FF8
0038
ENDCHAR
STARTCHAR B15C
ENCODING 13161
SWIDTH 1800 0
DWIDTH 18 0
BBX 13 14 1 -2
BITMAP
E1F8
E1F8
EFF8
EFF8
E1F8
EFF8
EFF8
E1F8
E1F8
FFF8
FFF8
01F8
01F8
01F8
ENDCHAR
STARTCHAR B160
ENCODING 13162
SWIDTH 1800 0
DWIDTH 18 0
BBX 13 14 1 -2
BITMAP
E1F8
EFF8
EFF8
E1F8
EFF8
EFF8
FFF8
FFF8
01F8
E1F8
E000
E000
FFF8
FFF8
ENDCHAR
STARTCHAR B178
ENCODING 13163
SWIDTH 1800 0
DWIDTH 18 0
BBX 15 13 0 -1
BITMAP
3800
3800
3800
3800
3800
3800
3FFC
3FFC
0380
0380
0380
FFFE
FFFE
ENDCHAR
STARTCHAR B179
ENCODING 13164
SWIDTH 1800 0
DWIDTH 18 0
BBX 15 14 0 -2
BITMAP
7000
7000
7000
7000
7FFC
7FFC
FFFE
FFFE
0000
7FFC
7FFC
001C
001C
001C
ENDCHAR
STARTCHAR B17C
ENCODING 13165
SWIDTH 1800 0
DWIDTH 18 0
BBX 14 14 0 -2
BITMAP
7000
7000
7000
7000
7FFC
7FFC
0380
FFFC
FFFC
7000
7000
7000
7FFC
7FFC
ENDCHAR
STARTCHAR B180
ENCODING 13166
SWIDTH 1800 0
DWIDTH 18 0
BBX 14 14 0 -2
BITMAP
7000
7000
7000
7FFC
7FFC
0380
FFFC
FFFC
7FF8
7FF8
7FF8
7FF8
7FFC
7FFC
ENDCHAR
STARTCHAR B182
ENCODING 13167
SWIDTH 1800 0
DWIDTH 18 0
BBX 14 14 0 -2
BITMAP
7000
7000
7000
7FFC
7FFC
0380
FFFC
FFFC
7EFC
7EFC
7EFC
7EFC
7EFC
3EFC
ENDCHAR
STARTCHAR B188
ENCODING 13168
SWIDTH 1800 0
DWIDTH 18 0
BBX 14 14 0 -2
BITMAP
7000
7000
7000
7FFC
7FFC
0380
FFFC
FFFC
0000
7FFC
7FFC
701C
7FFC
7FFC
ENDCHAR
STARTCHAR B189
ENCODING 13169
SWIDTH 1800 0
DWIDTH 18 0
BBX 14 14 0 -2
BITMAP
7000
7000
7000
7FFC
7FFC
0380
FFFC
FFFC
701C
7FFC
7FFC
701C
7FFC
3FFC
ENDCHAR
STARTCHAR B18B
ENCODING 13170
SWIDTH 1800 0
DWIDTH 18 0
BBX 14 14 0 -2
BITMAP
7000
7000
7000
7FF8
7FF8
0FF8
FFFC
FFFC
0380
0380
0FE0
FEFC
7C78
7018
ENDCHAR
STARTCHAR B18D
ENCODING 13171
SWIDTH 1800 0
DWIDTH 18 0
BBX 15 14 0 -2
BITMAP
7000
7000
7000
7FFC
7FFC
0380
FFFE
FFFE
0FF0
1C38
1C38
1E78
0FF0
07E0
ENDCHAR
STARTCHAR B192
ENCODING 13172
SWIDTH 1800 0
DWIDTH 18 0
BBX 14 14 0 -2
BITMAP
7000
7000
7000
7FFC
7FFC
0380
FFFC
FFFC
7FFC
7FFC
1C70
1C70
7FFC
7FFC
ENDCHAR
STARTCHAR B193
ENCODING 13173
SWIDTH 1800 0
DWIDTH 18 0
BBX 14 15 0 -3
BITMAP
7000
7000
7000
7FFC
7FFC
0380
FFFC
FFFC
0380
7FFC
7E7C
0C70
0E70
0FF0
07E0
ENDCHAR
STARTCHAR B194
ENCODING 13174
SWIDTH 1800 0
DWIDTH 18 0
BBX 15 14 1 -2
BITMAP
0038
7038
7038
7038
7038
703E
7FBE
7FB8
0E38
0E38
FFF8
FFF8
0038
0038
ENDCHAR
STARTCHAR B198
ENCODING 13175
SWIDTH 1800 0
DWIDTH 18 0
BBX 15 14 1 -2
BITMAP
0038
7038
7038
703E
7FFE
7FF8
0638
FFF8
FFF8
3838
3838
3800
3FFC
3FFC
ENDCHAR
STARTCHAR B19C
ENCODING 13176
SWIDTH 1800 0
DWIDTH 18 0
BBX 15 14 1 -2
BITMAP
7038
7038
7038
7FFE
7FFE
FFF8
FFF8
0000
7FF8
7FF8
7FF8
7FF8
7FF8
3FF8
ENDCHAR
STARTCHAR B1A8
ENCODING 13177
SWIDTH 1800 0
DWIDTH 18 0
BBX 15 14 1 -2
BITMAP
7038
7038
7038
7FFE
7FFE
C638
FFF8
0038
0E70
1E70
1EF8
7FDC
73DC
428C
ENDCHAR
STARTCHAR B1CC
ENCODING 13178
SWIDTH 1800 0
DWIDTH 18 0
BBX 14 14 0 -2
BITMAP
701C
701C
701C
701C
701C
7FFC
7FFC
071C
071C
FFFC
FFFC
001C
001C
001C
ENDCHAR
STARTCHAR B1D0
ENCODING 13179
SWIDTH 1800 0
DWIDTH 18 0
BBX 14 14 0 -2
BITMAP
001C
701C
701C
701C
7FFC
7FFC
071C
FFFC
FFFC
701C
701C
7000
7FFC
7FFC
ENDCHAR
STARTCHAR B1D4
ENCODING 13180
SWIDTH 1800 0
DWIDTH 18 0
BBX 14 14 0 -2
BITMAP
001C
701C
701C
7FDC
7FDC
FFFC
FFFC
0000
3FFC
3FFC
3FFC
3FFC
3FFC
3FFC
ENDCHAR
STARTCHAR B1DC
ENCODING 13181
SWIDTH 1800 0
DWIDTH 18 0
BBX 14 14 0 -2
BITMAP
701C
701C
701C
7FFC
7FFC
071C
FFFC
FFFC
0000
7FFC
7FFC
701C
7FFC
7FFC
ENDCHAR
STARTCHAR B1DD
ENCODING 13182
SWIDTH 1800 0
DWIDTH 18 0
BBX 14 14 0 -2
BITMAP
701C
701C
701C
7FFC
7FFC
071C
FFFC
FFFC
701C
7FFC
7FFC
701C
7FFC
3FFC
ENDCHAR
STARTCHAR B1DF
ENCODING 13345
SWIDTH 1800 0
DWIDTH 18 0
BBX 14 14 0 -2
BITMAP
701C
701C
701C
7FFC
7FFC
071C
FFFC
FFFC
039C
07C0
1EF0
7E7C
7838
2018
ENDCHAR
STARTCHAR B1E8
ENCODING 13346
SWIDTH 1800 0
DWIDTH 18 0
BBX 14 13 1 -1
BITMAP
E000
E000
E000
E000
E000
FFF0
FFF0
0000
1CE0
1CE0
1CE0
FFFC
FFFC
ENDCHAR
STARTCHAR B1E9
ENCODING 13347
SWIDTH 1800 0
DWIDTH 18 0
BBX 14 14 0 -2
BITMAP
7000
7000
7000
7FF8
7FF8
1E60
FFFC
FFFC
0000
3FFC
3FFC
001C
001C
001C
ENDCHAR
STARTCHAR B1EC
ENCODING 13348
SWIDTH 1800 0
DWIDTH 18 0
BBX 14 14 0 -2
BITMAP
7000
7000
7000
7000
7FF8
7FF8
1E60
FFFC
FFFC
7000
7000
7000
7FFC
7FFC
ENDCHAR
STARTCHAR B1F0
ENCODING 13349
SWIDTH 1800 0
DWIDTH 18 0
BBX 14 14 0 -2
BITMAP
7000
7000
7000
7FF8
7FF8
FFFC
FFFC
0000
7FF8
7FF8
7FF8
7FF8
7FFC
7FFC
ENDCHAR
STARTCHAR B1F9
ENCODING 13350
SWIDTH 1800 0
DWIDTH 18 0
BBX 14 14 0 -2
BITMAP
7000
7000
7000
7FF8
7FF8
1E60
FFFC
FFFC
701C
7FFC
7FFC
701C
7FFC
3FFC
ENDCHAR
STARTCHAR B1FB
ENCODING 13351
SWIDTH 1800 0
DWIDTH 18 0
BBX 14 14 0 -2
BITMAP
7000
7000
7000
7FF8
7FF8
1E60
FFFC
FFFC
0000
0380
07C0
1FE0
7C78
3018
ENDCHAR
STARTCHAR B1FD
ENCODING 13352
SWIDTH 1800 0
DWIDTH 18 0
BBX 15 14 0 -2
BITMAP
7000
7000
7000
7FFC
7FFC
1E70
FFFE
FFFE
0E70
1C38
1C38
1E78
0FF0
07E0
ENDCHAR
STARTCHAR B204
ENCODING 13353
SWIDTH 1800 0
DWIDTH 18 0
BBX 14 14 1 -2
BITMAP
E000
E000
E000
E000
FFF8
FFF8
0000
0000
FFFC
FFFC
0700
0700
0700
0700
ENDCHAR
STARTCHAR B205
ENCODING 13354
SWIDTH 1800 0
DWIDTH 18 0
BBX 14 14 1 -2
BITMAP
E000
E000
E000
FFF8
7FF8
0000
FFFC
FFFC
0700
7FF8
7FF8
0038
0038
0038
ENDCHAR
STARTCHAR B208
ENCODING 13355
SWIDTH 1800 0
DWIDTH 18 0
BBX 14 14 0 -2
BITMAP
7000
7000
7000
7000
7FF8
3FF8
FFFC
FFFC
0380
7380
7000
7000
7FFC
7FFC
ENDCHAR
STARTCHAR B20B
ENCODING 13356
SWIDTH 1800 0
DWIDTH 18 0
BBX 14 14 0 -2
BITMAP
7000
7000
7000
7FF8
7FF8
0000
FFFC
FFFC
0380
7FF8
7FF8
7000
7FF8
7FF8
ENDCHAR
STARTCHAR B20C
ENCODING 13357
SWIDTH 1800 0
DWIDTH 18 0
BBX 14 14 1 -2
BITMAP
E000
E000
E000
FFF0
7FF0
FFFC
FFFC
0700
FFF8
FFF8
FFF8
FFF8
FFF8
7FF8
ENDCHAR
STARTCHAR B214
ENCODING 13358
SWIDTH 1800 0
DWIDTH 18 0
BBX 14 14 1 -2
BITMAP
E000
E000
E000
FFF0
FFF0
0000
FFFC
FFFC
0700
FFF8
FFF8
E038
FFF8
7FF8
ENDCHAR
STARTCHAR B215
ENCODING 13359
SWIDTH 1800 0
DWIDTH 18 0
BBX 15 14 0 -2
BITMAP
7000
7000
7000
7FFC
3FFC
0000
FFFE
FFFE
739C
7FFC
7FFC
701C
7FFC
3FFC
ENDCHAR
STARTCHAR B217
ENCODING 13360
SWIDTH 1800 0
DWIDTH 18 0
BBX 14 14 0 -2
BITMAP
7000
7000
7000
7FF8
7FF8
0000
FFFC
E380
0000
0380
07C0
7FF8
7E7C
3018
ENDCHAR
STARTCHAR B219
ENCODING 13361
SWIDTH 1800 0
DWIDTH 18 0
BBX 14 14 1 -2
BITMAP
E000
E000
E000
FFF0
7FF0
0000
FFFC
FFFC
0700
1DC0
38E0
38E0
1FE0
0F80
ENDCHAR
STARTCHAR B220
ENCODING 13362
SWIDTH 1800 0
DWIDTH 18 0
BBX 14 14 0 -2
BITMAP
701C
701C
701C
701C
7FDC
7FDC
001C
FFFC
FFFC
0E1C
0EFC
0EFC
0E1C
0E1C
ENDCHAR
STARTCHAR B234
ENCODING 13363
SWIDTH 1800 0
DWIDTH 18 0
BBX 15 14 0 -2
BITMAP
701C
701C
701C
7F9C
7FBC
003C
FF9C
FF9C
001C
0E70
1E78
3FFC
73DE
628C
ENDCHAR
STARTCHAR B23C
ENCODING 13364
SWIDTH 1800 0
DWIDTH 18 0
BBX 14 14 0 -2
BITMAP
70FC
70FC
70FC
70FC
7FFC
7FFC
00FC
FFFC
FFFC
1CFC
1FFC
1FFC
1CFC
1CFC
ENDCHAR
STARTCHAR B258
ENCODING 13365
SWIDTH 1800 0
DWIDTH 18 0
BBX 14 15 0 -3
BITMAP
701C
701C
701C
701C
7FDC
7FDC
001C
001C
FFFC
FFFC
0E1C
0E1C
0E1C
0E1C
001C
ENDCHAR
STARTCHAR B25C
ENCODING 13366
SWIDTH 1800 0
DWIDTH 18 0
BBX 14 14 0 -2
BITMAP
701C
701C
701C
7FDC
7FDC
001C
FFFC
FFFC
071C
771C
7000
7000
7FFC
7FFC
ENDCHAR
STARTCHAR B260
ENCODING 13367
SWIDTH 1800 0
DWIDTH 18 0
BBX 14 14 0 -2
BITMAP
001C
701C
701C
7FFC
7FFC
FFFC
FFFC
001C
3FFC
3FFC
3FFC
3FFC
3FFC
3FFC
ENDCHAR
STARTCHAR B268
ENCODING 13368
SWIDTH 1800 0
DWIDTH 18 0
BBX 14 14 0 -2
BITMAP
701C
701C
701C
7FFC
7FFC
FFFC
FFFC
0E1C
0000
7FFC
7FFC
701C
7FFC
7FFC
ENDCHAR
STARTCHAR B269
ENCODING 13369
SWIDTH 1800 0
DWIDTH 18 0
BBX 14 14 0 -2
BITMAP
001C
701C
701C
7FFC
7FFC
FFFC
FFFC
0000
701C
7FFC
7FFC
701C
7FFC
3FFC
ENDCHAR
STARTCHAR B274
ENCODING 13370
SWIDTH 1800 0
DWIDTH 18 0
BBX 15 14 0 -2
BITMAP
3800
3800
3800
3800
3FFC
3FFC
0000
0000
FFFE
FFFE
1C70
1C70
1C70
1C70
ENDCHAR
STARTCHAR B275
ENCODING 13371
SWIDTH 1800 0
DWIDTH 18 0
BBX 14 14 1 -2
BITMAP
E000
E000
E000
FFF8
FFF8
0000
FFFC
FFFC
38E0
7FF8
7FF8
0038
0038
0038
ENDCHAR
STARTCHAR B27C
ENCODING 13372
SWIDTH 1800 0
DWIDTH 18 0
BBX 14 14 1 -2
BITMAP
E000
E000
E000
FFF0
FFF0
FFFC
FFFC
38E0
FFF8
FFF8
FFF8
FFF8
FFF8
7FF8
ENDCHAR
STARTCHAR B284
ENCODING 13373
SWIDTH 1800 0
DWIDTH 18 0
BBX 14 14 1 -2
BITMAP
E000
E000
E000
FFF8
FFF8
0000
FFFC
FFFC
1CE0
7FF8
7FF8
7038
7FF8
7FF8
ENDCHAR
STARTCHAR B285
ENCODING 13374
SWIDTH 1800 0
DWIDTH 18 0
BBX 15 14 0 -2
BITMAP
7000
7000
7000
7FFC
7FFC
0000
FFFE
FFFE
7EFC
7FFC
7FFC
701C
7FFC
3FFC
ENDCHAR
STARTCHAR B289
ENCODING 13375
SWIDTH 1800 0
DWIDTH 18 0
BBX 14 14 1 -2
BITMAP
E000
E000
E000
FFF0
FFF0
FFFC
FFFC
38E0
3FE0
3DE0
38E0
38E0
1FC0
0F80
ENDCHAR
STARTCHAR B290
ENCODING 13376
SWIDTH 1800 0
DWIDTH 18 0
BBX 14 13 1 -1
BITMAP
E000
E000
E000
E000
E000
E000
E000
FFF0
FFF0
0000
0000
FFFC
FFFC
ENDCHAR
STARTCHAR B291
ENCODING 13377
SWIDTH 1800 0
DWIDTH 18 0
BBX 14 14 1 -2
BITMAP
E000
E000
E000
FFF0
FFF0
0000
FFFC
FFFC
0000
FFF8
FFF8
0038
0038
0038
ENDCHAR
ENDFONT
